<!-- Created with Inkscape (http://www.inkscape.org/) -->
<svg width="300" height="300" version="1.1" viewBox="0 0 110.71 110.71" xmlns="http://www.w3.org/2000/svg">
 <g transform="translate(-49.362 -49.493)">
  <path transform="matrix(1.3333 0 0 -1.3333 104.72 160.2)" d="m0 0c22.928 0 41.515 18.587 41.515 41.515 0 22.929-18.587 41.516-41.515 41.516s-41.515-18.587-41.515-41.516c0-22.928 18.587-41.515 41.515-41.515" fill="#396eb4"/>
  <g fill="none" stroke="#fff" stroke-width=".28">
   <path transform="matrix(1.3333 0 0 -1.3333 78.971 144.11)" d="m0 0-0.439 0.325-1.274-1.722v0.412l-5e-3 2.256-0.615 0.456-1.829-2.471 0.448-0.332 1.34 1.81c-1e-3 -0.079-1e-3 -0.138-1e-3 -0.176 1e-3 -0.084 1e-3 -0.145 1e-3 -0.183l4e-3 -2.446 0.541-0.4z"/>
   <path transform="matrix(1.3333 0 0 -1.3333 81.321 149.6)" d="m0 0-1.558 0.911 0.434 0.743 1.235-0.722 0.225 0.385-1.234 0.722 0.42 0.719 1.536-0.898 0.231 0.395-2.134 1.247-1.552-2.653 2.156-1.261z"/>
   <path transform="matrix(1.3333 0 0 -1.3333 89.889 149.64)" d="m0 0-1.515-1.805 0.129 2.365-0.65 0.262-1.481-1.819 0.149 2.356-0.681 0.275-0.177-3.244 0.66-0.266 1.491 1.836-0.136-2.383 0.674-0.272 2.104 2.466z"/>
   <path transform="matrix(1.3333 0 0 -1.3333 96.257 153.66)" d="m0 0 1.551 1.517-0.653 0.123-1.092-1.086-0.662 1.415-0.825 0.155 0.959-1.988-0.24-1.275 0.722-0.136z"/>
   <path transform="matrix(1.3333 0 0 -1.3333 102.56 155.58)" d="m0 0c0.322 0.269 0.5 0.641 0.534 1.114 0.033 0.451-0.084 0.837-0.352 1.158-0.267 0.321-0.65 0.5-1.148 0.536-0.494 0.036-0.903-0.085-1.226-0.363-0.323-0.279-0.501-0.641-0.533-1.087-0.033-0.449 0.081-0.837 0.343-1.163 0.261-0.326 0.646-0.508 1.155-0.545 0.496-0.036 0.905 0.08 1.227 0.35zm-1.815 0.428c-0.137 0.202-0.192 0.488-0.165 0.858 0.056 0.762 0.379 1.121 0.971 1.078 0.299-0.021 0.513-0.137 0.641-0.348 0.127-0.21 0.178-0.491 0.153-0.843-0.032-0.433-0.14-0.725-0.324-0.878-0.184-0.152-0.401-0.219-0.65-0.201-0.28 0.021-0.489 0.132-0.626 0.334z"/>
   <path transform="matrix(1.3333 0 0 -1.3333 108.1 154.19)" d="m0 0c0.453 0.173 0.669 0.457 0.648 0.851-0.015 0.266-0.135 0.476-0.361 0.632-0.227 0.155-0.572 0.22-1.035 0.196l-1.664-0.09 0.166-3.07 0.691 0.037-0.068 1.262 0.973 0.052 0.664-1.229 0.731 0.039zm-1.696 1.185 0.916 0.05c0.216 0.011 0.386-0.021 0.51-0.098s0.19-0.183 0.198-0.318c8e-3 -0.147-0.047-0.265-0.165-0.356-0.117-0.09-0.3-0.142-0.549-0.156l-0.861-0.046z"/>
   <path transform="matrix(1.3333 0 0 -1.3333 113.03 152.61)" d="m0 0 0.731 1.149-0.692-0.117-1.026-1.581c-0.031-0.047-0.082-0.133-0.15-0.256l-0.27 1.593-0.683-0.116 0.513-3.031 0.683 0.115-0.129 0.766 0.601 0.902 1.061-1.408 0.763 0.129z"/>
   <path transform="matrix(1.3333 0 0 -1.3333 121.73 152.22)" d="m0 0c-0.091-0.168-0.233-0.286-0.424-0.354-0.238-0.085-0.462-0.064-0.671 0.063s-0.376 0.366-0.501 0.717c-0.123 0.345-0.149 0.632-0.079 0.862 0.071 0.23 0.228 0.389 0.472 0.476 0.38 0.135 0.704 5e-3 0.971-0.393l0.586 0.267c-0.179 0.307-0.42 0.507-0.721 0.598-0.302 0.092-0.632 0.074-0.991-0.054-0.458-0.163-0.769-0.43-0.932-0.8s-0.165-0.775-8e-3 -1.216c0.098-0.275 0.243-0.506 0.436-0.694 0.192-0.188 0.415-0.312 0.669-0.371 0.253-0.06 0.545-0.03 0.876 0.088 0.392 0.139 0.676 0.346 0.85 0.62 0.175 0.273 0.23 0.562 0.165 0.866l-0.624-0.163c0.042-0.173 0.017-0.344-0.074-0.512z"/>
   <path transform="matrix(1.3333 0 0 -1.3333 123.96 147.7)" d="m0 0-0.626-0.296 1.312-2.78 0.627 0.296z"/>
   <path transform="matrix(1.3333 0 0 -1.3333 127.67 146.47)" d="m0 0 0.884 0.514-0.239 0.41-2.41-1.4 0.239-0.411 0.883 0.513 1.306-2.247 0.643 0.374z"/>
   <path transform="matrix(1.3333 0 0 -1.3333 133.45 144.71)" d="m0 0-0.052 2.169-0.535-0.394 0.049-1.539-1.486 0.48-0.676-0.498 2.108-0.654 0.77-1.044 0.592 0.436z"/>
  </g>
  <g fill="#fff">
   <path d="m76.531 147.41-0.71875-0.54687v-3.25c0-0.0508-0.0078-0.13281-0.01563-0.25 0-0.0391 0.0039-0.11328 0.01563-0.21875l-1.7812 2.4062-0.60938-0.45313 2.4375-3.2969 0.8125 0.60937 0.01563 3c0 0.0391 0.0039 0.22656 0.01563 0.5625l1.6875-2.2969 0.57812 0.4375z"/>
   <path d="m81 150.15-2.875-1.6875 2.0781-3.5469 2.8438 1.6719-0.3125 0.53125-2.0469-1.2031-0.5625 0.96875 1.6406 0.96874-0.29687 0.51563-1.6406-0.96875-0.57813 0.98437 2.0781 1.2188z"/>
   <path d="m90.648 149.93-2.8125 3.2969-0.89062-0.35938 0.17188-3.1875-1.9844 2.4531-0.875-0.34375 0.23438-4.3438 0.90625 0.35937-0.20312 3.1562 1.9688-2.4375 0.875 0.35938-0.17188 3.1562 2.0312-2.4219z"/>
   <path d="m95.938 155.36-0.96875-0.1875 0.3125-1.7031-1.25-2.6406 1.0938 0.20313 0.875 1.8906 1.4531-1.4531 0.875 0.17187-2.0781 2.0156z"/>
   <path d="m100.93 156.04c-0.67968-0.043-1.1953-0.28125-1.5469-0.71875-0.35547-0.4375-0.50781-0.95704-0.45312-1.5625 0.03906-0.59375 0.27344-1.0703 0.70312-1.4375 0.42578-0.375 0.97265-0.53516 1.6406-0.48438 0.64454 0.043 1.1484 0.28125 1.5156 0.71875 0.36328 0.42969 0.52344 0.9375 0.48437 1.5312-0.0547 0.63672-0.29296 1.1367-0.71875 1.5-0.42968 0.35156-0.96875 0.50391-1.625 0.45313zm0.0312-0.59375c0.33203 0.0312 0.625-0.0508 0.875-0.25 0.25-0.20704 0.39454-0.60157 0.4375-1.1875 0.0312-0.46875-0.043-0.84375-0.21875-1.125-0.16796-0.28125-0.44531-0.42969-0.82812-0.45313-0.79297-0.0625-1.2266 0.41406-1.2969 1.4219-0.04297 0.5 0.02344 0.88671 0.20313 1.1562 0.17578 0.27343 0.45312 0.41796 0.82812 0.4375z"/>
   <path d="m109.11 155.95-0.98438 0.0625-0.89062-1.6562-1.2969 0.0781 0.0937 1.6875-0.92187 0.0469-0.21875-4.1094 2.2188-0.125c0.625-0.0312 1.082 0.0586 1.375 0.26563 0.30078 0.21094 0.46094 0.49219 0.48437 0.84375 0.0312 0.53125-0.25781 0.91406-0.85937 1.1406zm-3.2031-2.1094 1.1562-0.0625c0.33203-0.0195 0.57813-0.0859 0.73438-0.20312 0.15625-0.11328 0.22656-0.26953 0.21875-0.46875-0.0117-0.1875-0.10156-0.33203-0.26563-0.4375-0.16797-0.10156-0.39843-0.14453-0.6875-0.125l-1.2188 0.0625z"/>
   <path d="m114.91 155.09-1.0156 0.17187-1.4062-1.8906-0.8125 1.2188 0.17188 1.0156-0.92188 0.15625-0.6875-4.0469 0.92188-0.15625 0.35937 2.125c0.0937-0.16406 0.15625-0.28125 0.1875-0.34375l1.375-2.1094 0.92188-0.15625-0.96875 1.5312z"/>
   <path d="m121.81 151.53 0.84375-0.20312c0.082 0.40625 4e-3 0.79296-0.23437 1.1562-0.23047 0.36718-0.60547 0.64062-1.125 0.82812-0.4375 0.15625-0.82813 0.19922-1.1719 0.125-0.33593-0.082-0.63281-0.25-0.89062-0.5-0.25-0.25781-0.4375-0.56641-0.5625-0.92187-0.20703-0.59375-0.20313-1.1328 0.0156-1.625 0.21094-0.5 0.61328-0.85938 1.2188-1.0781 0.47657-0.17578 0.92188-0.20312 1.3281-0.0781 0.40625 0.125 0.72656 0.39062 0.96875 0.79687l-0.79688 0.35937c-0.35547-0.53906-0.78125-0.71875-1.2812-0.53125-0.33593 0.11719-0.54687 0.32813-0.64062 0.64063-0.0859 0.30469-0.043 0.6875 0.125 1.1562 0.16406 0.46875 0.38281 0.78906 0.65625 0.95312 0.28125 0.16797 0.57812 0.19532 0.89062 0.0781 0.25782-0.082 0.44532-0.23438 0.5625-0.45313 0.125-0.22656 0.15625-0.46093 0.0937-0.70312z"/>
   <path d="m125.71 151.41-0.82812 0.40625-1.75-3.7188 0.82812-0.40625z"/>
   <path d="m129.43 149.46-0.875 0.5-1.75-3-1.1719 0.6875-0.3125-0.54688 3.2188-1.875 0.3125 0.54687-1.1719 0.6875z"/>
   <path d="m134.47 146.1-0.78125 0.59375-1.0312-1.3906-2.8125-0.89062 0.89062-0.67188 2 0.65625-0.0781-2.0625 0.71875-0.53125 0.0625 2.9062z"/>
   <path d="m91.316 87.484c-0.3125 2.5469-1.6406 5.0156-3.2031 6-1.2656 0.76562-2.7031 1.2031-4.0938 1.2031-4.3906 0-7.2188-3.7344-7.2188-9.5156 0-6.3281 2.6406-10.109 7.0781-10.109 2.3594 0 4.6406 1.1094 5.8281 2.8906 0.78125 1.1094 1.2969 2.6094 1.6094 4.4844h0.64062l-0.1875-7.7812h-0.64062c-0.09375 0.85938-0.40625 1.9062-0.79688 2.6562-1.5469-1.8438-4.2187-3.0156-6.9531-3.0156-5.9375 0-10.062 4.4844-10.062 11 0 6.0625 4.0938 10.25 10.094 10.25 2.7969 0 5.1094-1.0156 6.9219-3.0469 0.42188 0.51562 0.85938 1.4375 0.98438 2.1562h0.64062v-7.1719zm9.2578 10.055c-0.3125 2.5469-1.6406 5.0156-3.2031 6-1.2656 0.76563-2.7031 1.2031-4.0937 1.2031-4.3906 0-7.2188-3.7344-7.2188-9.5156 0-6.3281 2.6406-10.109 7.0781-10.109 2.3594 0 4.6406 1.1094 5.8281 2.8906 0.78125 1.1094 1.2969 2.6094 1.6094 4.4844h0.64062l-0.1875-7.7812h-0.64062c-0.0937 0.85938-0.40625 1.9062-0.79688 2.6562-1.5469-1.8438-4.2188-3.0156-6.9531-3.0156-5.9375 0-10.062 4.4844-10.062 11 0 6.0625 4.0938 10.25 10.094 10.25 2.7969 0 5.1094-1.0156 6.9219-3.0469 0.42188 0.51562 0.85938 1.4375 0.98438 2.1562h0.64062v-7.1719zm16.871 18.082v-0.70312h-0.14062c-2.125 0-3.7031-1.1406-6.125-4.4375-2.1875-2.9844-3.5625-4.5469-4.6719-5.1562 3.6562-0.4375 5.8438-2.4062 5.8438-5.2031 0-1.6875-0.79687-3.0469-2.4375-4.0312-1.4062-0.89062-3.4375-1.2812-6.4219-1.2812-0.79688 0-2.9844 0.0625-4.6719 0.15625l-2.9531 0.14062v0.71875h0.375c2.6094-0.0625 2.8281 0.23438 2.7656 4.3906v10.094c0.06249 4.2031-0.1875 4.6094-2.625 4.6094h-0.64062v0.70312h9.8125v-0.70312h-0.98438c-2.4375 0-2.6719-0.40625-2.6094-4.6094v-4.5938h0.82812c1.1406-0.0937 1.75 0.5 4.6719 4.5312 1.7812 2.6094 3.5312 4.7344 4.4844 5.375zm-15.484-10.578v-9.4063c0.57812-0.03125 0.92187-0.0625 1.3125-0.0625 1.6875 0 2.8906 0.1875 3.7188 0.60938 1.3281 0.625 2.0312 2.0938 2.0312 4.1562 0 3.2031-1.5938 4.6094-5.3125 4.6719h-1.4219zm11.129 0.67187v0.71875h0.39063c2.625-0.0625 2.8281 0.23438 2.7812 4.4844v10c0.0469 4.2031-0.1875 4.6094-2.625 4.6094h-0.76563v0.70313h8.0312c3.375 0 4.8906-0.25 6.2031-0.95313 1.6875-0.92187 2.7031-2.6719 2.7031-4.6406 0-3.1719-2.4219-5.1094-6.9062-5.4531 3.8438-0.54687 5.8125-2.2031 5.8125-4.7969 0-1.8438-1.0156-3.25-2.8906-4.0469-1.2969-0.5625-3.1406-0.82812-5.5156-0.82812-0.79687 0-0.79687 0-3.8438 0.10937zm6.1094 9.9375c0.6875-0.0312 0.71875-0.0312 1.1406-0.0312 4.5312 0 6.2188 1.3906 6.2188 5.0156 0 3.1875-1.6562 4.8906-4.8594 4.8906-1.4219 0-2.0625-0.34375-2.2812-1.1719-0.15625-0.54688-0.21875-1.5312-0.21875-4.1562zm0-0.73437v-8.6094c0.46875-0.0625 0.75-0.0625 1.2031-0.0625 1.5469 0 2.5312 0.15625 3.1719 0.42188 1.3438 0.65625 1.9375 1.8438 1.9375 3.9062 0 3.2031-1.5156 4.3438-5.6562 4.3438z"/>
  </g>
  <g fill="none" stroke="#fff">
   <path transform="matrix(1.3333 0 0 -1.3333 104.83 158.48)" d="m0 0c22.214 0 40.222 18.008 40.222 40.222 0 22.215-18.008 40.223-40.222 40.223s-40.222-18.008-40.222-40.223c0-22.214 18.008-40.222 40.222-40.222z" stroke-width=".699"/>
   <path transform="matrix(1.3333 0 0 -1.3333 104.62 148.83)" d="m0 0c18.374 0 33.268 14.895 33.268 33.268 0 18.374-14.894 33.268-33.268 33.268s-33.268-14.894-33.268-33.268c0-18.373 14.894-33.268 33.268-33.268z" stroke-width=".699"/>
   <path transform="matrix(1.3333 0 0 -1.3333 57.879 112.6)" d="m0 0c0.159-0.143 0.262-0.334 0.309-0.572 0.059-0.299 0.014-0.557-0.137-0.775-0.15-0.218-0.408-0.364-0.773-0.436-0.359-0.071-0.651-0.041-0.873 0.09-0.223 0.131-0.365 0.35-0.426 0.654-0.094 0.475 0.073 0.828 0.5 1.057l-0.203 0.745c-0.328-0.145-0.554-0.385-0.679-0.72s-0.143-0.727-0.054-1.175c0.114-0.572 0.347-0.993 0.7-1.263s0.759-0.359 1.219-0.268c0.286 0.057 0.533 0.179 0.743 0.365 0.209 0.186 0.358 0.422 0.445 0.706 0.087 0.285 0.09 0.634 8e-3 1.047-0.098 0.491-0.274 0.868-0.529 1.13-0.255 0.263-0.538 0.389-0.85 0.377l0.095-0.766c0.178 0.012 0.346-0.053 0.505-0.196z" stroke-width=".28"/>
   <g stroke-width=".37333">
    <path d="m54.076 108.7 0.10533 1.1027 4.0813-0.38934-0.10533-1.1027z"/>
    <path d="m53.913 101.87-0.0053 0.924 3.132 1.4613-3.1507 1.3893-8e-3 1.172 4.112-1.8707 0.0067-1.1267z"/>
    <path d="m54.177 99.01-0.10533 1.1027 4.0813 0.39067 0.10533-1.104z"/>
    <path d="m58.566 93.446-0.50933 2.5667-3.364-0.668-0.228 1.1453 4.0213 0.79733 0.73733-3.7107z"/>
    <path d="m56.042 89.732-0.30933 1.064 3.9347 1.1467 0.31067-1.064z"/>
    <path d="m57.942 84.485-0.52533 1.26 3 3.46 0.364-0.87333-0.716-0.82 0.90933-2.184 1.0893-0.07733 0.456-1.0933zm1.6827 2.5453-1.344-1.5307 2.0333-0.124z"/>
   </g>
   <g stroke-width=".28">
    <path transform="matrix(1.3333 0 0 -1.3333 62.285 76.317)" d="m0 0-0.337-0.562 1.836-1.102c-0.27-0.051-0.415-0.078-0.435-0.082l-2.383-0.453-0.473-0.788 2.636-1.582 0.344 0.574-1.931 1.159c0.084 0.015 0.146 0.026 0.186 0.034 0.089 0.017 0.154 0.03 0.193 0.038l2.585 0.49 0.415 0.692z"/>
    <path transform="matrix(1.3333 0 0 -1.3333 70.285 71.605)" d="m0 0c-0.022-0.212-0.115-0.408-0.28-0.587-0.206-0.224-0.441-0.34-0.706-0.347s-0.534 0.115-0.808 0.367c-0.27 0.249-0.418 0.501-0.443 0.759-0.025 0.257 0.067 0.5 0.278 0.729 0.328 0.356 0.71 0.43 1.148 0.22l0.482 0.603c-0.311 0.179-0.639 0.22-0.983 0.124-0.344-0.097-0.67-0.313-0.98-0.65-0.395-0.429-0.597-0.866-0.607-1.31s0.158-0.825 0.503-1.142c0.214-0.197 0.458-0.325 0.732-0.385 0.274-0.059 0.552-0.04 0.834 0.058 0.281 0.097 0.564 0.301 0.85 0.611 0.338 0.368 0.538 0.732 0.6 1.093s-4e-3 0.664-0.197 0.909l-0.563-0.529c0.115-0.136 0.162-0.311 0.14-0.523z"/>
    <path transform="matrix(1.3333 0 0 -1.3333 75.907 66.897)" d="m0 0c0.09 0.456-0.017 0.866-0.321 1.23-0.29 0.347-0.665 0.524-1.125 0.532s-0.92-0.18-1.38-0.564c-0.456-0.382-0.727-0.804-0.812-1.268-0.085-0.463 0.016-0.867 0.303-1.21 0.288-0.346 0.662-0.527 1.12-0.543s0.923 0.172 1.393 0.565c0.458 0.383 0.732 0.802 0.822 1.258zm-1.885-1.191c-0.262 0.031-0.511 0.189-0.749 0.473-0.49 0.587-0.462 1.108 0.084 1.565 0.276 0.231 0.545 0.324 0.804 0.28 0.26-0.044 0.503-0.201 0.73-0.472 0.278-0.333 0.391-0.629 0.337-0.889-0.053-0.26-0.194-0.485-0.424-0.678-0.259-0.216-0.52-0.309-0.782-0.279z"/>
   </g>
   <path d="m80.924 59.349-1.484 0.91467 0.308 2.912-2.4827-1.5707-1.476 0.90933 2.152 3.4893 0.77067-0.47467-1.884-3.0547 3.3413 2.156 0.49467-0.30533-0.43467-3.948 1.884 3.0547 0.96267-0.59333z" stroke-width=".37333"/>
   <path transform="matrix(1.3333 0 0 -1.3333 85.056 60.207)" d="m0 0 1.058 0.456c0.397 0.171 0.691 0.392 0.88 0.664 0.19 0.271 0.229 0.536 0.118 0.794-0.098 0.226-0.301 0.37-0.612 0.434-0.311 0.063-0.713-0.012-1.207-0.225l-1.735-0.748 1.217-2.823 0.763 0.329zm-0.553 1.282 0.835 0.36c0.3 0.129 0.525 0.177 0.676 0.144 0.15-0.033 0.25-0.108 0.3-0.224 0.055-0.128 0.038-0.257-0.053-0.388s-0.254-0.247-0.49-0.348l-0.903-0.39z" stroke-width=".28"/>
   <g stroke-width=".37333">
    <path d="m93.757 58.239-2.5213 0.70133-0.91867-3.3053-1.124 0.31333 1.0973 3.9493 3.6453-1.0133z"/>
    <path d="m98.474 53.949-1.3533 0.18133-1.4773 4.3333 0.93733-0.12533 0.348-1.0307 2.344-0.31467 0.616 0.90267 1.1747-0.15733zm-1.352 2.7347 0.64667-1.9307 1.1307 1.6933z"/>
    <path d="m103.98 53.578-1.108 0.02133 0.0787 4.0987 1.108-0.02133z"/>
   </g>
   <path transform="matrix(1.3333 0 0 -1.3333 111.06 53.923)" d="m0 0-0.653 0.054-0.177-2.135c-0.165 0.22-0.253 0.338-0.265 0.354l-1.461 1.938-0.915 0.076-0.254-3.064 0.667-0.055 0.185 2.245c0.051-0.069 0.089-0.12 0.113-0.152 0.055-0.072 0.095-0.125 0.12-0.157l1.582-2.101 0.805-0.067z" stroke-width=".28"/>
   <path d="m115.7 55.412 1.6 0.33867 0.13067-0.62-4.3627-0.924-0.13067 0.62 1.5987 0.33867-0.71733 3.3907 1.164 0.24667z" stroke-width=".37333"/>
   <path transform="matrix(1.3333 0 0 -1.3333 124.68 60.128)" d="m0 0c0.569-0.076 0.929 0.069 1.081 0.433 0.102 0.245 0.065 0.496-0.112 0.751s-0.522 0.489-1.036 0.703l-1.846 0.769-1.182-2.838 0.767-0.32 0.486 1.167 1.079-0.45 0.175-1.441 0.811-0.338zm-1.316 1.929 1.017-0.424c0.239-0.099 0.409-0.215 0.51-0.347 0.101-0.133 0.126-0.261 0.074-0.386-0.057-0.136-0.169-0.215-0.336-0.236-0.168-0.021-0.39 0.026-0.666 0.141l-0.955 0.397z" stroke-width=".28"/>
   <g stroke-width=".37333">
    <path d="m130.45 64.576-2.4933-1.456 0.57733-0.99067 1.9773 1.1533 0.29867-0.51333-1.976-1.1533 0.56-0.96 2.4587 1.436 0.308-0.52667-3.416-1.9947-2.0667 3.5413 3.4507 2.0133z"/>
    <path d="m137.38 65.39-0.736-0.55733-3.0467 1.6333 0.77334-3.356-0.93334-0.70667-0.964 4.412 0.89734 0.68z"/>
    <path d="m139.4 67.263-0.816-0.75067-2.7747 3.0173 0.81467 0.75067z"/>
    <path d="m141.14 74.051-1.9547-2.1253 0.844-0.776 1.5493 1.684 0.43733-0.40267-1.5493-1.684 0.81733-0.752 1.928 2.0947 0.44933-0.41333-2.6787-2.9107-3.016 2.776 2.7053 2.94z"/>
    <path d="m148.83 78.966-3.1333 0.688 1.8053-2.6773-0.62267-0.93333-3.1 0.73733 1.8253-2.648-0.65334-0.97733-2.4773 3.6733 0.63333 0.94667 3.1253-0.748-1.828 2.6933 0.64533 0.96667 4.3227-0.908z"/>
   </g>
   <path transform="matrix(1.3333 0 0 -1.3333 148.45 87.964)" d="m0 0c0.175-0.451 0.38-0.757 0.615-0.916s0.463-0.195 0.684-0.109c0.176 0.068 0.299 0.205 0.367 0.41 0.069 0.206 0.062 0.466-0.02 0.782 0.126-0.231 0.275-0.393 0.446-0.486 0.17-0.093 0.335-0.109 0.493-0.048 0.168 0.065 0.288 0.19 0.359 0.375 0.072 0.185 0.091 0.378 0.058 0.58-0.034 0.202-0.105 0.445-0.215 0.729l-0.65 1.675-2.867-1.112zm2.012 2.1 0.361-0.929c0.066-0.173 0.093-0.335 0.081-0.487-0.013-0.152-0.085-0.254-0.217-0.305-0.118-0.046-0.238-0.028-0.359 0.054-0.12 0.083-0.218 0.221-0.293 0.414l-0.367 0.945zm-1.203-0.467 0.39-1.005c0.079-0.206 0.105-0.386 0.077-0.541-0.029-0.155-0.103-0.255-0.224-0.302-0.126-0.049-0.25-0.026-0.372 0.068-0.121 0.094-0.223 0.247-0.306 0.459l-0.388 1.002z" stroke-width=".28"/>
   <path transform="matrix(1.3333 0 0 -1.3333 151.13 95.42)" d="m0 0c0.368-0.284 0.782-0.371 1.244-0.261 0.44 0.104 0.766 0.361 0.978 0.769s0.249 0.904 0.111 1.487c-0.138 0.578-0.395 1.009-0.772 1.292s-0.783 0.373-1.219 0.269c-0.438-0.104-0.766-0.358-0.985-0.761-0.219-0.402-0.258-0.902-0.116-1.498 0.138-0.581 0.391-1.013 0.759-1.297zm-0.225 2.218c0.145 0.22 0.397 0.374 0.758 0.46 0.743 0.177 1.198-0.081 1.363-0.773 0.083-0.351 0.047-0.633-0.108-0.846-0.156-0.213-0.405-0.36-0.748-0.442-0.423-0.1-0.738-0.069-0.947 0.095-0.208 0.163-0.347 0.39-0.417 0.682-0.078 0.328-0.045 0.603 0.099 0.824z" stroke-width=".28"/>
   <path d="m155.35 100.24-0.12933-1.3587-4.2747-1.6413 0.0893 0.94133 1.0173 0.38667 0.22533 2.3547-0.92533 0.58133 0.11333 1.18zm-2.6813-1.4547 1.9053 0.71867-1.736 1.0667z" stroke-width=".37333"/>
   <path transform="matrix(1.3333 0 0 -1.3333 153.11 108.03)" d="m0 0c0.124-0.56 0.383-0.849 0.778-0.867 0.265-0.011 0.487 0.109 0.666 0.363s0.281 0.658 0.306 1.214l0.089 1.998-3.072 0.137-0.037-0.83 1.262-0.057-0.052-1.167-1.294-0.66-0.039-0.877zm1.36 1.898-0.048-1.101c-0.012-0.258-0.062-0.458-0.152-0.598-0.09-0.141-0.202-0.208-0.337-0.202-0.147 7e-3 -0.26 0.085-0.337 0.235s-0.11 0.375-0.096 0.674l0.046 1.033z" stroke-width=".28"/>
   <path transform="matrix(1.3333 0 0 -1.3333 150.63 112.98)" d="m0 0c-0.142-0.716-0.108-1.294 0.103-1.736 0.211-0.441 0.53-0.704 0.957-0.789s0.823 0.03 1.188 0.346c0.365 0.315 0.609 0.781 0.731 1.398l0.331 1.667-3.015 0.599zm2.715 0.132-0.154-0.775c-0.072-0.365-0.232-0.638-0.48-0.819-0.249-0.182-0.52-0.243-0.814-0.185-0.361 0.072-0.608 0.253-0.74 0.543-0.132 0.291-0.162 0.618-0.09 0.983l0.135 0.679z" stroke-width=".28"/>
  </g>
  <g fill="#fff">
   <path d="m57.215 112.35-0.125-1.0312c0.40625-8e-3 0.78125 0.16406 1.125 0.51562 0.33594 0.34375 0.57031 0.83985 0.70312 1.4844 0.10547 0.55469 0.10547 1.0234 0 1.4062-0.11328 0.375-0.3125 0.6875-0.59375 0.9375s-0.60938 0.41797-0.98438 0.5c-0.61328 0.11328-1.1602-8e-3 -1.6406-0.35938-0.47656-0.36328-0.78906-0.92578-0.9375-1.6875-0.125-0.59374-0.10156-1.1133 0.0625-1.5625 0.16797-0.44531 0.46875-0.76953 0.90625-0.96875l0.28125 1c-0.58203 0.3125-0.8125 0.78907-0.6875 1.4219 0.08594 0.40625 0.27734 0.69922 0.57812 0.875 0.30469 0.16797 0.69922 0.20312 1.1875 0.10937 0.49219-0.10155 0.83594-0.29687 1.0312-0.57812 0.19922-0.28906 0.25781-0.63281 0.17188-1.0312-0.0625-0.32031-0.19531-0.57813-0.40625-0.76563-0.21875-0.19531-0.44141-0.28515-0.67188-0.26562z"/>
   <path d="m58.156 108.32 0.10938 1.0938-4.0938 0.39062-0.10938-1.0938z"/>
   <path d="m57.996 103.83v1.125l-4.125 1.8594 5e-6 -1.1719 3.1719-1.375-3.1406-1.4688v-0.92188z"/>
   <path d="m58.262 99.41-0.10938 1.0938-4.0938-0.39063 0.10938-1.0937z"/>
   <path d="m59.23 93.574-0.75 3.7188-4.0312-0.79688 0.23438-1.1562 3.375 0.67187 0.51562-2.5625z"/>
   <path d="m59.977 90.887-0.3125 1.0625-3.9375-1.1563 0.3125-1.0625z"/>
   <path d="m62.516 84.156-0.45312 1.0938-1.0938 0.07812-0.90625 2.1875 0.71875 0.8125-0.35938 0.875-3.0156-3.4688 0.53125-1.25zm-2.1875 1.2188-2.0469 0.125 1.3594 1.5469z"/>
   <path d="m65.797 78.426-0.5625 0.9375-3.4375 0.64062c-0.05078 0.01172-0.13281 0.02734-0.25 0.04687-0.0625 0.01172-0.14844 0.02734-0.26562 0.04687l2.5781 1.5469-0.45312 0.76562-3.5312-2.1094 0.64062-1.0625 3.1719-0.59375c0.03125-0.0078 0.22266-0.04687 0.57812-0.10938l-2.4531-1.4687 0.45313-0.75z"/>
   <path d="m70.098 70.898 0.76562-0.6875c0.23828 0.32422 0.31641 0.72656 0.23438 1.2031-0.07422 0.48047-0.33594 0.96875-0.78125 1.4688-0.38672 0.40625-0.76562 0.67969-1.1406 0.8125-0.375 0.125-0.74609 0.15234-1.1094 0.07813-0.36328-0.08203-0.6875-0.25391-0.96875-0.51562-0.46875-0.41406-0.69141-0.92188-0.67188-1.5156 0.01172-0.60156 0.27734-1.1914 0.79688-1.7656 0.41797-0.44531 0.85547-0.73438 1.3125-0.85938 0.45703-0.13281 0.89453-0.08203 1.3125 0.15625l-0.64062 0.8125c-0.59375-0.28125-1.1094-0.1875-1.5469 0.28125-0.28125 0.3125-0.39844 0.64062-0.35938 0.98438 0.03125 0.34375 0.23047 0.68359 0.59375 1.0156 0.36719 0.33594 0.72266 0.5 1.0781 0.5 0.35156-0.0078 0.66406-0.16406 0.9375-0.46875 0.21875-0.23828 0.34375-0.5 0.375-0.78125s-0.03125-0.51953-0.1875-0.71875z"/>
   <path d="m74.809 68.566c-0.625 0.52344-1.2461 0.77734-1.8594 0.76562-0.60156-0.01953-1.1016-0.25781-1.5-0.71875-0.375-0.45703-0.50391-1-0.39062-1.625 0.10547-0.625 0.46484-1.1875 1.0781-1.6875 0.61328-0.51953 1.2266-0.76953 1.8438-0.75 0.61328 0.01172 1.1094 0.24609 1.4844 0.70312 0.40626 0.49218 0.55078 1.043 0.4375 1.6562-0.11719 0.60547-0.48047 1.1562-1.0938 1.6562zm-0.375-0.45312c0.30078-0.25782 0.48828-0.5625 0.5625-0.90625 0.07031-0.34375-0.07813-0.73828-0.45312-1.1875-0.29297-0.36328-0.61719-0.57031-0.96875-0.625-0.35547-0.0625-0.71484 0.05859-1.0781 0.35938-0.72656 0.61719-0.76562 1.3125-0.10938 2.0938 0.32031 0.38672 0.65625 0.60156 1 0.64062 0.34375 0.04297 0.69141-0.08203 1.0469-0.375z"/>
   <path d="m83.07 62.844-0.95312 0.59375-1.8906-3.0625 0.4375 3.9531-0.48438 0.29688-3.3594-2.1562 1.8906 3.0625-0.76562 0.46875-2.1562-3.5 1.4688-0.90625 2.5 1.5938-0.32812-2.9219 1.4844-0.92187z"/>
   <path d="m85.703 61.703-1.0312 0.4375-1.625-3.7812 2.3125-1c0.66406-0.28125 1.207-0.375 1.625-0.28125 0.41406 0.08594 0.6875 0.27344 0.8125 0.5625 0.14453 0.34375 0.09375 0.69922-0.15625 1.0625-0.25 0.36719-0.64062 0.66406-1.1719 0.89062l-1.4062 0.60937zm-0.89063-2.0781 1.2031-0.51563c0.3125-0.13282 0.52344-0.28516 0.64062-0.45312 0.11328-0.17578 0.13281-0.35156 0.0625-0.53125-0.0625-0.15625-0.19531-0.25391-0.39062-0.29688-0.19921-0.03906-0.49609 0.02344-0.89062 0.1875l-1.1094 0.48437z"/>
   <path d="m93.937 58.891-3.6562 1-1.0938-3.9531 1.1406-0.3125 0.90625 3.3125 2.5156-0.6875z"/>
   <path d="m101.07 57.734-1.1719 0.15625-0.60938-0.90625-2.3594 0.32812-0.34375 1.0312-0.9375 0.125 1.4844-4.3594 1.3437-0.17188zm-2.1563-1.2812-1.1406-1.7031-0.64062 1.9375z"/>
   <path d="m104.06 57.68-1.1094 0.01563-0.0781-4.1094 1.1094-0.01562z"/>
   <path d="m110.72 58.008-1.0781-0.09375-2.0938-2.7969c-0.0312-0.03906-0.0859-0.10938-0.15625-0.20312-0.043-0.03906-0.0937-0.10938-0.15625-0.20312l-0.25 2.9844-0.89063-0.0625 0.34375-4.0938 1.2344 0.09375 1.9219 2.5781c0.0195 0.03125 0.14063 0.1875 0.35938 0.46875l0.23437-2.8438 0.875 0.07813z"/>
   <path d="m114.98 58.797-1.1562-0.23438 0.71875-3.3906-1.6094-0.34375 0.125-0.625 4.3594 0.92187-0.125 0.625-1.5938-0.34375z"/>
   <path d="m124.98 62.219-1.0781-0.45312-0.21875-1.9375-1.4531-0.59375-0.65625 1.5625-1.0156-0.42188 1.5781-3.7969 2.4688 1.0156c0.67578 0.29297 1.1328 0.60938 1.375 0.95312 0.23828 0.33594 0.28906 0.66406 0.15625 0.98438-0.21094 0.49219-0.69531 0.6875-1.4531 0.59375zm-2.5312-3.5312 1.2656 0.53125c0.375 0.15625 0.67187 0.22656 0.89062 0.20312 0.22657-0.03125 0.38282-0.14063 0.46875-0.32813 0.0625-0.16406 0.0234-0.33594-0.10937-0.51562-0.13672-0.17578-0.35938-0.33203-0.67188-0.46875l-1.3594-0.5625z"/>
   <path d="m130.12 65.129-3.4531-2.0156 2.0781-3.5469 3.4219 1.9844-0.3125 0.53125-2.4688-1.4375-0.5625 0.96875 1.9844 1.1563-0.3125 0.51562-1.9844-1.1563-0.5625 0.98438 2.5 1.4688z"/>
   <path d="m133.37 67.488-0.90625-0.67188 0.98437-4.4219 0.9375 0.70312-0.79687 3.3594 3.0625-1.6406 0.73437 0.54688z"/>
   <path d="m136.63 70.273-0.8125-0.75 2.7812-3.0312 0.81251 0.75z"/>
   <path d="m140.66 74.48-2.7031-2.9375 3.0312-2.7812 2.6719 2.9063-0.45313 0.40625-1.9219-2.0937-0.82813 0.76562 1.5469 1.6719-0.4375 0.40624-1.5469-1.6719-0.84375 0.76563 1.9531 2.125z"/>
   <path d="m149.38 79.758-4.3281 0.92188-0.64062-0.96875 1.8281-2.6719-3.1406 0.73438-0.625-0.9375 2.4844-3.6875 0.65625 0.96875-1.8438 2.6719 3.125-0.75 0.625 0.9375-1.8281 2.6719 3.1406-0.6875z"/>
   <path d="m147.48 85.453 3.8281-1.4844 0.85938 2.2344c0.14453 0.375 0.23828 0.69531 0.28125 0.96875 0.0508 0.28125 0.0234 0.53906-0.0781 0.78125-0.0937 0.23828-0.25781 0.40625-0.48437 0.5-0.21094 0.07031-0.42969 0.04687-0.65625-0.07813-0.23047-0.11719-0.42188-0.32422-0.57813-0.625 0.0937 0.41406 0.0977 0.75781 0.0156 1.0312-0.0859 0.26953-0.2461 0.45312-0.48438 0.54688-0.30468 0.11328-0.60937 0.0625-0.92187-0.15625-0.3125-0.21094-0.58594-0.61719-0.8125-1.2188zm2.5938 0.125 0.48437 1.2656c0.10157 0.25 0.23438 0.42578 0.39063 0.53125 0.16406 0.11328 0.32812 0.14062 0.48437 0.07813 0.17578-0.0625 0.26953-0.19922 0.28125-0.40625 0.0195-0.19922-0.0117-0.41406-0.0937-0.64062l-0.48437-1.2344zm-1.6562 0.64062 0.51562 1.3281c0.11328 0.28126 0.25391 0.48438 0.42188 0.60938 0.16406 0.125 0.33203 0.15625 0.5 0.09375 0.16406-0.0625 0.26562-0.20312 0.29687-0.42188 0.0312-0.21094-8e-3 -0.44922-0.10937-0.71875l-0.51563-1.3281z"/>
   <path d="m150.12 93.688c-0.19922-0.79297-0.15234-1.4609 0.14063-2 0.28906-0.54297 0.72656-0.88281 1.3125-1.0312 0.58203-0.13281 1.1289-0.01563 1.6406 0.35938 0.50782 0.38281 0.85157 0.96094 1.0312 1.7344 0.1875 0.78125 0.13282 1.4414-0.15625 1.9844-0.28125 0.53906-0.71484 0.87891-1.2969 1.0156-0.61719 0.15625-1.1719 0.03906-1.6719-0.34375-0.49218-0.375-0.82422-0.94922-1-1.7188zm0.57813-0.12499c0.0937 0.38281 0.27344 0.67969 0.54687 0.89062 0.28125 0.21875 0.70313 0.25781 1.2656 0.125 0.45703-0.10546 0.78906-0.29688 1-0.57812 0.21875-0.28125 0.26953-0.65625 0.15625-1.125-0.21875-0.92969-0.82813-1.2734-1.8281-1.0312-0.48046 0.11328-0.82031 0.31641-1.0156 0.60938-0.1875 0.28906-0.23047 0.66016-0.125 1.1094z"/>
   <path d="m151.46 102.68-0.10937-1.1719 0.9375-0.57813-0.21875-2.3594-1.0312-0.375-0.0937-0.95312 4.2969 1.6406 0.125 1.3594zm1.375-2.1094 1.75-1.0781-1.9062-0.71875z"/>
   <path d="m151.25 109.03 0.0625-1.1719 1.7188-0.875 0.0781-1.5625-1.6875-0.0781 0.0469-1.1094 4.1094 0.1875-0.125 2.6719c-0.0312 0.73829-0.16797 1.2734-0.40625 1.6094-0.24219 0.34375-0.53906 0.50391-0.89062 0.48437-0.53125-0.0234-0.875-0.40625-1.0312-1.1562zm2.4531-3.5938-0.0625 1.375c-0.0234 0.40625 0.0195 0.70703 0.125 0.90625 0.10156 0.19532 0.25391 0.30078 0.45313 0.3125 0.1875 8e-3 0.33593-0.0781 0.45312-0.26562 0.11328-0.1875 0.17969-0.45313 0.20313-0.79688l0.0625-1.4688z"/>
   <path d="m151.02 111 4.0312 0.79687-0.4375 2.2188c-0.16796 0.82032-0.49609 1.4414-0.98437 1.8594-0.49219 0.42578-1.0234 0.58593-1.5938 0.48437-0.56251-0.11718-0.98438-0.46875-1.2656-1.0625-0.28125-0.58594-0.32812-1.3555-0.14062-2.3125zm0.375 1.25-0.1875 0.90625c-0.0937 0.48828-0.0586 0.92187 0.10938 1.2969 0.17578 0.38281 0.50781 0.625 1 0.71875 0.39453 0.082 0.7539 4e-3 1.0781-0.23437 0.33203-0.24219 0.55078-0.60547 0.65625-1.0938l0.20312-1.0312z"/>
  </g>
  <g>
   <g fill="#fff">
    <path transform="matrix(1.3333 0 0 -1.3333 112.09 140.82)" d="m0 0 0.101 1e-3c-0.025 0.038-0.035 0.19-0.032 0.331 3e-3 0.131 0.097 0.24 0.218 0.25 0.223 0.02 0.576 0.124 1.038 0.536 0.137 0.123 0.513 0.395 0.756 1.003 0.3 0.748 0.105 1.189 0.33 2.843 0.031 0.229 0.061 0.415 0.08 0.529-0.693-0.559-1.387-1.118-2.08-1.678-0.214-0.172-0.392-0.388-0.516-0.636-0.102-0.205-0.161-0.38-0.193-0.495-0.309-1.075 0.136-1.91 0.158-1.943 3e-3 -3e-3 0.025-0.034 0.047-0.083 8e-3 -0.018 0.013-0.034 0.017-0.043-0.049-0.099 0.047-0.537 0.076-0.615"/>
    <path transform="matrix(1.3333 0 0 -1.3333 100.58 141.07)" d="m0 0-0.158-0.024c0.042 0.068 0.082 0.53 0.04 0.602-0.168-0.018-0.56-0.107-1.177 0.441-0.136 0.121-0.519 0.469-0.775 1.071-0.315 0.74-0.145 1.179-0.422 2.817-0.038 0.227-0.074 0.411-0.096 0.525l2.053-1.651c0.21-0.169 0.389-0.382 0.517-0.627 0.105-0.203 0.168-0.377 0.203-0.49 0.335-1.064-0.059-1.896-0.079-1.928-2e-3 -4e-3 -0.022-0.034-0.041-0.083-7e-3 -0.018-0.012-0.033-0.015-0.043 0.05-0.098-0.026-0.533-0.05-0.61"/>
    <path transform="matrix(1.3333 0 0 -1.3333 114.29 140.32)" d="m0 0 0.292 0.031c0.032-0.077 0.595-0.587 0.687-0.603 0.099 0.14 0.25 0.441 1.159 0.546 0.2 0.023 0.772 0.083 1.481-0.123 0.873-0.253 1.148-0.674 2.794-1.553 0.227-0.122 0.416-0.217 0.532-0.276-0.957-0.154-1.914-0.309-2.871-0.463-0.295-0.048-0.606-0.042-0.912 0.024-0.252 0.054-0.449 0.123-0.575 0.171-1.174 0.453-1.644 1.306-1.659 1.343-2e-3 4e-3 -0.015 0.039-0.045 0.086-0.012 0.018-0.022 0.031-0.029 0.04-0.121 0.027-0.802 0.707-0.854 0.777"/>
    <path transform="matrix(1.3333 0 0 -1.3333 120.19 138.49)" d="m0 0 0.242 0.052c0.029-0.066 0.516-0.483 0.594-0.49 0.077 0.135 0.192 0.421 0.946 0.592 0.166 0.037 0.64 0.139 1.238 0.011 0.736-0.157 0.98-0.516 2.381-1.177 0.194-0.092 0.355-0.163 0.453-0.206l-2.375-0.658c-0.244-0.068-0.503-0.089-0.76-0.054-0.212 0.028-0.379 0.074-0.485 0.107-0.995 0.313-1.416 1.048-1.43 1.081-1e-3 3e-3 -0.013 0.034-0.04 0.074-0.01 0.015-0.02 0.027-0.025 0.034-0.103 0.014-0.693 0.575-0.739 0.634"/>
    <path transform="matrix(1.3333 0 0 -1.3333 126.61 134.08)" d="m0 0c-7e-3 -0.086 0.228-0.519 0.272-0.565l0.115 0.028s-0.232 0.513-0.224 0.578c0.138 0.043 0.419 0.044 0.722 0.637 0.066 0.132 0.252 0.506 0.253 1.017 2e-3 0.629-0.276 0.885-0.601 2.139-0.045 0.173-0.078 0.316-0.098 0.404-0.354-0.618-0.709-1.235-1.064-1.853-0.109-0.19-0.178-0.4-0.197-0.617-0.016-0.178-8e-3 -0.322 2e-3 -0.415 0.089-0.866 0.661-1.278 0.691-1.288"/>
    <path transform="matrix(1.3333 0 0 -1.3333 129.82 131.27)" d="m0 0c2e-3 -0.076 0.267-0.422 0.314-0.457l0.104 0.039s-0.271 0.417-0.27 0.474c0.124 0.055 0.386 0.092 0.606 0.647 0.048 0.122 0.182 0.471 0.13 0.915-0.065 0.547-0.351 0.734-0.786 1.782-0.06 0.145-0.106 0.265-0.134 0.339-0.265-0.582-0.531-1.164-0.797-1.746-0.082-0.179-0.125-0.37-0.12-0.561 4e-3 -0.158 0.028-0.281 0.046-0.361 0.174-0.741 0.751-1.026 0.779-1.031"/>
    <path transform="matrix(1.3333 0 0 -1.3333 117.24 139.64)" d="m0 0 0.097 8e-3c-0.026 0.034-0.045 0.181-0.051 0.317-5e-3 0.127 0.08 0.238 0.196 0.256 0.214 0.033 0.548 0.157 0.968 0.585 0.125 0.128 0.471 0.415 0.669 1.017 0.244 0.741 0.03 1.155 0.147 2.764 0.016 0.223 0.034 0.404 0.046 0.516-0.635-0.585-1.27-1.17-1.905-1.756-0.195-0.18-0.354-0.4-0.459-0.647-0.086-0.205-0.132-0.378-0.157-0.491-0.232-1.057 0.246-1.833 0.27-1.864 2e-3 -2e-3 0.026-0.03 0.05-0.076 8e-3 -0.017 0.015-0.032 0.019-0.041-0.042-0.099 0.078-0.515 0.11-0.588"/>
    <path transform="matrix(1.3333 0 0 -1.3333 123.13 137.32)" d="m0 0 0.131 0.014c-0.031 0.025-0.153 0.225-0.185 0.343-0.03 0.109 0.026 0.222 0.128 0.261 0.19 0.071 0.472 0.244 0.773 0.7 0.09 0.136 0.35 0.454 0.414 1.018 0.078 0.695-0.199 1.013-0.407 2.44-0.029 0.198-0.049 0.36-0.06 0.459l-1.401-1.904c-0.144-0.196-0.246-0.418-0.294-0.655-0.039-0.195-0.047-0.355-0.047-0.459-6e-3 -0.967 0.585-1.551 0.613-1.573 2e-3 -2e-3 0.029-0.022 0.06-0.057 0.011-0.013 0.02-0.025 0.026-0.032-0.019-0.094 0.205-0.498 0.249-0.555"/>
    <path transform="matrix(1.3333 0 0 -1.3333 125.28 135.82)" d="m0 0 0.214 0.051c0.018-0.069 0.39-0.507 0.456-0.515 0.081 0.139 0.212 0.434 0.878 0.602 0.147 0.037 0.566 0.137 1.066-2e-3 0.615-0.172 0.785-0.548 1.917-1.251 0.156-0.098 0.286-0.173 0.366-0.219-0.704-0.219-1.409-0.437-2.114-0.656-0.216-0.067-0.442-0.085-0.659-0.046-0.179 0.032-0.317 0.081-0.405 0.117-0.82 0.337-1.101 1.105-1.11 1.139 0 3e-3 -7e-3 0.036-0.026 0.077-7e-3 0.016-0.014 0.029-0.018 0.036-0.086 0.016-0.532 0.605-0.565 0.667"/>
    <path transform="matrix(1.3333 0 0 -1.3333 128.53 133.71)" d="m0 0 0.198 0.071c0.028-0.057 0.459-0.386 0.524-0.385 0.056 0.131 0.134 0.401 0.749 0.63 0.136 0.05 0.524 0.19 1.029 0.133 0.622-0.069 0.847-0.37 2.054-0.83 0.167-0.064 0.304-0.112 0.389-0.141-0.644-0.277-1.288-0.555-1.932-0.832-0.199-0.085-0.413-0.13-0.629-0.124-0.178 5e-3 -0.319 0.029-0.41 0.049-0.846 0.185-1.243 0.809-1.256 0.837-2e-3 3e-3 -0.014 0.029-0.039 0.063-9e-3 0.012-0.018 0.022-0.023 0.028-0.086 3e-3 -0.612 0.452-0.654 0.501"/>
    <path transform="matrix(1.3333 0 0 -1.3333 131.29 130.9)" d="m0 0 0.151 0.058c0.036-0.053 0.541-0.275 0.606-0.265 0.038 0.137 0.079 0.416 0.659 0.731 0.127 0.07 0.493 0.263 1.001 0.28 0.625 0.021 0.888-0.245 2.144-0.527 0.173-0.039 0.316-0.067 0.404-0.084-0.602-0.367-1.203-0.735-1.805-1.102-0.185-0.113-0.391-0.188-0.606-0.213-0.177-0.021-0.32-0.017-0.412-0.01-0.863 0.062-1.338 0.622-1.355 0.648-2e-3 3e-3 -0.018 0.028-0.047 0.057-0.011 0.011-0.02 0.02-0.026 0.025-0.086-0.01-0.666 0.359-0.714 0.402"/>
    <path transform="matrix(1.3333 0 0 -1.3333 133.7 127.73)" d="m0 0 0.122 0.044c0.029-0.037 0.395-0.175 0.524-0.203 0.021-4e-3 0.043 8e-3 0.049 0.027 0.035 0.117 0.109 0.32 0.587 0.547 0.116 0.055 0.447 0.208 0.907 0.222 0.565 0.016 0.803-0.194 1.94-0.417 0.157-0.031 0.287-0.053 0.366-0.067-0.544-0.29-1.089-0.581-1.634-0.871-0.164-0.088-0.345-0.147-0.534-0.168-0.167-0.018-0.302-0.014-0.388-9e-3 -0.781 0.048-1.202 0.495-1.22 0.514-2e-3 2e-3 -0.022 0.02-0.049 0.043-0.01 9e-3 -0.018 0.016-0.024 0.02-0.074 0.02-0.603 0.284-0.646 0.318"/>
    <path transform="matrix(1.3333 0 0 -1.3333 132.61 128.05)" d="m0 0c0.01-0.07 0.265-0.376 0.307-0.405l0.082 0.043s-0.268 0.371-0.272 0.424c0.096 0.06 0.308 0.111 0.431 0.643 0.028 0.117 0.101 0.451 0.011 0.862-0.11 0.506-0.366 0.661-0.836 1.61-0.065 0.131-0.115 0.24-0.145 0.307-0.159-0.56-0.317-1.12-0.475-1.68-0.049-0.173-0.064-0.354-0.04-0.531 0.02-0.147 0.052-0.261 0.076-0.334 0.221-0.679 0.727-0.907 0.751-0.91"/>
    <path transform="matrix(1.3333 0 0 -1.3333 134.77 125.39)" d="m0 0c0.011-0.071 0.278-0.374 0.322-0.402l0.085 0.045s-0.281 0.369-0.287 0.423c0.099 0.063 0.318 0.121 0.44 0.662 0.027 0.12 0.099 0.46 1e-3 0.874-0.12 0.509-0.386 0.66-0.883 1.608-0.069 0.132-0.122 0.24-0.155 0.308-0.157-0.572-0.315-1.143-0.472-1.714-0.049-0.176-0.063-0.36-0.036-0.54 0.023-0.147 0.057-0.262 0.083-0.335 0.237-0.682 0.763-0.901 0.788-0.902"/>
    <path transform="matrix(1.3333 0 0 -1.3333 139.9 118.82)" d="m0 0-0.028 0.099c0.051 0.019 0.338 0.429 0.341 0.485-0.109 0.059-0.336 0.15-0.496 0.693-0.035 0.12-0.132 0.462-0.053 0.885 0.097 0.521 0.369 0.684 0.837 1.665 0.065 0.136 0.114 0.248 0.145 0.318 0.199-0.573 0.399-1.145 0.599-1.717 0.061-0.176 0.086-0.362 0.068-0.545-0.014-0.15-0.044-0.268-0.067-0.343-0.209-0.701-0.769-0.979-0.794-0.988-3e-3 -1e-3 -0.026-9e-3 -0.057-0.027-0.011-7e-3 -0.02-0.013-0.025-0.017-8e-3 -0.072-0.425-0.477-0.47-0.508"/>
    <path transform="matrix(1.3333 0 0 -1.3333 135.6 125.03)" d="m0 0 0.116 0.046c0.026-0.039 0.372-0.183 0.495-0.212 0.02-5e-3 0.04 8e-3 0.046 0.028 0.033 0.122 0.103 0.335 0.555 0.572 0.109 0.058 0.422 0.218 0.857 0.232 0.534 0.017 0.759-0.203 1.834-0.437 0.149-0.032 0.271-0.055 0.346-0.069-0.515-0.304-1.03-0.608-1.545-0.913-0.155-0.091-0.326-0.153-0.504-0.174-0.158-0.02-0.286-0.016-0.367-0.01-0.739 0.051-1.136 0.519-1.153 0.538-2e-3 2e-3 -0.022 0.021-0.047 0.046-9e-3 9e-3 -0.017 0.016-0.022 0.02-0.071 0.021-0.57 0.298-0.611 0.333"/>
    <path transform="matrix(1.3333 0 0 -1.3333 137.73 122.22)" d="m0 0 0.11 0.04c0.026-0.034 0.354-0.16 0.471-0.185 0.019-5e-3 0.039 7e-3 0.044 0.024 0.032 0.107 0.098 0.293 0.528 0.501 0.104 0.05 0.402 0.19 0.815 0.202 0.509 0.016 0.723-0.177 1.745-0.381 0.142-0.028 0.258-0.048 0.329-0.061-0.49-0.266-0.979-0.531-1.469-0.798-0.148-0.08-0.311-0.134-0.48-0.152-0.15-0.017-0.272-0.014-0.35-9e-3 -0.702 0.044-1.081 0.453-1.096 0.47-2e-3 2e-3 -0.021 0.019-0.044 0.04-9e-3 8e-3 -0.017 0.014-0.022 0.018-0.067 0.018-0.542 0.26-0.581 0.291"/>
    <path transform="matrix(1.3333 0 0 -1.3333 136.7 122.59)" d="m0 0c0.016-0.071 0.29-0.367 0.333-0.395l0.074 0.049s-0.291 0.362-0.301 0.417c0.087 0.066 0.285 0.132 0.352 0.682 0.015 0.121 0.054 0.467-0.072 0.881-0.155 0.51-0.415 0.652-0.956 1.592-0.075 0.13-0.134 0.238-0.17 0.305-0.097-0.582-0.196-1.163-0.294-1.744-0.03-0.179-0.027-0.365 0.013-0.545 0.033-0.149 0.075-0.263 0.105-0.336 0.278-0.68 0.785-0.882 0.808-0.883"/>
    <path transform="matrix(1.3333 0 0 -1.3333 98.405 140.75)" d="m0 0-0.18 0.019c-0.032-0.076-0.707-0.575-0.799-0.591-0.099 0.14-0.25 0.441-1.159 0.546-0.2 0.023-0.772 0.083-1.481-0.123-0.873-0.253-1.148-0.674-2.794-1.553-0.227-0.122-0.416-0.217-0.532-0.276 0.957-0.154 1.914-0.309 2.871-0.463 0.295-0.048 0.606-0.042 0.912 0.024 0.252 0.054 0.449 0.123 0.575 0.171 1.174 0.453 1.644 1.306 1.66 1.343 1e-3 4e-3 0.014 0.039 0.045 0.086 0.011 0.018 0.021 0.031 0.028 0.04 0.122 0.027 0.802 0.707 0.854 0.777"/>
    <path transform="matrix(1.3333 0 0 -1.3333 94.88 139.73)" d="m0 0-0.155 2e-3c0.05 0.058 0.158 0.494 0.13 0.57-0.165 9e-3 -0.557-0.012-1.067 0.611-0.113 0.137-0.429 0.531-0.584 1.147-0.19 0.758 0.039 1.151 0.022 2.761-2e-3 0.223-9e-3 0.405-0.013 0.517 0.575-0.636 1.151-1.272 1.726-1.908 0.177-0.195 0.317-0.427 0.402-0.682 0.072-0.211 0.105-0.387 0.122-0.502 0.161-1.07-0.345-1.802-0.369-1.83-3e-3 -3e-3 -0.027-0.028-0.052-0.072-0.01-0.016-0.017-0.03-0.021-0.039 0.034-0.102-0.106-0.505-0.141-0.575"/>
    <path transform="matrix(1.3333 0 0 -1.3333 89.762 138.26)" d="m0 0-0.165 1e-3c0.054 0.06 0.173 0.509 0.143 0.586-0.175 8e-3 -0.591-0.017-1.128 0.618-0.118 0.14-0.451 0.542-0.61 1.174-0.196 0.776 0.051 1.181 0.045 2.835 0 0.229-6e-3 0.416-0.01 0.531l1.817-1.944c0.186-0.2 0.333-0.437 0.422-0.698 0.073-0.216 0.108-0.396 0.125-0.514 0.162-1.098-0.38-1.854-0.407-1.883-2e-3 -2e-3 -0.028-0.029-0.056-0.074-0.01-0.017-0.017-0.031-0.022-0.04 0.035-0.105-0.116-0.52-0.154-0.592"/>
    <path transform="matrix(1.3333 0 0 -1.3333 84.631 135.6)" d="m0 0-0.122 0.025c0.039 0.033 0.142 0.271 0.169 0.39 7e-3 0.03-9e-3 0.06-0.034 0.067-0.146 0.035-0.428 0.118-0.72 0.65-0.071 0.129-0.269 0.499-0.312 1.027-0.052 0.648 0.179 0.935 0.372 2.256 0.026 0.183 0.045 0.333 0.055 0.425 0.371-0.606 0.742-1.213 1.113-1.82 0.114-0.187 0.194-0.397 0.228-0.619 0.029-0.183 0.033-0.332 0.032-0.429-0.011-0.9-0.506-1.418-0.525-1.442-0.03-0.038-0.02-0.025-0.049-0.052-0.011-0.01-0.02-0.013-0.022-0.033-6e-3 -0.085-0.148-0.393-0.185-0.445"/>
    <path transform="matrix(1.3333 0 0 -1.3333 78.292 129.57)" d="m0 0-0.107 0.062c0.055 0.019 0.286 0.261 0.293 0.322-0.111 0.071-0.391 0.21-0.524 0.818-0.029 0.134-0.108 0.516 4e-3 0.979 0.138 0.57 0.438 0.737 1.001 1.797 0.077 0.146 0.138 0.268 0.175 0.343 0.173-0.642 0.346-1.283 0.519-1.925 0.054-0.197 0.068-0.403 0.037-0.604-0.026-0.166-0.066-0.294-0.095-0.375-0.27-0.763-0.882-1.044-0.91-1.052-2e-3 -1e-3 -0.028-8e-3 -0.061-0.027-0.013-7e-3 -0.023-0.013-0.029-0.017-0.013-0.08-0.254-0.289-0.303-0.321"/>
    <path transform="matrix(1.3333 0 0 -1.3333 75.793 126.43)" d="m 0,0 -0.089,0.062 c 0.05,0.015 0.27,0.23 0.28,0.287 C 0.1,0.419 -0.133,0.559 -0.202,1.128 -0.217,1.254 -0.257,1.611 -0.124,2.036 0.04,2.56 0.314,2.702 0.884,3.663 0.963,3.796 1.025,3.906 1.063,3.974 1.164,3.372 1.266,2.77 1.368,2.168 1.399,1.983 1.395,1.791 1.353,1.606 1.318,1.454 1.273,1.336 1.242,1.262 0.949,0.565 0.394,0.33 0.37,0.323 0.368,0.322 0.345,0.316 0.314,0.3 0.303,0.295 0.294,0.289 0.288,0.285 0.271,0.212 0.045,0.028 0,0"/>
    <path transform="matrix(1.3333 0 0 -1.3333 73.688 123.8)" d="m0 0-0.104 0.066c0.055 0.013 0.292 0.225 0.3 0.282-0.107 0.074-0.38 0.225-0.492 0.806-0.024 0.128-0.091 0.493 0.035 0.921 0.155 0.526 0.457 0.661 1.047 1.618 0.081 0.133 0.145 0.243 0.184 0.311 0.151-0.616 0.302-1.231 0.453-1.847 0.046-0.189 0.054-0.384 0.016-0.57-0.031-0.154-0.074-0.272-0.105-0.347-0.291-0.698-0.906-0.918-0.933-0.925-3e-3 0-0.029-5e-3 -0.062-0.02-0.013-6e-3 -0.023-0.011-0.029-0.015-0.015-0.074-0.26-0.254-0.31-0.28"/>
    <path transform="matrix(1.3333 0 0 -1.3333 71.704 121.23)" d="M 0,0 -0.105,0.064 C -0.05,0.078 0.182,0.295 0.189,0.352 0.08,0.424 -0.195,0.569 -0.319,1.147 -0.346,1.274 -0.42,1.638 -0.303,2.068 -0.159,2.598 0.14,2.74 0.711,3.71 0.79,3.844 0.852,3.955 0.889,4.024 1.052,3.412 1.216,2.8 1.379,2.188 1.429,2 1.441,1.805 1.407,1.618 1.379,1.463 1.339,1.344 1.309,1.269 1.032,0.564 0.421,0.331 0.394,0.324 0.392,0.323 0.366,0.318 0.333,0.302 0.32,0.296 0.31,0.29 0.304,0.287 0.291,0.212 0.049,0.027 0,0"/>
    <path transform="matrix(1.3333 0 0 -1.3333 92.196 139.1)" d="m0 0-0.147 0.025c-0.025-0.075-0.609-0.543-0.689-0.555-0.092 0.144-0.237 0.452-1.038 0.596-0.177 0.032-0.681 0.117-1.295-0.058-0.756-0.215-0.98-0.625-2.389-1.434-0.195-0.111-0.356-0.199-0.456-0.252 0.846-0.196 1.692-0.392 2.537-0.589 0.261-0.06 0.533-0.068 0.799-0.015 0.219 0.044 0.389 0.103 0.498 0.146 1.012 0.402 1.39 1.236 1.402 1.273 1e-3 3e-3 0.011 0.038 0.036 0.084 0.01 0.016 0.018 0.03 0.024 0.038 0.105 0.022 0.675 0.673 0.718 0.741"/>
    <path transform="matrix(1.3333 0 0 -1.3333 86.589 136.81)" d="m0 0-0.145 0.023c-0.023-0.068-0.552-0.495-0.626-0.506-0.084 0.13-0.215 0.406-0.951 0.532-0.162 0.027-0.625 0.101-1.19-0.061-0.696-0.199-0.904-0.569-2.203-1.307-0.18-0.102-0.329-0.182-0.42-0.231 0.776-0.171 1.552-0.343 2.328-0.515 0.238-0.053 0.489-0.058 0.733-9e-3 0.202 0.041 0.359 0.096 0.459 0.135 0.932 0.369 1.284 1.122 1.295 1.156 1e-3 3e-3 0.011 0.034 0.034 0.076 9e-3 0.015 0.017 0.027 0.022 0.035 0.097 0.02 0.624 0.611 0.664 0.672"/>
    <path transform="matrix(1.3333 0 0 -1.3333 82.859 134.22)" d="m0 0-0.136 0.034c-0.031-0.057-0.589-0.377-0.661-0.38-0.064 0.12-0.153 0.371-0.838 0.548-0.151 0.039-0.583 0.145-1.142 0.058-0.689-0.107-0.935-0.408-2.268-0.926-0.184-0.071-0.336-0.126-0.43-0.16 0.718-0.22 1.435-0.441 2.153-0.661 0.221-0.068 0.459-0.095 0.698-0.076 0.198 0.017 0.354 0.05 0.454 0.075 0.937 0.232 1.369 0.85 1.384 0.878 1e-3 2e-3 0.014 0.029 0.042 0.062 0.01 0.013 0.019 0.023 0.025 0.029 0.095 8e-3 0.673 0.47 0.719 0.519"/>
    <path transform="matrix(1.3333 0 0 -1.3333 79.743 131.05)" d="m0 0-0.136 0.032c-0.028-0.059-0.556-0.405-0.626-0.41-0.068 0.122-0.166 0.38-0.843 0.545-0.15 0.036-0.576 0.136-1.118 0.031-0.667-0.128-0.894-0.446-2.171-1.015-0.177-0.079-0.323-0.14-0.413-0.177 0.711-0.209 1.422-0.419 2.133-0.629 0.218-0.064 0.452-0.087 0.685-0.061 0.192 0.022 0.343 0.06 0.439 0.089 0.904 0.264 1.297 0.915 1.31 0.944 2e-3 2e-3 0.013 0.03 0.039 0.066 9e-3 0.012 0.017 0.023 0.023 0.03 0.092 0.01 0.636 0.503 0.678 0.555"/>
    <path transform="matrix(1.3333 0 0 -1.3333 77.146 128.12)" d="m0 0-0.14 0.025c-0.027-0.046-0.499-0.328-0.562-0.334-0.057 0.094-0.137 0.293-0.743 0.408-0.134 0.026-0.516 0.095-1.01 4e-3 -0.607-0.113-0.823-0.364-1.997-0.831-0.163-0.065-0.297-0.115-0.38-0.145 0.635-0.15 1.271-0.3 1.906-0.449 0.195-0.046 0.406-0.06 0.617-0.035 0.174 0.021 0.312 0.053 0.401 0.077 0.825 0.223 1.204 0.737 1.217 0.759 1e-3 3e-3 0.013 0.024 0.036 0.052 9e-3 0.011 0.017 0.019 0.023 0.024 0.084 0.01 0.592 0.404 0.632 0.445"/>
    <path transform="matrix(1.3333 0 0 -1.3333 75.006 125.62)" d="m0 0-0.115 0.032c-0.023-0.053-0.471-0.351-0.53-0.354-0.057 0.113-0.141 0.349-0.713 0.517-0.127 0.037-0.487 0.139-0.946 0.059-0.565-0.098-0.757-0.38-1.837-0.861-0.15-0.067-0.273-0.118-0.35-0.149 0.602-0.21 1.203-0.419 1.804-0.629 0.186-0.064 0.383-0.091 0.58-0.073 0.163 0.014 0.291 0.045 0.372 0.067 0.765 0.215 1.098 0.795 1.109 0.821 1e-3 2e-3 0.011 0.027 0.032 0.058 8e-3 0.012 0.015 0.021 0.02 0.027 0.078 7e-3 0.538 0.439 0.574 0.485"/>
    <path transform="matrix(1.3333 0 0 -1.3333 72.959 123.16)" d="m0 0-0.109 0.042c-0.024-0.05-0.455-0.307-0.51-0.305-0.047 0.115-0.111 0.352-0.634 0.561-0.115 0.046-0.445 0.173-0.877 0.132-0.531-0.051-0.726-0.311-1.76-0.693-0.143-0.053-0.261-0.094-0.334-0.118 0.547-0.252 1.095-0.503 1.642-0.755 0.169-0.078 0.351-0.119 0.535-0.118 0.152 2e-3 0.273 0.021 0.351 0.037 0.724 0.149 1.068 0.687 1.08 0.711 1e-3 2e-3 0.012 0.026 0.033 0.055 8e-3 0.01 0.016 0.019 0.02 0.024 0.073 1e-3 0.527 0.385 0.563 0.427"/>
    <path transform="matrix(1.3333 0 0 -1.3333 70.957 120.23)" d="m0 0-0.103 0.053c-0.027-0.053-0.466-0.302-0.521-0.296-0.04 0.128-0.093 0.391-0.6 0.655-0.112 0.059-0.432 0.221-0.86 0.205-0.527-0.018-0.732-0.288-1.77-0.633-0.144-0.048-0.262-0.083-0.335-0.105 0.529-0.313 1.058-0.625 1.588-0.938 0.163-0.096 0.341-0.155 0.523-0.166 0.151-9e-3 0.271 4e-3 0.348 0.016 0.722 0.111 1.086 0.674 1.099 0.7 1e-3 3e-3 0.013 0.027 0.035 0.057 9e-3 0.011 0.016 0.02 0.021 0.025 0.072-4e-3 0.537 0.384 0.575 0.427"/>
    <path transform="matrix(1.3333 0 0 -1.3333 81.136 132.8)" d="m0 0-0.104 0.044c0.04 0.024 0.168 0.228 0.21 0.335 0.011 0.027 2e-3 0.058-0.02 0.068-0.123 0.057-0.359 0.182-0.533 0.726-0.042 0.132-0.159 0.511-0.114 1.009 0.054 0.614 0.303 0.843 0.679 2.042 0.052 0.166 0.091 0.303 0.115 0.387 0.232-0.627 0.465-1.255 0.697-1.882 0.071-0.193 0.109-0.403 0.105-0.616-3e-3 -0.175-0.023-0.315-0.039-0.405-0.15-0.837-0.667-1.238-0.688-1.257-0.032-0.03-0.021-0.02-0.051-0.04-0.011-8e-3 -0.019-9e-3 -0.025-0.027-0.018-0.078-0.191-0.342-0.232-0.384"/>
    <path transform="matrix(1.3333 0 0 -1.3333 70.311 119.25)" d="m0 0-0.016 0.146c-0.055 0.02-0.324 0.427-0.329 0.487 0.114 0.066 0.352 0.167 0.508 0.76 0.034 0.131 0.128 0.505 0.034 0.965-0.114 0.567-0.406 0.742-0.924 1.807-0.071 0.147-0.127 0.269-0.16 0.345l-0.592-1.876c-0.061-0.193-0.083-0.396-0.06-0.594 0.019-0.164 0.053-0.292 0.079-0.374 0.239-0.761 0.837-1.06 0.863-1.069 3e-3 -1e-3 0.028-0.01 0.061-0.029 0.012-8e-3 0.022-0.014 0.028-0.018 9e-3 -0.079 0.46-0.517 0.508-0.55"/>
    <path transform="matrix(1.3333 0 0 -1.3333 139.55 119.47)" d="m0 0 0.151 0.108c0.036-0.044 0.465-0.236 0.519-0.22 0.02 0.128 0.029 0.384 0.496 0.727 0.104 0.076 0.399 0.287 0.834 0.353 0.536 0.081 0.787-0.133 1.894-0.263 0.153-0.018 0.278-0.029 0.355-0.036-0.481-0.392-0.963-0.784-1.445-1.176-0.148-0.121-0.319-0.209-0.501-0.253-0.15-0.037-0.273-0.047-0.353-0.05-0.748-0.031-1.21 0.429-1.227 0.451-2e-3 2e-3 -0.018 0.023-0.046 0.047-0.01 9e-3 -0.019 0.015-0.025 0.02-0.072-0.018-0.607 0.258-0.652 0.292"/>
    <path transform="matrix(1.3333 0 0 -1.3333 138.74 120.62)" d="m0 0 0.092 0.059c-0.05 0.015-0.261 0.231-0.269 0.286 0.095 0.066 0.334 0.197 0.428 0.75 0.021 0.122 0.076 0.47-0.039 0.888-0.141 0.514-0.41 0.66-0.941 1.61-0.073 0.132-0.131 0.241-0.166 0.308-0.127-0.584-0.256-1.169-0.384-1.753-0.039-0.18-0.044-0.367-9e-3 -0.548 0.028-0.15 0.068-0.266 0.096-0.339 0.264-0.687 0.81-0.93 0.835-0.937 2e-3 -1e-3 0.025-7e-3 0.055-0.023 0.011-6e-3 0.02-0.012 0.025-0.016 0.014-0.072 0.233-0.257 0.277-0.285"/>
   </g>
   <path transform="matrix(.19169 0 0 .20037 140.43 117.89)" d="m0 0c-1.798 8.628-46.228 63.779-55.251 72.907-9.022 9.129-27.453 22.092-52.609 31.27-25.157 9.176-75.271 15.478-87.773 28.808" fill="none" stroke="#fff" stroke-width="2"/>
   <path transform="matrix(.19169 0 0 .20037 69.794 118.36)" d="m0 0c2.307 8.979 51.086 64.717 60.886 73.857 9.798 9.142 29.517 21.837 55.99 30.212 26.473 8.373 78.587 12.462 92.199 25.844" fill="none" stroke="#fff" stroke-width="2"/>
  </g>
 </g>
</svg>
