<svg width="117" height="56" viewBox="0 0 117 56" fill="none"
   xmlns="http://www.w3.org/2000/svg">
   <g id="DCP Logo" clip-path="url(#clip0_929_28751)">
      <path id="Vector" d="M0.454102 39.4236H7.79422C11.8549 39.4236 13.428 41.9824 13.428 44.6164C13.428 47.2505 11.8549 49.8093 7.79422 49.8093H4.03029V55.6147H0.454102V39.4236ZM4.03483 47.0428H6.81311C8.47857 47.0428 9.96082 46.68 9.96082 44.6164C9.96082 42.5528 8.47857 42.1901 6.81311 42.1901H4.03029V47.0428H4.03483Z" fill="#1A202C"/>
      <path id="Vector_2" d="M15.6631 39.4236H19.2438V52.6209H27.182V55.6147H15.6631V39.4236Z" fill="#1A202C"/>
      <path id="Vector_3" d="M33.6377 39.4236H37.3093L43.3988 55.6132H39.6818L38.4493 52.0008H32.3598L31.082 55.6132H27.4482L33.6377 39.4236ZM33.2955 49.3577H37.5152L35.4621 43.4168H35.4167L33.2955 49.3577Z" fill="#1A202C"/>
      <path id="Vector_4" d="M44.8154 39.4236H48.3734L55.17 50.2849H55.2154V39.4236H58.5691V55.6147H54.9868L48.213 44.7775H48.1675V55.6147H44.8154V39.4236Z" fill="#1A202C"/>
      <path id="Vector_5" d="M61.7168 39.4236H65.2748L72.0684 50.2864H72.1138V39.4236H75.4674V55.6147H71.8897L65.1158 44.7775H65.0704V55.6147H61.7168V39.4236Z" fill="#1A202C"/>
      <path id="Vector_6" d="M78.6182 39.4236H82.1989V55.6147H78.6182V39.4236Z" fill="#1A202C"/>
      <path id="Vector_7" d="M85.3486 39.4236H88.9067L95.7032 50.2849H95.7486V39.4236H99.1023V55.6147H95.5215L88.7477 44.7775H88.7022V55.6147H85.3486V39.4236Z" fill="#1A202C"/>
      <path id="Vector_8" d="M114.02 53.7769C112.765 55.3905 111.124 55.9925 109.549 55.9925C104.509 55.9925 101.543 52.2507 101.543 47.5801C101.543 42.7726 104.507 39.0322 109.549 39.0322C112.88 39.0322 116.028 41.0732 116.416 44.7519H112.994C112.583 42.9607 111.237 42.0305 109.549 42.0305C106.333 42.0305 105.124 44.7519 105.124 47.5861C105.124 50.2849 106.335 53.0048 109.549 53.0048C111.876 53.0048 113.221 51.757 113.427 49.5128H109.823V46.8621H116.665V55.6147H114.385L114.02 53.7769Z" fill="#1A202C"/>
      <path id="Vector_9" d="M2.94483 0.0120414L12.232 0L24.1385 11.3776V2.65362L26.7502 0H36.7021L38.8505 2.03951L38.8203 35.0751L36.3735 37.2606H26.5852L14.4758 25.5172L14.5137 34.917L12.067 37.2606H2.60871L0 34.765V2.60546L2.94483 0.0120414Z" fill="#1A202C"/>
      <path id="Vector_10" d="M40.7358 0.0119629H50.7406L53.0389 2.59033V7.0923L57.7946 11.5943L62.5517 7.24583V2.74686L65.1756 0.261822H74.8519L77.3107 2.9034V16.7149L65.1756 28.2039V34.4112L62.7152 37.2033H52.8724L50.4136 34.5662V27.7388L38.8962 16.6456L38.875 2.03943L40.7358 0.0119629Z" fill="#1A202C"/>
      <path id="Vector_11" d="M77.3105 7.14213L84.8172 0.161133H108.971L116.315 7.20836V13.947L113.54 16.2981H101.79V13.947H92.0014V23.0338H101.626V21.1538H113.704L116.37 23.8165L116.297 29.7694L108.48 37.2908H84.8172L77.3105 30.239V7.14213Z" fill="#1A202C"/>
      <path id="Vector_12" d="M114.653 1.65566C114.894 1.65566 115.108 1.63308 115.108 1.35462C115.108 1.11982 114.876 1.09122 114.684 1.09122H114.296V1.65566H114.655H114.653ZM114.295 2.75744H113.974V0.81577H114.714C115.186 0.81577 115.427 0.979834 115.427 1.37419C115.427 1.7249 115.211 1.8724 114.918 1.90401L115.467 2.75594H115.102L114.597 1.92659H114.295V2.75594V2.75744ZM114.643 0.301001C113.886 0.301001 113.28 0.903071 113.28 1.75048C113.28 2.54823 113.798 3.19997 114.643 3.19997C115.4 3.19997 115.992 2.60843 115.992 1.75048C115.992 0.892534 115.398 0.301001 114.643 0.301001ZM114.643 3.50401C113.628 3.50401 112.906 2.75142 112.906 1.75048C112.906 1.2938 113.089 0.855825 113.414 0.532903C113.738 0.20998 114.179 0.0285645 114.638 0.0285645C115.098 0.0285645 115.538 0.20998 115.863 0.532903C116.188 0.855825 116.37 1.2938 116.37 1.75048C116.378 1.97988 116.339 2.20844 116.255 2.42237C116.172 2.63631 116.045 2.8312 115.884 2.99532C115.722 3.15944 115.529 3.28938 115.316 3.37732C115.103 3.46526 114.874 3.50938 114.643 3.50702" fill="#1A202C"/>
   </g>
   <defs>
      <clipPath id="clip0_929_28751">
         <rect width="116.667" height="56" fill="white"/>
      </clipPath>
   </defs>
</svg>
