<svg id="Layer_1" data-name="Layer 1" xmlns="http://www.w3.org/2000/svg" width="338" height="100" viewBox="0 0 338 100"><defs><style>.cls-1{fill:#536068;}</style></defs><title>dfta-logo</title><polygon class="cls-1" points="136.74 45.42 139.35 42.84 139.35 35.01 131.52 27.18 105.41 27.18 97.58 35.01 97.58 29.79 94.97 27.18 84.53 27.18 81.92 29.79 81.92 35.01 76.7 40.23 71.48 35.01 71.48 29.79 68.86 27.18 58.42 27.18 55.81 29.79 53.2 27.18 42.76 27.18 40.15 29.79 40.15 40.23 27.1 27.18 16.66 27.18 14.04 29.79 14.04 66.33 16.66 68.95 27.1 68.95 29.71 66.33 29.71 55.89 42.76 68.95 53.2 68.95 55.81 66.33 55.81 45.45 68.86 58.5 68.86 66.33 71.48 68.95 81.92 68.95 84.53 66.33 84.53 58.5 97.58 45.45 97.58 61.11 105.41 68.95 131.52 68.95 139.35 61.11 139.35 53.28 136.74 50.67 123.69 50.67 123.69 53.28 113.24 53.28 113.24 42.84 123.69 42.84 123.69 45.42 136.74 45.42 136.74 45.42"/><path class="cls-1" d="M137.84,28.25H138c.2,0,.36-.07.36-.23s-.1-.24-.33-.24l-.2,0v.45Zm0,.88h-.36V27.56a4,4,0,0,1,.6,0,.79.79,0,0,1,.53.13.38.38,0,0,1,.16.33.39.39,0,0,1-.32.37v0c.15.05.23.17.28.38a1.26,1.26,0,0,0,.11.39h-.38a1.11,1.11,0,0,1-.12-.39c0-.16-.13-.23-.33-.23h-.17v.62Zm-1-.81a1.21,1.21,0,0,0,1.22,1.24,1.2,1.2,0,0,0,1.19-1.24,1.21,1.21,0,1,0-2.41,0Zm2.81,0a1.61,1.61,0,1,1-1.59-1.57,1.58,1.58,0,0,1,1.59,1.57Z"/><path d="M149.8,27.17h7.26c5.18,0,8.28,3.14,8.28,8.37,0,5.53-3.14,8.51-8.28,8.51H149.8Zm4.4,13.1h2.08c3.34-.07,4.66-1.37,4.66-4.75,0-3.08-1.65-4.57-4.66-4.57H154.2Z"/><path d="M170.48,38.9a2.63,2.63,0,0,0,2.75,2.79,2.39,2.39,0,0,0,2.29-1.35h3.76c-.73,2.84-3.36,4.07-6.1,4.07-4,0-6.72-2.41-6.72-6.53a6.45,6.45,0,0,1,6.63-6.46c4.4,0,6.6,3.32,6.41,7.48Zm5-2.25a2.5,2.5,0,0,0-2.39-2.51,2.66,2.66,0,0,0-2.61,2.51Z"/><path d="M181,31.78h3.83V33.2h0a3.92,3.92,0,0,1,3.38-1.78c3.85,0,5.49,3.32,5.49,6.77,0,3.19-1.71,6.22-5.18,6.22a4.1,4.1,0,0,1-3.5-1.68H185v5.44h-4Zm3.88,6c0,2.15.61,3.54,2.43,3.54s2.41-1.86,2.41-3.54-.61-3.29-2.38-3.29C186.26,34.5,184.89,35.26,184.89,37.79Z"/><path d="M195.2,35.56a3.76,3.76,0,0,1,1.91-3.28,8.07,8.07,0,0,1,3.91-.86c2.91,0,5.72.64,5.72,4.12v5.37a7.16,7.16,0,0,0,.47,3.14h-4a4.9,4.9,0,0,1-.24-1.15,5.57,5.57,0,0,1-4,1.51c-2.34,0-4.19-1.18-4.19-3.71,0-4,4.35-3.69,7.14-4.26.69-.14,1.07-.38,1.07-1.14,0-.92-1.11-1.27-1.94-1.27a1.79,1.79,0,0,0-2,1.53Zm5.2,6.37c1.92,0,2.56-1.09,2.46-3.62a11.93,11.93,0,0,1-2.48.66c-.9.21-1.66.59-1.66,1.56S199.5,41.93,200.4,41.93Z"/><path d="M209,31.78h3.9v2.15H213a3.7,3.7,0,0,1,3.69-2.39,4.38,4.38,0,0,1,.95.1V35.3a5.74,5.74,0,0,0-1.54-.23A2.82,2.82,0,0,0,213,38v6.07h-4Z"/><path d="M226.44,34.38H224V40c0,1,.57,1.18,1.44,1.18.34,0,.69,0,1,0v2.95c-.73,0-1.46.12-2.2.12-3.42,0-4.3-1-4.3-4.33V34.38h-2v-2.6h2V28.07h4v3.71h2.48Z"/><path d="M228,31.78h3.9v1.68h.05a4.09,4.09,0,0,1,3.52-2,3.54,3.54,0,0,1,3.57,2,4.51,4.51,0,0,1,3.84-2c3.9,0,4.32,3,4.32,5.3v7.33h-4V36.84c0-1.32-.64-2.1-1.68-2.1-1.72,0-1.89,1.32-1.89,3.31v6h-4v-7c0-1.45-.42-2.34-1.51-2.34-1.45,0-2.06.82-2.06,3.33v6h-4Z"/><path d="M252.78,38.9a2.62,2.62,0,0,0,2.74,2.79,2.41,2.41,0,0,0,2.3-1.35h3.76c-.74,2.84-3.36,4.07-6.11,4.07-4,0-6.71-2.41-6.71-6.53a6.44,6.44,0,0,1,6.62-6.46c4.4,0,6.6,3.32,6.41,7.48Zm5-2.25a2.49,2.49,0,0,0-2.39-2.51,2.65,2.65,0,0,0-2.6,2.51Z"/><path d="M263.3,31.78h3.9v1.68h.05a4.64,4.64,0,0,1,3.86-2c4.09,0,4.42,3,4.42,4.76v7.87h-4V38.12c0-1.68.19-3.38-2-3.38-1.51,0-2.18,1.27-2.18,2.62v6.69h-4Z"/><path d="M285,34.38h-2.48V40c0,1,.57,1.18,1.44,1.18.34,0,.69,0,1,0v2.95c-.73,0-1.46.12-2.2.12-3.42,0-4.3-1-4.3-4.33V34.38h-2v-2.6h2V28.07h4v3.71H285Z"/><path d="M294.14,34.38H292.2v-2.6h1.94c0-3.52,1.23-4.61,4.66-4.61.63,0,1.3,0,1.94.07v2.84a8.29,8.29,0,0,0-1.09-.07c-.93,0-1.49.11-1.49,1.23v.54h2.41v2.6h-2.41v9.67h-4Z"/><path d="M307.23,31.42a6.3,6.3,0,0,1,6.48,6.51,6.47,6.47,0,1,1-12.94,0A6.28,6.28,0,0,1,307.23,31.42Zm0,9.91c1.87,0,2.46-1.84,2.46-3.4s-.59-3.43-2.46-3.43-2.44,1.87-2.44,3.43S305.36,41.33,307.23,41.33Z"/><path d="M315.37,31.78h3.9v2.15h.05A3.7,3.7,0,0,1,323,31.54a4.38,4.38,0,0,1,.95.1V35.3a5.74,5.74,0,0,0-1.54-.23,2.82,2.82,0,0,0-3,2.91v6.07h-4Z"/><path d="M157,59.27h-2.48v5.58c0,1,.56,1.18,1.44,1.18.33,0,.68,0,1,0v3c-.73,0-1.47.12-2.2.12-3.43,0-4.3-1-4.3-4.33V59.27h-2v-2.6h2V53h4v3.72H157Z"/><path d="M158.57,52.06h4v6.29h0a4.28,4.28,0,0,1,3.74-2c4.09,0,4.42,3,4.42,4.76v7.87h-4V63c0-1.68.19-3.39-2-3.39-1.51,0-2.18,1.28-2.18,2.63v6.69h-4Z"/><path d="M176.36,63.79a2.62,2.62,0,0,0,2.75,2.79,2.39,2.39,0,0,0,2.29-1.35h3.76c-.73,2.84-3.36,4.07-6.1,4.07-4,0-6.72-2.41-6.72-6.53A6.45,6.45,0,0,1,179,56.31c4.4,0,6.6,3.31,6.41,7.48Zm5-2.25A2.49,2.49,0,0,0,179,59a2.66,2.66,0,0,0-2.6,2.51Z"/><path d="M198.64,52.06h4.47l6.31,16.88h-4.59l-1-3H197.9l-1.06,3h-4.52Zm.28,10.59h3.83l-1.87-5.91h0Z"/><path d="M222.15,67.45c0,2-.37,5.8-6.12,5.8-2.86,0-5.56-.64-6-3.93h4a1.32,1.32,0,0,0,.68,1.07,3.23,3.23,0,0,0,1.47.26c1.92,0,2.11-1.35,2.11-2.87V66.63h-.05A3.9,3.9,0,0,1,215,68.42c-3.71,0-5.39-2.65-5.39-6.1,0-3.26,1.92-6,5.39-6a3.55,3.55,0,0,1,3.29,1.9h.05V56.67h3.85Zm-6.22-8.06c-1.77,0-2.34,1.56-2.34,3.07s.66,2.89,2.32,2.89,2.44-1.33,2.44-2.86S217.73,59.39,215.93,59.39Z"/><path d="M228.4,55.13h-4V52.06h4Zm-4,1.54h4V68.94h-4Z"/><path d="M230.67,56.67h3.9v1.68h.05a4.62,4.62,0,0,1,3.85-2c4.09,0,4.43,3,4.43,4.76v7.87h-4V63c0-1.68.19-3.39-2-3.39-1.51,0-2.17,1.28-2.17,2.63v6.69h-4Z"/><path d="M257,67.45c0,2-.38,5.8-6.12,5.8-2.87,0-5.56-.64-6-3.93h4a1.3,1.3,0,0,0,.68,1.07,3.2,3.2,0,0,0,1.47.26c1.91,0,2.1-1.35,2.1-2.87V66.63h0a3.91,3.91,0,0,1-3.27,1.79c-3.71,0-5.39-2.65-5.39-6.1,0-3.26,1.91-6,5.39-6a3.55,3.55,0,0,1,3.29,1.9h.05V56.67H257Zm-6.22-8.06c-1.77,0-2.34,1.56-2.34,3.07s.66,2.89,2.32,2.89,2.43-1.33,2.43-2.86S252.58,59.39,250.78,59.39Z"/></svg>