<?xml version="1.0" encoding="utf-8"?>
<!-- Generator: Adobe Illustrator 12.0.1, SVG Export Plug-In  -->
<!DOCTYPE svg PUBLIC "-//W3C//DTD SVG 1.0//EN" "http://www.w3.org/TR/2001/REC-SVG-20010904/DTD/svg10.dtd" [
	<!ENTITY ns_flows "http://ns.adobe.com/Flows/1.0/">
	<!ENTITY ns_svg "http://www.w3.org/2000/svg">
	<!ENTITY ns_xlink "http://www.w3.org/1999/xlink">
]>
<svg  version="1.0" xmlns="&ns_svg;" xmlns:xlink="&ns_xlink;" xmlns:a="http://ns.adobe.com/AdobeSVGViewerExtensions/3.0/"
	 width="360" height="180" viewBox="0 0 360 180" enable-background="new 0 0 360 180" xml:space="preserve">
<defs>
</defs>
<path fill="none" d="M92.664,146.151c0,1.288,1.014,1.813,2.182,1.813c2.488,0,3.318-1.413,3.196-4.7
	c-0.738,0.463-2.09,0.552-3.228,0.859C93.646,144.399,92.664,144.892,92.664,146.151z"/>
<path fill="none" d="M78.099,137.855c-1.846,0-3.074,1.32-3.382,3.256h6.484C81.109,139.331,79.85,137.855,78.099,137.855z"/>
<polygon fill="#00529F" points="307.777,67.755 313.297,62.3 313.297,45.736 296.732,29.17 241.515,29.17 224.95,45.736 
	224.95,67.823 224.95,100.953 241.515,117.518 296.732,117.518 313.297,100.953 313.297,84.387 307.777,78.858 280.166,78.858 
	280.166,84.387 258.082,84.387 258.082,62.3 280.166,62.3 280.166,67.755 "/>
<polygon fill="#00529F" points="75.863,117.518 81.386,111.994 81.386,89.91 108.993,117.518 131.081,117.518 136.602,111.994 
	136.602,34.693 131.081,29.17 108.993,29.17 103.472,34.693 103.472,56.779 75.863,29.17 53.776,29.17 48.254,34.693 
	48.254,111.994 53.776,117.518 "/>
<polygon fill="#00529F" points="224.95,34.691 219.428,29.17 197.342,29.17 191.818,34.691 191.818,45.736 180.777,56.779 
	169.732,45.736 169.732,34.691 164.211,29.17 142.125,29.17 136.604,34.691 136.604,67.823 164.211,95.431 164.211,111.998 
	169.732,117.518 191.818,117.518 197.342,111.998 197.342,95.431 224.95,67.823 224.95,45.736 "/>
<polygon fill="#00529F" points="61.75,136.779 54.222,136.779 54.222,128.791 48.506,128.791 48.506,150.729 54.222,150.729 
	54.222,141.695 61.75,141.695 61.75,150.729 67.467,150.729 67.467,128.791 61.75,128.791 "/>
<path fill="#00529F" d="M78.099,134.319c-4.702,0-8.606,3.504-8.606,8.392c0,5.345,3.534,8.48,8.728,8.48
	c3.564,0,6.976-1.6,7.928-5.284h-4.886c-0.492,1.165-1.72,1.749-2.98,1.749c-2.214,0-3.474-1.441-3.566-3.625h11.708
	C86.671,138.623,83.813,134.319,78.099,134.319z M74.717,141.111c0.308-1.936,1.536-3.256,3.382-3.256
	c1.75,0,3.01,1.476,3.102,3.256H74.717z"/>
<path fill="#00529F" d="M103.082,139.667c0-4.517-3.658-5.348-7.438-5.348c-1.813,0-3.656,0.308-5.07,1.107
	c-1.414,0.829-2.398,2.181-2.49,4.269h4.888c0.244-1.349,1.166-1.992,2.61-1.992c1.076,0,2.52,0.457,2.52,1.656
	c0,0.984-0.492,1.292-1.382,1.476c-3.626,0.739-9.28,0.34-9.28,5.532c0,3.288,2.396,4.824,5.438,4.824
	c1.906,0,3.904-0.553,5.256-1.968c0.061,0.523,0.122,1.016,0.306,1.505h5.256c-0.614-1.258-0.614-2.733-0.614-4.085V139.667z
	 M94.846,147.964c-1.168,0-2.182-0.524-2.182-1.813c0-1.26,0.982-1.752,2.15-2.028c1.138-0.308,2.49-0.396,3.228-0.859
	C98.164,146.551,97.334,147.964,94.846,147.964z"/>
<rect x="105.968" y="128.791" fill="#00529F" width="5.224" height="21.938"/>
<path fill="#00529F" d="M120.535,129.959h-5.224v4.824h-2.644v3.377h2.644v7.1c0,4.332,1.136,5.624,5.592,5.624
	c0.952,0,1.904-0.124,2.858-0.155v-3.841c-0.462,0-0.922,0.063-1.352,0.063c-1.138,0-1.874-0.276-1.874-1.536v-7.255h3.226v-3.377
	h-3.226V129.959z"/>
<path fill="#00529F" d="M135.498,134.319c-1.904,0-4.056,1.016-4.854,2.644h-0.062v-8.172h-5.224v21.938h5.224v-8.693
	c0-1.752,0.86-3.412,2.828-3.412c2.856,0,2.612,2.212,2.612,4.393v7.713h5.224v-10.232
	C141.246,138.191,140.814,134.319,135.498,134.319z"/>
<polygon fill="#00529F" points="304.94,33.875 305.873,33.875 305.873,29.962 307.41,29.962 307.41,29.177 303.404,29.177 
	303.404,29.962 304.94,29.962 "/>
<polygon fill="#00529F" points="309.069,30.086 310.381,33.875 311.136,33.875 312.428,30.086 312.428,33.875 313.291,33.875 
	313.291,29.177 311.941,29.177 310.748,32.541 309.549,29.177 308.203,29.177 308.203,33.875 309.069,33.875 "/>
<rect id="_x3C_Slice_x3E__2_" fill="none" width="360" height="180"/>
</svg>
