<?xml version="1.0" encoding="utf-8"?>
<!-- Generator: Adobe Illustrator 15.0.2, SVG Export Plug-In . SVG Version: 6.00 Build 0)  -->
<!DOCTYPE svg PUBLIC "-//W3C//DTD SVG 1.1//EN" "http://www.w3.org/Graphics/SVG/1.1/DTD/svg11.dtd">
<svg version="1.1" id="Layer_1" xmlns="http://www.w3.org/2000/svg" xmlns:xlink="http://www.w3.org/1999/xlink" x="0px" y="0px"
	 width="162.251px" height="182.917px" viewBox="0 0 162.251 182.917" enable-background="new 0 0 162.251 182.917"
	 xml:space="preserve">
<polygon fill="#88C659" points="80.637,25.74 80.957,27.3 81.874,30.349 84.638,37.149 87.078,38.997 88.648,39.941 90.498,39.941 
	92.346,39.941 92.346,40.519 92.346,42.392 92.948,44.254 93.58,46.093 93.89,46.728 94.501,47.007 95.43,47.329 96.334,47.329 
	97.57,46.728 97.867,47.95 98.19,49.8 98.19,51.947 97.867,53.804 96.334,58.422 96.048,59.349 96.334,59.659 96.654,59.967 
	97.261,60.58 97.57,61.222 98.515,62.749 99.416,63.368 99.739,63.071 100.348,62.749 100.98,62.452 101.587,61.531 102.798,59.967 
	104.037,59.349 104.67,59.659 106.521,60.268 110.506,60.268 114.505,58.731 115.772,58.11 116.042,58.11 116.042,57.798 
	116.664,57.511 117.618,57.511 117.917,57.511 118.521,58.11 119.453,58.731 120.086,58.731 120.975,58.731 121.607,58.422 
	122.834,58.11 124.397,56.882 126.253,55.978 128.088,55.043 127.776,55.978 127.157,58.11 126.253,59.967 124.397,63.654 
	123.466,67.079 123.466,67.376 123.158,67.684 123.158,67.998 122.834,68.578 122.834,68.912 123.775,70.156 124.397,71.69 
	124.397,72.597 124.072,73.851 123.466,75.064 121.607,77.233 120.086,79.707 119.453,82.497 119.453,84.005 120.086,84.952 
	120.975,85.881 122.532,86.504 123.775,86.813 125.298,86.813 127.157,86.813 128.088,86.813 128.088,87.419 128.697,88.014 
	128.987,88.336 129.921,88.96 131.147,89.592 132.712,89.874 134.245,90.832 135.151,91.724 133.617,91.724 132.076,92.047 
	130.863,92.668 129.312,93.289 127.157,95.149 125.005,97.295 122.834,98.846 120.086,100.083 119.75,100.083 119.453,100.083 
	119.146,100.383 118.844,100.383 118.21,100.974 117.618,101.634 116.983,102.526 116.37,103.151 116.37,103.771 116.664,105.011 
	117.618,107.14 118.844,109.622 119.146,110.245 117.917,110.245 115.45,110.554 110.827,110.245 106.816,108.715 105.898,108.396 
	104.037,108.084 100.66,106.858 97.261,105.628 90.796,102.208 85.86,100.695 84.044,102.208 82.777,104.08 82.469,105.929 
	82.16,108.396 82.777,113.333 83.424,117.968 82.469,122.275 79.408,125.365 79.408,123.207 79.733,118.89 80.323,110.554 
	78.494,102.526 77.267,100.695 77.267,100.383 76.943,100.083 76.646,100.083 76.308,100.083 75.703,100.083 75.407,100.083 
	74.465,99.752 73.562,99.425 72.63,99.752 71.69,100.083 71.085,100.695 69.239,101.921 67.686,103.459 66.15,105.011 
	65.534,105.628 63.971,105.628 62.137,106.262 58.447,107.463 54.753,108.99 51.361,110.554 47.667,110.862 44.287,109.622 
	44.591,108.715 44.905,107.764 45.213,105.929 44.905,103.771 43.964,102.208 42.747,100.974 40.902,100.695 39.326,100.383 
	38.111,99.752 37.19,99.142 35.032,97.604 31.029,94.207 27.348,92.976 28.254,92.047 30.42,90.509 35.336,88.336 40.297,86.504 
	41.522,85.881 42.415,85.249 42.747,84.332 42.747,83.711 42.415,83.091 42.114,82.177 41.805,81.538 40.297,80.019 39.047,78.488 
	37.802,77.233 37.802,76.308 37.802,75.71 38.111,73.851 38.722,72.003 39.047,70.45 39.047,68.578 38.423,67.079 37.802,66.123 
	36.887,64.287 35.336,60.912 34.422,57.798 34.422,56.882 35.644,57.511 37.494,58.731 42.415,60.58 44.591,60.58 47.047,60.268 
	48.273,59.349 49.216,60.268 50.135,60.58 51.361,60.912 53.206,61.222 55.696,61.222 59.996,62.14 61.235,62.749 61.53,62.452 
	62.137,62.14 62.461,61.531 63.689,60.268 64.318,59.349 64.318,58.422 63.971,56.585 63.689,53.161 63.366,49.476 63.366,48.867 
	63.366,48.559 63.366,48.249 63.366,47.95 64.318,48.249 65.236,48.249 65.842,47.95 66.46,47.627 67.058,46.728 67.394,46.093 
	68,43.933 68.618,42.085 69.536,40.519 69.855,40.211 69.855,39.941 70.463,39.941 70.788,39.941 71.397,40.211 71.69,40.519 
	72.929,39.296 74.465,36.85 75.703,34.369 77.857,29.12 "/>
<g>
	<defs>
		<rect id="SVGID_1_" y="0.917" width="160.4" height="176.999"/>
	</defs>
	<clipPath id="SVGID_2_">
		<use xlink:href="#SVGID_1_"  overflow="visible"/>
	</clipPath>
	<path clip-path="url(#SVGID_2_)" fill="#88C659" d="M80.2,5.917c-38.458,0-69.636,31.177-69.636,69.636
		c0,38.458,31.177,69.635,69.636,69.635c38.459,0,69.637-31.178,69.637-69.635C149.837,37.094,118.659,5.917,80.2,5.917
		 M80.2,137.176c-34.034,0-61.625-27.59-61.625-61.624c0-34.034,27.591-61.624,61.625-61.624c34.034,0,61.624,27.59,61.624,61.624
		C141.824,109.586,114.234,137.176,80.2,137.176"/>
	<polygon clip-path="url(#SVGID_2_)" fill="#58595B" points="31.12,177.56 22.739,164.264 22.739,177.56 19.271,177.56 
		19.271,158.202 23.011,158.202 31.284,171.309 31.284,158.202 34.752,158.202 34.752,177.56 	"/>
	<polygon clip-path="url(#SVGID_2_)" fill="#58595B" points="46.206,170.134 46.206,177.56 42.656,177.56 42.656,170.134 
		35.94,158.203 39.763,158.203 44.54,166.557 49.319,158.203 52.977,158.203 	"/>
	<path clip-path="url(#SVGID_2_)" fill="#58595B" d="M65.576,175.622c-1.446,1.476-3.467,2.294-5.542,2.294
		c-2.075,0-4.014-0.682-5.488-2.156c-2.102-2.104-2.403-4.697-2.403-7.864s0.301-5.761,2.403-7.863
		c1.474-1.474,3.413-2.184,5.488-2.184c2.075,0,4.096,0.765,5.542,2.238c1.12,1.146,1.694,2.677,1.857,4.204h-3.605
		c-0.081-0.847-0.383-1.445-0.873-2.047c-0.628-0.792-1.719-1.203-2.921-1.203c-1.121,0-2.211,0.465-2.976,1.284
		c-1.338,1.393-1.338,3.796-1.338,5.57s0,4.178,1.338,5.568c0.765,0.82,1.855,1.283,2.976,1.283c1.202,0,2.293-0.437,2.921-1.228
		c0.49-0.601,0.792-1.283,0.873-2.129h3.605C67.27,172.918,66.695,174.475,65.576,175.622"/>
	<path clip-path="url(#SVGID_2_)" fill="#58595B" d="M82.816,170.624H78.72v6.937h-3.494v-19.358h7.59
		c4.449,0,6.824,2.486,6.824,6.199S87.266,170.624,82.816,170.624 M82.68,161.288H78.72v6.253h3.959
		c2.349,0,3.412-1.257,3.412-3.113S85.028,161.288,82.68,161.288"/>
	<path clip-path="url(#SVGID_2_)" fill="#58595B" d="M101.519,177.779c-1.475,0-2.293-0.929-2.401-1.994
		c-0.656,1.148-2.296,2.132-4.315,2.132c-3.387,0-5.133-2.132-5.133-4.452c0-2.703,2.104-4.26,4.806-4.449l4.178-0.3v-0.874
		c0-1.338-0.466-2.239-2.404-2.239c-1.583,0-2.51,0.71-2.593,2.021h-3.304c0.19-3.194,2.731-4.615,5.896-4.615
		c2.431,0,4.506,0.765,5.326,2.895c0.354,0.901,0.408,1.911,0.408,2.868v5.267c0,0.656,0.218,0.903,0.792,0.903
		c0.22,0,0.438-0.056,0.438-0.056v2.513C102.638,177.643,102.338,177.779,101.519,177.779 M98.652,171.253l-3.604,0.272
		c-1.037,0.082-2.048,0.71-2.048,1.858c0,1.091,0.955,1.773,2.021,1.773c2.131,0,3.632-1.147,3.632-3.25V171.253z"/>
	<path clip-path="url(#SVGID_2_)" fill="#58595B" d="M112.438,166.393c-2.404,0-3.659,1.721-3.659,4.015v7.152h-3.439v-14.197h2.894
		l0.3,2.13c0.655-1.639,2.348-2.321,4.015-2.321c0.354,0,0.709,0.027,1.064,0.083v3.275
		C113.23,166.449,112.821,166.393,112.438,166.393"/>
	<polygon clip-path="url(#SVGID_2_)" fill="#58595B" points="125.054,177.56 121.067,171.363 118.802,173.82 118.802,177.56 
		115.389,177.56 115.389,157.848 118.802,157.848 118.802,169.123 124.18,163.362 128.466,163.362 123.389,168.851 129.013,177.56 	
		"/>
	<path clip-path="url(#SVGID_2_)" fill="#58595B" d="M139.771,176.277c-1.147,1.147-2.923,1.639-4.86,1.639
		c-1.802,0-3.413-0.519-4.586-1.639c-0.82-0.792-1.503-1.967-1.503-3.303h3.195c0,0.627,0.326,1.31,0.764,1.665
		c0.546,0.437,1.175,0.628,2.158,0.628c1.146,0,2.893-0.246,2.893-1.803c0-0.818-0.546-1.365-1.42-1.501
		c-1.256-0.191-2.676-0.272-3.931-0.546c-1.939-0.409-3.249-1.992-3.249-3.795c0-1.447,0.601-2.458,1.446-3.194
		c1.038-0.901,2.54-1.421,4.314-1.421c1.694,0,3.412,0.547,4.451,1.667c0.765,0.818,1.256,1.884,1.256,2.921h-3.25
		c0-0.546-0.245-0.983-0.573-1.338c-0.41-0.41-1.147-0.655-1.855-0.655c-0.492,0-0.956,0-1.476,0.218
		c-0.6,0.247-1.092,0.765-1.092,1.502c0,1.011,0.873,1.312,1.638,1.419c1.284,0.165,1.638,0.19,3.03,0.411
		c2.241,0.354,3.877,1.774,3.877,4.012C140.998,174.531,140.507,175.54,139.771,176.277"/>
</g>
</svg>
