<?xml version="1.0" encoding="utf-8"?>
<!-- Generator: Adobe Illustrator 28.3.0, SVG Export Plug-In . SVG Version: 6.00 Build 0)  -->
<svg version="1.1" id="Layer_1" xmlns="http://www.w3.org/2000/svg" xmlns:xlink="http://www.w3.org/1999/xlink" x="0px" y="0px"
	 width="443px" height="102.5px" viewBox="0 0 443 102.5" style="enable-background:new 0 0 443 102.5;" xml:space="preserve">
<style type="text/css">
	.st0{fill:#231F20;}
	.st1{fill:#E6E7E8;}
	.st2{fill:#00764D;}
	.st3{fill:#FFFFFF;stroke:#231F20;stroke-width:0.25;stroke-miterlimit:10;}
</style>
<g>
	<g>
		<path class="st0" d="M124.8,62.6c0.1,4.2,3.6,5.9,7.4,5.9c2.8,0,6.3-1.1,6.3-4.5c0-2.9-4-3.9-10.9-5.4c-5.6-1.2-11.1-3.2-11.1-9.4
			c0-9,7.7-11.3,15.3-11.3c7.7,0,14.7,2.6,15.5,11.2h-9.2c-0.3-3.7-3.1-4.8-6.6-4.8c-2.2,0-5.4,0.4-5.4,3.3c0,3.5,5.4,3.9,10.9,5.2
			c5.6,1.3,11.1,3.3,11.1,9.9c0,9.2-8,12.2-16,12.2c-8.2,0-16.1-3.1-16.5-12.4H124.8z"/>
		<path class="st0" d="M153.4,49.7c0.5-9,8.6-11.8,16.5-11.8c7,0,15.4,1.6,15.4,10v18.3c0,3.2,0.3,6.4,1.2,7.8h-9.8
			c-0.3-1.1-0.6-2.2-0.7-3.4c-3.1,3.2-7.5,4.3-11.8,4.3c-6.7,0-12-3.3-12-10.5c0-7.9,6-9.9,12-10.7c5.9-0.9,11.4-0.7,11.4-4.6
			c0-4.1-2.9-4.8-6.3-4.8c-3.7,0-6,1.5-6.4,5.3H153.4z M175.7,56.8c-1.6,1.4-5,1.5-8,2c-3,0.6-5.7,1.6-5.7,5.2
			c0,3.6,2.8,4.5,5.9,4.5c7.5,0,7.8-6,7.8-8.1V56.8z"/>
		<path class="st0" d="M192.8,38.9h9.2v4.9h0.2c2.4-3.9,6.7-5.8,10.7-5.8c10.3,0,12.8,5.8,12.8,14.5V74h-9.6V54.2
			c0-5.8-1.7-8.6-6.2-8.6c-5.2,0-7.5,2.9-7.5,10.1V74h-9.6V38.9z"/>
		<path class="st0" d="M243,33.4h-9.6v-7.9h9.6V33.4z M233.4,38.9h9.6V74h-9.6V38.9z"/>
		<path class="st0" d="M262.9,38.9h7.1v6.5h-7.1v17.4c0,3.3,0.8,4.1,4.1,4.1c1,0,2-0.1,3-0.3v7.5c-1.6,0.3-3.7,0.3-5.6,0.3
			c-5.9,0-11.1-1.4-11.1-8.4V45.3h-5.8v-6.5h5.8V28.4h9.6V38.9z"/>
		<path class="st0" d="M274.2,49.7c0.5-9,8.6-11.8,16.5-11.8c7,0,15.4,1.6,15.4,10v18.3c0,3.2,0.3,6.4,1.2,7.8h-9.8
			c-0.3-1.1-0.6-2.2-0.7-3.4c-3.1,3.2-7.5,4.3-11.8,4.3c-6.7,0-12-3.3-12-10.5c0-7.9,6-9.9,12-10.7c5.9-0.9,11.4-0.7,11.4-4.6
			c0-4.1-2.9-4.8-6.3-4.8c-3.7,0-6,1.5-6.4,5.3H274.2z M296.5,56.8c-1.6,1.4-5,1.5-8,2c-3,0.6-5.7,1.6-5.7,5.2
			c0,3.6,2.8,4.5,5.9,4.5c7.5,0,7.8-6,7.8-8.1V56.8z"/>
		<path class="st0" d="M325.8,38.9h7.1v6.5h-7.1v17.4c0,3.3,0.8,4.1,4.1,4.1c1,0,2-0.1,3-0.3v7.5c-1.6,0.3-3.7,0.3-5.6,0.3
			c-5.9,0-11.1-1.4-11.1-8.4V45.3h-5.8v-6.5h5.8V28.4h9.6V38.9z"/>
		<path class="st0" d="M347.4,33.4h-9.6v-7.9h9.6V33.4z M337.8,38.9h9.6V74h-9.6V38.9z"/>
		<path class="st0" d="M372.1,37.9c11.1,0,18.2,7.3,18.2,18.5c0,11.1-7.1,18.5-18.2,18.5c-11,0-18.1-7.3-18.1-18.5
			C353.9,45.3,361.1,37.9,372.1,37.9z M372.1,67.7c6.6,0,8.6-5.6,8.6-11.2c0-5.6-2-11.3-8.6-11.3c-6.5,0-8.5,5.6-8.5,11.3
			C363.6,62.1,365.6,67.7,372.1,67.7z"/>
		<path class="st0" d="M396.5,38.9h9.2v4.9h0.2c2.4-3.9,6.7-5.8,10.7-5.8c10.3,0,12.8,5.8,12.8,14.5V74h-9.6V54.2
			c0-5.8-1.7-8.6-6.2-8.6c-5.2,0-7.5,2.9-7.5,10.1V74h-9.6V38.9z"/>
	</g>
	<g>
		<g>
			<g>
				<g>
					<path class="st1" d="M56.2,9.6c0.1-0.7-0.4-0.9-0.9-0.9l-1.6-0.1l-0.1,1.8l1.6,0.1C55.7,10.5,56.1,10.2,56.2,9.6z"/>
					<path class="st1" d="M48.5,12.8c1.2-0.1,1.7-1.2,1.6-2.3c-0.1-1.1-0.7-2.1-1.9-2.1c-1.2,0.1-1.7,1.2-1.6,2.3
						S47.3,12.9,48.5,12.8z"/>
					<g>
						<path class="st1" d="M22.2,78.1c0.5-0.4,0.3-0.9,0-1.2l-1-1.1L20,76.9l1,1.1C21.4,78.5,21.8,78.5,22.2,78.1z"/>
						<polygon class="st1" points="16.4,73.3 17.3,74.7 18.8,72.7 18.8,72.7 						"/>
						<path class="st1" d="M13.2,59.5L13,58.6l-3.7,0.8l0.2,0.9c0.3,1.4,1.2,1.5,2.2,1.3C12.8,61.4,13.6,60.9,13.2,59.5z"/>
						<path class="st1" d="M16.6,70.5c0.6-0.3,0.6-0.8,0.4-1.2l-0.6-1.2l-1.6,0.8l0.6,1.2C15.6,70.4,16,70.8,16.6,70.5z"/>
						<polygon class="st1" points="83,77.3 80.7,76.4 80.7,76.4 81.9,78.5 						"/>
						<path class="st1" d="M89.5,64.9c-1-0.4-2.1-0.3-2.5,0.7c-0.4,1.1,0.3,1.9,1.3,2.3c1,0.4,2.1,0.3,2.5-0.7
							C91.2,66.1,90.5,65.3,89.5,64.9z"/>
						<path class="st1" d="M51.2,4.9C25.8,4.9,5.1,25.6,5.1,51c0,25.4,20.7,46.1,46.1,46.1c25.4,0,46.1-20.7,46.1-46.1
							C97.3,25.6,76.6,4.9,51.2,4.9z M80.5,18.9l-0.7,2.9l2.9-0.8l0.8,0.8l-4,1l-1.6,1.6l-0.7-0.7l1.6-1.6l0.9-4L80.5,18.9z
							 M75.5,15l3.7,2.8l-0.5,0.7l-1.5-1.1l-2.9,3.9l-0.8-0.6l2.9-3.9L75,15.6L75.5,15z M74.6,14.4l-3,4.9l-0.9-0.5l3-4.9L74.6,14.4
							z M66.6,13.4c0.7-1.5,2.2-2.3,3.8-1.5c1.2,0.6,1.8,1.7,1.3,2.8l-0.9-0.4c0.1-0.7,0-1.3-0.8-1.7c-1.1-0.5-2,0.2-2.5,1.2
							c-0.5,1-0.5,2.2,0.6,2.7c0.8,0.4,1.5,0,2-0.7l0.9,0.4c-0.7,1.2-2,1.6-3.2,1C66.2,16.6,65.9,14.9,66.6,13.4z M59.7,8.4l1,0.2
							L60,11.2l3.1-1.9l1.2,0.3l-2.8,1.7l1.5,3.9l-1.2-0.3l-1.2-3.1l-1,0.6l-0.5,1.9l-1-0.2L59.7,8.4z M52.7,7.6l2.7,0.2
							c1.3,0.1,1.9,0.7,1.8,1.7c-0.1,1.1-0.9,1.3-1.1,1.4l0,0c0.3,0.1,0.8,0.4,0.8,1.3c0,0.7,0,1.3,0.2,1.5L56,13.6
							c-0.1-0.3-0.1-0.6-0.1-0.9c0.1-1.1-0.1-1.5-1-1.6l-1.5-0.1l-0.2,2.4l-1-0.1L52.7,7.6z M48.2,7.6c1.7-0.1,2.8,1.2,2.9,2.8
							c0.1,1.6-0.8,3.1-2.5,3.2c-1.7,0.1-2.8-1.2-2.9-2.8C45.5,9.1,46.5,7.7,48.2,7.6z M41.2,8.7l2,2.2l1-2.8l1.1-0.2l-1.4,3.8
							l0.4,2.2l-1,0.2L42.8,12L40,9L41.2,8.7z M31,12.4l2.7,3.6l0,0L33,11.5l0.9-0.4l2.8,3.6l0,0L36,10.2l0.9-0.4l0.9,5.9l-0.9,0.4
							L34,12.6l0,0l0.7,4.5l-0.9,0.4l-3.7-4.6L31,12.4z M29.1,13.5l0.5,0.7L27,15.9l0.8,1.3l2.4-1.6l0.4,0.7l-2.4,1.6l0.9,1.4
							l2.7-1.7l0.5,0.7l-3.5,2.3l-3.1-4.8L29.1,13.5z M21.5,19.1l4.8,1.5l0,0l-2.8-3.2l0.7-0.6l3.8,4.3l-0.8,0.7l-4.7-1.5l0,0
							l2.8,3.2l-0.7,0.6l-3.8-4.3L21.5,19.1z M8.1,43c1.9-0.5,5.3-1.5,9.2-2.7c4.6-14.3,18-24.7,33.8-24.7
							C67,15.5,80.4,25.9,85,40.2c4,1.2,7.6,2.3,9.5,2.8c0.2,0.1,0.7,0.3,0.6,1c0,1.4-2.2,4.8-3.2,5c-0.2,0-0.3,0-0.5,0
							c-1,0-2.8-0.5-4.8-1.2c0.1,1.1,0.2,2.1,0.2,3.2c0,19.6-15.9,35.5-35.5,35.5c-19.6,0-35.5-15.9-35.5-35.5c0-1,0.1-2.1,0.1-3.1
							c-2,0.7-3.6,1.1-4.6,1.1c-0.2,0-0.4,0-0.5,0c-1-0.2-3.2-3.6-3.2-5C7.5,43.2,7.9,43,8.1,43z M8.9,60.9l-0.5-2.1l5.2-1.2
							l0.5,2.1c0.4,1.6-0.6,2.5-2.1,2.9C10.6,62.9,9.3,62.4,8.9,60.9z M9.9,64.4l5-1.8l1.3,3.6l-0.8,0.3l-1-2.7l-1.3,0.5l0.9,2.5
							L13.3,67l-0.9-2.5L10.9,65l1,2.8L11.2,68L9.9,64.4z M11.9,69.3l4.7-2.4l1.1,2.1c0.7,1.3,0,2-0.6,2.4c-0.6,0.3-1.6,0.5-2.3-0.9
							l-0.6-1.3l-1.8,0.9L11.9,69.3z M16,76.4l0.9-1.2l-1.2-1.8l-1.4,0.4l-0.5-0.8l5.5-1.3l0.5,0.8l-3.3,4.6L16,76.4z M21,80.3
							c-0.5,0.4-0.8,0.8-0.9,1.1l-0.7-0.7c0.1-0.3,0.3-0.4,0.5-0.6c0.7-0.6,0.9-1.1,0.4-1.7l-0.9-1l-1.6,1.4l-0.6-0.7l4-3.5l1.7,1.9
							c0.8,0.9,0.8,1.7,0.1,2.3c-0.8,0.7-1.4,0.3-1.6,0.2l0,0C21.5,79.3,21.6,79.8,21,80.3z M21.8,83l3-3.3l-1.2-1.1l0.5-0.6
							l3.2,2.9l-0.5,0.6l-1.3-1.1l-3,3.3L21.8,83z M28.6,88.2l2.3-3.4l0,0l-3.5,2.6l-0.6-0.4l1.1-4.2l0,0l-2.3,3.4l-0.7-0.5l3-4.4
							l1.1,0.7l-1.1,4.3l0,0l3.5-2.6l1.1,0.7l-3,4.4L28.6,88.2z M35,88.8l-2.4-1.2L31.9,89l2.6,1.3L34.2,91l-3.5-1.7l2.3-4.8
							l3.4,1.7L36.1,87l-2.6-1.3L32.9,87l2.4,1.2L35,88.8z M39.5,92.9l-0.9-0.3l-1-4.5l0,0l-1.2,3.7l-0.8-0.3l1.7-5l0.9,0.3l1.1,4.5
							l0,0l1.2-3.7l0.8,0.3L39.5,92.9z M45.6,89.6L44,89.3l-0.9,4.4l-0.9-0.2l0.9-4.4l-1.6-0.3l0.2-0.8l4.2,0.8L45.6,89.6z M50,94.3
							c-1.4,0-2.2-1.2-2.2-2.5c0-1.3,0.9-2.4,2.3-2.4c1.4,0,2.2,1.2,2.2,2.5C52.3,93.3,51.4,94.4,50,94.3z M54,91.3l2.1-0.1l0,0.7
							L54.1,92l0.1,2.1l-0.8,0.1l-0.3-4.7l3.2-0.2l0,0.7L54,90.1L54,91.3z M62.5,93.1c-1.2,0.3-2.3,0-2.7-1.3l0.9-0.2
							c0.2,0.8,0.9,1,1.6,0.8c0.8-0.2,1-0.7,0.9-1.1c-0.1-0.4-0.4-0.5-0.6-0.5c-0.4,0-0.9,0-1.7,0c-1,0-1.4-0.5-1.5-1
							c-0.3-1,0.6-1.8,1.5-2.1c1.1-0.3,2.2,0,2.5,1.1L62.5,89c-0.2-0.7-0.7-0.8-1.4-0.6c-0.4,0.1-0.9,0.4-0.8,0.9
							c0.1,0.4,0.4,0.5,0.8,0.5c0.1,0,1.3,0,1.6,0c0.7,0,1.2,0.5,1.4,1.1C64.5,92,63.6,92.8,62.5,93.1z M69.5,90.4l-1-1.1l-2,0.8
							l0.1,1.5L65.7,92l-0.2-5.8l0.9-0.4l4,4.2L69.5,90.4z M74.6,87.6l-4.2-2.1l0,0l2.1,3.4l-0.8,0.5l-2.8-4.6l0.9-0.5l4.2,2.1l0,0
							l-2.1-3.4l0.8-0.5l2.8,4.6L74.6,87.6z M77.1,85.9l-3.3-4.3l0.8-0.6l3.3,4.3L77.1,85.9z M80.3,83.2l-3.1-3.4L75.9,81l-0.6-0.6
							l3.2-3l0.6,0.6l-1.3,1.2l3.1,3.4L80.3,83.2z M85.1,78.1l-1.4-0.6l-1.4,1.6l0.8,1.3l-0.6,0.7l-2.7-5.1l0.7-0.8l5.5,2L85.1,78.1
							z M86.9,75.8L83,73.2l-1,1.4l-0.7-0.5l2.5-3.6l0.7,0.5l-1,1.4l3.8,2.6L86.9,75.8z M89.1,72.2l-4.8-2.6l0.5-0.8l4.8,2.6
							L89.1,72.2z M91.5,67.5c-0.6,1.5-2.2,1.9-3.6,1.3c-1.4-0.6-2.3-2-1.6-3.5c0.6-1.5,2.2-1.9,3.6-1.3
							C91.3,64.6,92.1,66,91.5,67.5z M93.7,60l-4.4,1.5l0,0l3.9,0.9l-0.2,0.9l-5.3-1.3l0.2-1l4.5-1.5l0,0l-3.9-0.9l0.2-0.9l5.3,1.3
							L93.7,60z"/>
						<polygon class="st1" points="66.3,86.9 66.4,89.4 67.9,88.7 66.3,86.9 						"/>
						<path class="st1" d="M50.2,90.1c-1,0-1.5,0.8-1.5,1.7c0,0.9,0.4,1.8,1.4,1.8c1,0,1.5-0.8,1.5-1.7C51.5,91,51.2,90.1,50.2,90.1
							z"/>
					</g>
				</g>
				<g>
					<path class="st0" d="M51.2,3.6C25.1,3.6,3.8,24.9,3.8,51c0,26.1,21.3,47.4,47.4,47.4c26.1,0,47.4-21.3,47.4-47.4
						C98.6,24.9,77.3,3.6,51.2,3.6z M51.2,97.1C25.8,97.1,5.1,76.5,5.1,51c0-25.4,20.7-46.1,46.1-46.1c25.4,0,46.1,20.7,46.1,46.1
						C97.3,76.5,76.6,97.1,51.2,97.1z"/>
					<g>
						<path class="st0" d="M46.9,53.4c0.2,0.1,0.4,0.2,0.6,0.2c0,0,0.1,0,0.1,0c0.4,0,0.8-0.2,0.8-0.4c0-0.1-0.1-0.3-0.3-0.4
							c-0.2-0.1-0.4-0.2-0.6-0.2c0,0-0.1,0-0.1,0c-0.4,0-0.8,0.2-0.8,0.4C46.6,53.2,46.7,53.3,46.9,53.4z"/>
						<path class="st0" d="M94.5,43c-1.9-0.5-5.5-1.6-9.5-2.8c-4.6-14.3-18-24.6-33.8-24.6c-15.8,0-29.2,10.4-33.8,24.7
							c-3.9,1.2-7.4,2.2-9.2,2.7c-0.2,0.1-0.7,0.3-0.6,1c0,1.4,2.2,4.8,3.2,5c0.2,0,0.3,0,0.5,0c1,0,2.6-0.4,4.6-1.1
							c-0.1,1-0.1,2.1-0.1,3.1c0,19.6,15.9,35.5,35.5,35.5c19.6,0,35.5-15.9,35.5-35.5c0-1.1-0.1-2.1-0.2-3.2
							c2.1,0.7,3.8,1.2,4.8,1.2c0.2,0,0.4,0,0.5,0c1-0.2,3.2-3.6,3.2-5C95.1,43.2,94.7,43,94.5,43z M51.2,16.5
							c15.1,0,27.9,9.7,32.6,23.3c-4.2-1.3-8.8-2.8-12.4-3.9c-3.2-1.5-7.6-5.4-11-5.4c-2.2,0-3.9,1.6-4.6,6.7
							c-0.2,1.8-0.7,3.3-1.2,4.6l0.2-4.6l0-0.2h-2.5c1.3-0.4,2.2-1.4,2.2-2.6c0-1-0.7-1.9-1.7-2.4c1.9-0.6,3.4-2.2,3.2-5
							c-0.1-1.2-1-2.7-2.9-3.6c-0.7-0.3-1.2-0.7-1.2-1.4c0-0.8,0.5-1.4,0.5-1.4s-3.7,0-3.4,3.3c0.1,0.7,0.6,1.7-0.4,1.8
							c-0.7,0.1-0.7-1-0.7-1.4c0.1-0.8-1.9,1.3-1.4,4.5c0.3,1.6,1.4,2.7,2.9,3.1c-1,0.5-1.7,1.4-1.7,2.5c0,1.2,0.9,2.2,2.2,2.6h-2.2
							l0.2,4.9c-0.6-1.2-1-2.7-1.2-4.6c-0.6-5-2.4-6.7-4.6-6.7c-3.3,0-7.8,3.8-11,5.4c-3.7,1.2-8.4,2.7-12.7,4
							C23.2,26.3,36.1,16.5,51.2,16.5z M64.4,56.1c-0.2-1.8-0.9-2.8-2.2-3.9c-1.4-1.1-3.1-1.7-5.1-1.7c-0.8,0-1.6,0.1-2.4,0.3
							l-0.3,0.1l0.2-5.3c2.8,2.4,9.3,7.9,14.2,10c-1.1,2.1-1.7,2.2-1.7,2.2l-0.1,0c-0.7,0-1.7-0.2-2.7-0.7
							C64.4,56.8,64.4,56.4,64.4,56.1z M53.5,73.8c0.8-0.3,1.6-0.6,2.1-1.1c0.7-0.6,1.1-1.4,1.2-2.3c0-2.3-2.2-3.4-3.8-3.9
							c-0.8-0.3-1.6-0.5-2.4-0.8l-0.1,0c-0.9-0.3-2-0.6-3.4-1.1c-6-2.1-8.4-4.6-8-8.4c0.1-1.4,0.7-2.4,1.9-3.4
							c1.2-1,2.7-1.4,4.6-1.4c2.9,0,4.7,1.1,4.7,2.2c0,0.4-0.3,0.8-0.5,1c-0.8,0.7-2.2,1.2-3.8,1.2c-0.1,0-0.2,0-0.3,0
							c-1,0-1.6-0.1-2.5-0.4c0,0,0,0-0.1,0l0,0c-0.7,0.1-1.1,0.6-1.2,1.3c-0.1,1.7,2.3,3.5,7.2,5.2c1.7,0.6,2.2,0.8,2.5,0.9l0.1,0
							c0.3,0.1,0.4,0.1,0.9,0.3c5.4,1.9,7.7,4,7.9,6.9c0.2,2.2-1.2,4.6-3.7,6c-0.3-0.2-1.6-1.1-3.3-1.6L53.5,73.8z M53.4,73.1
							L53.4,73.1l0.2-5.7c0.3,0.1,0.6,0.3,0.9,0.5c0.1,0.1,0.2,0.1,0.3,0.2c0.1,0.1,0.2,0.1,0.2,0.2c0.1,0.1,0.2,0.1,0.2,0.2
							c0.1,0.1,0.1,0.1,0.2,0.2c0.1,0.1,0.1,0.1,0.2,0.2c0,0.1,0.1,0.1,0.1,0.2c0.1,0.1,0.1,0.2,0.1,0.2c0,0.1,0.1,0.1,0.1,0.2
							c0,0.1,0.1,0.2,0.1,0.3c0,0.1,0,0.1,0,0.2c0,0.2,0.1,0.3,0.1,0.5c0,0.7-0.4,1.3-1,1.8c-0.1,0.1-0.3,0.2-0.5,0.3
							c-0.1,0-0.1,0.1-0.2,0.1c-0.1,0.1-0.2,0.1-0.3,0.2c-0.1,0-0.2,0.1-0.3,0.1c-0.1,0-0.1,0.1-0.2,0.1
							C53.7,73.1,53.5,73.1,53.4,73.1z M50.2,73.4l-0.2-0.1l-0.3-7.2l0.4,0.1L50.2,73.4z M49.4,73.2c-1.9-0.5-2.8-1.4-2.9-2.7
							c0-1.4,0.9-2.4,2.6-3L49.4,73.2z M38.3,57l0,0.1c-1.1,0.5-2,0.7-2.8,0.7l-0.1,0c-0.1,0-0.7-0.4-1.7-2.2
							c4.9-2.1,11.5-7.6,14.3-10l0.2,5.3l-0.3-0.1c-0.3-0.1-0.5-0.1-0.8-0.2l-0.1,0c-0.2,0-0.4-0.1-0.6-0.1l-0.2,0
							c-0.3,0-0.5,0-0.7,0c-2,0-3.7,0.6-5.1,1.7c-1.2,1-2,2.1-2.2,3.9c0,0.2,0,0.5,0,0.7C38.3,56.9,38.3,56.9,38.3,57z M26.3,52.8
							L26.3,52.8L26.3,52.8L26.3,52.8c-0.3,0-1.1-1-2.1-3c2.7-0.9,6.1-2.6,10.2-4.9c2.4-1.3,4.9-2.9,7.5-4.5l0.1,0.1
							c0.4,0.5,0.9,1.2,1.5,1.8C41.2,44.1,31,52.7,26.3,52.8L26.3,52.8z M38.1,35.5c-0.1-0.1-0.3-0.2-0.5-0.2l0,0
							c0,0-2.4,0.2-4.4,0.3l-0.1,0l0.1-0.1c0.6-0.3,1.2-0.7,1.8-1.1l0.1,0c2.4-1.5,5.1-3.2,7.1-3.2c0.8,0,3.1,0,3.9,6.1
							c0.3,2.3,0.9,4.2,1.8,5.8l0,1.5c-1.4-0.6-2.5-1.4-3.3-2.2c-1.3-1.2-2.7-3.1-2.7-3.2c-0.1-0.2-0.3-0.3-0.5-0.3c0,0-0.2,0-0.4,0
							c-1.7,0-2.3-0.1-2.5-0.2l0,0l0,0c-0.1-0.4-0.1-1.7-0.1-2.8C38.3,35.9,38.3,35.7,38.1,35.5z M37.9,39.5c0.3,0.2,1.4,0.3,3,0.3
							l0.4,0c0,0,0,0,0,0c-1.7,1.1-5.8,3.7-10.2,6c-5.3,2.7-9.2,4.1-11.5,4.1h0c-0.2,0-0.4,0-0.6,0c-0.3,0-1-0.8-1.8-2.3
							c4.5-1.7,11.2-4.8,19.9-9.1l0.6-0.3C37.6,38.9,37.8,39.4,37.9,39.5z M43.9,42.8c0,0,0.1,0.1,0.1,0.1c0.9,0.9,2.1,1.7,3.3,2.3
							c-3,2.6-12.5,10.4-16.9,10.4l-0.1,0c-0.2,0-0.8-0.6-1.8-2.5C33.5,51.5,40.9,45.4,43.9,42.8z M49.1,37.6H50l0,14.3
							c-0.2-0.1-0.4-0.3-0.6-0.4L49.1,37.6z M49.9,24.7c-0.3-1.5-0.2-2,0.1-2.6c0.6-0.9,1.4-1,1.4-1s-0.2,0.4,0,1
							c0.2,0.7,0.6,1,1,1.2c0.7,0.4,1,0.4,1.7,1.1c0.9,0.8,1.3,1.9,1.2,3.2c-0.1,1.8-1.3,2.9-2.7,3.3c0.2-0.2,0.4-0.4,0.4-0.7
							c0.2-1-0.3-1.7-0.3-1.5c0,0.2-0.3,0.5-0.6,0.5c-0.6,0-0.5-0.4-0.4-0.8c0.5-1.3-0.4-1.8-0.4-1.8s0.1,0.7-0.2,1.1
							c-0.5,0.7-1.5,0.7-1.6,1.8c-0.1,0.7,0.1,1.1,0.4,1.4c-1-0.3-1.9-0.9-2.3-1.8c-0.8-1.6,0-4.3,0.1-3.8
							C48.1,26.7,50.3,26.5,49.9,24.7z M50.4,32.2c0.1,0,0.2,0,0.2,0c-0.8,0.1-1.5,1.1-1.5,2.1c0,1,0.7,2,1.5,2.1
							c-0.1,0-0.2,0-0.2,0c-1,0-1.9-1.1-1.9-2.1C48.6,33.1,49.4,32.2,50.4,32.2z M50.1,61.5c-0.1,0-0.3-0.1-0.5-0.2l-0.1-5.8
							c0.2-0.1,0.4-0.3,0.6-0.4L50.1,61.5z M48.9,61.1C48.9,61.1,48.9,61.1,48.9,61.1c-0.8-0.3-1.5-0.6-2.1-0.8c0,0,0,0,0,0
							c-0.2-0.1-0.4-0.2-0.6-0.3c0,0,0,0,0,0c-0.2-0.1-0.4-0.2-0.6-0.3c0,0,0,0,0,0c-0.2-0.1-0.3-0.2-0.5-0.3c0,0,0,0,0,0
							c-0.2-0.1-0.3-0.2-0.4-0.3c0,0,0,0-0.1,0c-0.1-0.1-0.3-0.2-0.4-0.2c0,0,0,0-0.1,0c-0.1-0.1-0.2-0.2-0.3-0.2c0,0-0.1,0-0.1-0.1
							c-0.1-0.1-0.2-0.1-0.3-0.2c0,0-0.1-0.1-0.1-0.1c-0.1-0.1-0.1-0.1-0.2-0.2c0,0-0.1-0.1-0.1-0.1c-0.1-0.1-0.1-0.1-0.2-0.2
							c0,0-0.1-0.1-0.1-0.1c0-0.1-0.1-0.1-0.1-0.2c0,0,0-0.1-0.1-0.1c0,0,0-0.1-0.1-0.1c0-0.1,0-0.1,0-0.2c0,0,0-0.1,0-0.1
							c0-0.1,0-0.2,0-0.3c0-0.6,0.3-0.7,0.5-0.7c1,0.3,1.6,0.3,2.6,0.4c0.3,0,0.5,0,0.8,0c0.1,0,0.1,0,0.2,0c0.2,0,0.4,0,0.6-0.1
							c0,0,0.1,0,0.1,0c0.2,0,0.4-0.1,0.6-0.1c0,0,0,0,0,0c0.2-0.1,0.5-0.1,0.7-0.2L48.9,61.1z M53.9,62.8l0-1.1
							c4.7-1.7,7-3.3,6.9-5.1c0-0.8-0.5-1.2-1.1-1.3l0,0c0,0-0.1,0-0.1,0c-1,0.3-1.5,0.3-2.5,0.4c-0.1,0-0.2,0-0.3,0
							c-1.6,0-3.1-0.4-3.9-1.2c-0.2-0.2-0.5-0.6-0.5-1c0-1,1.8-2.2,4.7-2.2c1.8,0,3.3,0.5,4.5,1.5c1.1,0.9,1.8,1.8,1.9,3.4
							c0.3,3.6-1.7,6-6.8,8C56.6,64,55.5,63.4,53.9,62.8z M53.9,61l0.2-5.2c0.9,0.3,1.9,0.5,3,0.4c1,0,1.6-0.1,2.6-0.4
							c0.2,0,0.5,0.1,0.5,0.7C60.3,58,58,59.6,53.9,61z M55.3,45.2c1.4-0.7,2.5-1.7,3.2-2.3c0,0,0.1-0.1,0.1-0.1
							c3,2.6,10.4,8.7,15.4,10.4c-1.1,2.1-1.7,2.5-1.8,2.5l-0.1,0C67.8,55.6,58.3,47.8,55.3,45.2z M67.2,48.4
							c-3.4-2.4-6.6-5.1-7.9-6.2c0.6-0.6,1.2-1.4,1.5-1.8c1.4,0.9,4.2,2.7,7.5,4.5c4,2.3,7.5,3.9,10.2,4.8c-0.9,1.9-1.8,3-2.1,3
							l-0.1,0C74.4,52.7,71.3,51.3,67.2,48.4z M71.5,45.8c-4.4-2.3-8.5-4.9-10.2-6c0,0,0,0,0,0l0.4,0c1.6,0,2.6,0,3-0.3
							c0.1-0.1,0.4-0.4,0.4-1.3l0.6,0.3c4,2,13.3,6.7,19.7,9.1c-0.8,1.5-1.5,2.3-1.8,2.3c-0.2,0-0.4,0-0.6,0h0
							C80.7,49.9,76.8,48.6,71.5,45.8z M64.9,35.3c-0.2,0-0.3,0.1-0.5,0.2c-0.1,0.1-0.2,0.3-0.2,0.5c0.1,1.1,0,2.3-0.1,2.8l0,0l0,0
							c-0.2,0-0.8,0.2-2.5,0.2c-0.2,0-0.4,0-0.4,0c-0.2,0-0.4,0.1-0.5,0.3c-0.1,0.1-1.4,1.9-2.7,3.2c-0.8,0.8-2,1.6-3.3,2.2l0-1.5
							c1-1.7,1.6-3.5,1.8-5.8c0.8-6.1,3.1-6.1,3.9-6.1c2,0,4.7,1.7,7.1,3.2l0.1,0c0.6,0.4,1.2,0.8,1.8,1.1l0.1,0.1l-0.1,0
							C67.3,35.5,65,35.4,64.9,35.3L64.9,35.3z M11.3,48.4L11.3,48.4c-0.2,0-0.3,0-0.4,0c-0.6-0.1-2.7-3.1-2.7-4.4
							c0-0.3,0.1-0.3,0.2-0.3c3-0.8,10.8-3.2,23.3-7.2c0.1,0,0.1,0,0.2,0c1.4,0,4.3-0.2,5.5-0.3l0.2,0c0,0.3,0,0.8,0,1.2l-1,0.5
							C30.7,40.7,15.4,48.4,11.3,48.4z M16.7,51c0-0.9,0-1.8,0.1-2.7c0.5,1,1.3,2.1,2,2.2c0.2,0,0.5,0,0.7,0c0,0,0,0,0,0
							c1.1,0,2.4-0.3,3.9-0.8c0.6,1.3,1.8,3.5,2.7,3.6l0.1,0h0c0.5,0,0.9-0.1,1.5-0.2c0.6,1.3,1.7,3.1,2.5,3.1l0.1,0h0
							c0.8,0,1.7-0.2,2.7-0.6c0.7,1.2,1.6,2.7,2.3,2.7l0.1,0h0c0.9,0,1.9-0.3,3-0.7c0,0,0,0,0,0.1c0,0.1,0,0.2,0.1,0.4
							c0,0.1,0,0.2,0.1,0.3c0,0.1,0.1,0.2,0.1,0.3c0,0.1,0.1,0.2,0.1,0.3c0,0.1,0.1,0.2,0.1,0.3c0,0.1,0.1,0.2,0.2,0.3
							c0,0.1,0.1,0.2,0.1,0.2c0.1,0.1,0.1,0.2,0.2,0.4c0,0.1,0.1,0.1,0.1,0.2c0.1,0.1,0.2,0.3,0.3,0.4c0,0,0,0.1,0.1,0.1
							c0.7,0.8,1.6,1.6,2.8,2.3c0,0,0,0,0,0c0.2,0.1,0.5,0.3,0.7,0.4c0,0,0,0,0,0c0.3,0.1,0.5,0.3,0.8,0.4c0,0,0,0,0,0
							c0.3,0.1,0.6,0.3,0.9,0.4c-0.3,0.1-0.5,0.2-0.7,0.4c-1.7,1.1-2.8,2.9-2.9,5c-0.2,2.8,1.2,5.2,3.8,6.7c-0.6,0.7-1,1.5-1.3,2.2
							c-0.6,1.5-0.7,4.4,0.5,6.1C28.7,81.8,16.7,67.8,16.7,51z M45.5,84.9c-0.8-0.8-1.1-2-1.2-2.9c-0.1-1.1,0.1-2.2,0.4-3
							c0.3-0.9,0.7-1.5,1.2-2c0.3,0.1,1.4,0.6,2.1,0.8c0.7,0.2,1.2,0.3,1.5,0.3l0.1,0l-0.1,0.1c-1.3,0.9-1.7,2.4-1.7,3.5
							c0.1,1.5,0.8,2.8,1.8,3.6C47.4,85.3,45.7,85,45.5,84.9z M48.4,81.8c0-0.2,0-1.8,1.2-2.8l0.2,5.7
							C49.1,84.1,48.5,83.1,48.4,81.8z M53,84.6l0.2-5.4c0.9,0.7,1.1,1.8,1.1,2.5C54.2,83.1,53.7,84,53,84.6z M53.3,85.4
							c0.9-0.8,1.6-2.1,1.6-3.6c0-1.1-0.4-2.6-1.9-3.4c-0.3-0.2-0.7-0.3-1-0.4c-0.1,0-0.8-0.2-1.7-0.4c-0.7-0.1-1-0.2-1.2-0.2
							l-0.2-0.1c-4.4-0.9-7-3.8-6.7-7.3c0.1-1.1,0.5-3.2,2.7-4.5c0.1,0,0.1-0.1,0.2-0.1c0.1-0.1,0.2-0.2,0.7-0.4
							c1,0.4,2.1,0.8,3.1,1.1l0,0.8c-2.1,0.7-3.1,1.9-3.1,3.7c0.1,2.7,3,3.3,3.9,3.5c0.2,0,0.5,0.1,0.8,0.2l0.1,0
							c0.3,0.1,0.6,0.2,0.9,0.2c0.4,0.1,0.6,0.2,0.8,0.2c0.2,0.1,0.3,0.1,0.5,0.2c3.8,1.3,4.7,2.8,5.2,4.2c0.6,1.4,0.6,4.3-0.7,5.8
							C56.2,85.1,54.9,85.3,53.3,85.4z M58.3,84.8c1.1-1.7,1.1-4.4,0.4-6c-0.3-0.7-0.7-1.5-1.4-2.3c0.3-0.2,0.6-0.4,0.8-0.6
							c0,0,0.1-0.1,0.1-0.1c0.5-0.4,1-0.9,1.4-1.4c0,0,0-0.1,0.1-0.1c0.2-0.2,0.3-0.4,0.5-0.7c0-0.1,0.1-0.1,0.1-0.2
							c0.1-0.2,0.3-0.5,0.4-0.8c0,0,0,0,0,0c0.1-0.3,0.2-0.5,0.3-0.8c0-0.1,0-0.1,0-0.2c0-0.2,0.1-0.4,0.1-0.7c0-0.1,0-0.2,0-0.2
							c0-0.3,0-0.6,0-0.9c0-0.2-0.1-0.5-0.1-0.7c0-0.1,0-0.1,0-0.2c0-0.2-0.1-0.4-0.1-0.5c0-0.1,0-0.1-0.1-0.2
							c-0.2-0.5-0.4-0.9-0.7-1.3c0,0,0-0.1-0.1-0.1c-0.1-0.2-0.3-0.4-0.5-0.6c0,0,0,0,0-0.1c-0.6-0.6-1.3-1.2-2.2-1.8
							c4.3-1.8,6.4-3.9,6.8-6.8c1.1,0.4,2,0.7,2.9,0.7h0l0.1,0c0.7,0,1.7-1.5,2.3-2.7c1,0.4,1.9,0.6,2.7,0.6h0l0.1,0
							c0.8,0,1.9-1.8,2.5-3.1c0.5,0.1,1,0.2,1.5,0.2h0l0.1,0c0.9,0,2.1-2.3,2.7-3.6c1.5,0.5,2.8,0.8,3.9,0.8c0,0,0,0,0,0
							c0.3,0,0.5,0,0.7,0c0.6-0.1,1.3-1,1.8-1.9c0.1,0.8,0.1,1.5,0.1,2.3C85.7,67.6,73.9,81.5,58.3,84.8z M91.8,48.3
							c-0.1,0-0.2,0-0.4,0h0c-4.1,0-19.5-7.7-25.3-10.6l-1-0.5c0-0.4,0-0.9,0-1.2l0.2,0c1.2,0.1,4,0.3,5.5,0.3c0.1,0,0.2,0,0.2,0
							c12.5,4,20.3,6.4,23.3,7.2c0,0,0.2,0,0.2,0.3C94.4,45.2,92.4,48.2,91.8,48.3z"/>
						<path class="st0" d="M55.3,52.6c0,0-0.1,0-0.1,0c-0.2,0-0.4,0.1-0.6,0.2c-0.2,0.1-0.3,0.3-0.3,0.4c0,0.2,0.4,0.4,0.8,0.4
							c0,0,0.1,0,0.1,0c0.2,0,0.4-0.1,0.6-0.2c0.2-0.1,0.3-0.2,0.3-0.4C56.1,52.8,55.7,52.6,55.3,52.6z"/>
					</g>
					<path class="st0" d="M47.6,53.6c0,0-0.1,0-0.1,0c-0.2,0-0.4-0.1-0.6-0.2c-0.2-0.1-0.3-0.3-0.3-0.4c0-0.2,0.4-0.4,0.8-0.4
						c0,0,0.1,0,0.1,0c0.2,0,0.4,0.1,0.6,0.2c0.2,0.1,0.3,0.3,0.3,0.4C48.4,53.4,48,53.6,47.6,53.6z"/>
					<path class="st0" d="M55.1,53.6c-0.4,0-0.8-0.2-0.8-0.4c0-0.1,0.1-0.3,0.3-0.4c0.2-0.1,0.4-0.2,0.6-0.2c0,0,0.1,0,0.1,0
						c0.4,0,0.8,0.2,0.8,0.4c0,0.1-0.1,0.3-0.3,0.4c-0.2,0.1-0.4,0.2-0.6,0.2C55.2,53.6,55.1,53.6,55.1,53.6z"/>
					<g>
						<path class="st0" d="M20.7,19.8l0.8-0.7l4.8,1.5l0,0l-2.8-3.2l0.7-0.6l3.8,4.3l-0.8,0.7l-4.7-1.5l0,0l2.8,3.2l-0.7,0.6
							L20.7,19.8z"/>
						<path class="st0" d="M25.7,15.7l3.5-2.3l0.5,0.7L27,15.9l0.8,1.3l2.4-1.6l0.4,0.7l-2.4,1.6l0.9,1.4l2.7-1.7l0.5,0.7l-3.5,2.3
							L25.7,15.7z"/>
						<path class="st0" d="M30.1,12.8l0.9-0.4l2.7,3.6l0,0L33,11.5l0.9-0.4l2.8,3.6l0,0L36,10.2l0.9-0.4l0.9,5.9l-0.9,0.4L34,12.6
							l0,0l0.7,4.5l-0.9,0.4L30.1,12.8z"/>
						<path class="st0" d="M42.8,12L40,9l1.1-0.2l2,2.2l1-2.8l1.1-0.2l-1.4,3.8l0.4,2.2l-1,0.2L42.8,12z"/>
						<path class="st0" d="M51.1,10.4c0.1,1.6-0.8,3.1-2.5,3.2c-1.7,0.1-2.8-1.2-2.9-2.8c-0.1-1.6,0.8-3.1,2.5-3.2
							C49.9,7.5,51,8.8,51.1,10.4z M46.6,10.7c0.1,1.1,0.7,2.1,1.9,2.1c1.2-0.1,1.7-1.2,1.6-2.3c-0.1-1.1-0.7-2.1-1.9-2.1
							C47,8.5,46.6,9.6,46.6,10.7z M22.2,78.1c0.5-0.4,0.3-0.9,0-1.2l-1-1.1L20,76.9l1,1.1C21.4,78.5,21.8,78.5,22.2,78.1z
							 M16.4,73.3l0.9,1.3l1.4-1.9l0,0L16.4,73.3z M13.2,59.5L13,58.6l-3.7,0.8l0.2,0.9c0.3,1.4,1.2,1.5,2.2,1.3
							C12.8,61.4,13.6,60.9,13.2,59.5z M16.6,70.5c0.6-0.3,0.6-0.8,0.4-1.2l-0.6-1.2l-1.6,0.8l0.6,1.2C15.6,70.4,16,70.8,16.6,70.5z
							 M83,77.3l-2.3-0.9l0,0l1.2,2.1L83,77.3z M89.5,64.9c-1-0.4-2.1-0.3-2.5,0.7c-0.4,1.1,0.3,1.9,1.3,2.3c1,0.4,2.1,0.3,2.5-0.7
							C91.2,66.1,90.5,65.3,89.5,64.9z M8.9,60.9l-0.5-2.1l5.2-1.2l0.5,2.1c0.4,1.6-0.6,2.5-2.1,2.9C10.6,62.9,9.3,62.4,8.9,60.9z
							 M9.9,64.4l5-1.8l1.3,3.6l-0.8,0.3l-1-2.7l-1.3,0.5l0.9,2.5L13.3,67l-0.9-2.5L10.9,65l1,2.8L11.2,68L9.9,64.4z M11.9,69.3
							l4.7-2.4l1.1,2.1c0.7,1.3,0,2-0.6,2.4c-0.6,0.3-1.6,0.5-2.3-0.9l-0.6-1.3l-1.8,0.9L11.9,69.3z M16,76.4l0.9-1.2l-1.2-1.8
							l-1.4,0.4l-0.5-0.8l5.5-1.3l0.5,0.8l-3.3,4.6L16,76.4z M21,80.3c-0.5,0.4-0.8,0.8-0.9,1.1l-0.7-0.7c0.1-0.3,0.3-0.4,0.5-0.6
							c0.7-0.6,0.9-1.1,0.4-1.7l-0.9-1l-1.6,1.4l-0.6-0.7l4-3.5l1.7,1.9c0.8,0.9,0.8,1.7,0.1,2.3c-0.8,0.7-1.4,0.3-1.6,0.2l0,0
							C21.5,79.3,21.6,79.8,21,80.3z M21.8,83l3-3.3l-1.2-1.1l0.5-0.6l3.2,2.9l-0.5,0.6l-1.3-1.1l-3,3.3L21.8,83z M28.6,88.2
							l2.3-3.4l0,0l-3.5,2.6l-0.6-0.4l1.1-4.2l0,0l-2.3,3.4l-0.7-0.5l3-4.4l1.1,0.7l-1.1,4.3l0,0l3.5-2.6l1.1,0.7l-3,4.4L28.6,88.2z
							 M35,88.8l-2.4-1.2L31.9,89l2.6,1.3L34.2,91l-3.5-1.7l2.3-4.8l3.4,1.7L36.1,87l-2.6-1.3L32.9,87l2.4,1.2L35,88.8z M39.5,92.9
							l-0.9-0.3l-1-4.5l0,0l-1.2,3.7l-0.8-0.3l1.7-5l0.9,0.3l1.1,4.5l0,0l1.2-3.7l0.8,0.3L39.5,92.9z M45.6,89.6L44,89.3l-0.9,4.4
							l-0.9-0.2l0.9-4.4l-1.6-0.3l0.2-0.8l4.2,0.8L45.6,89.6z M50,94.3c-1.4,0-2.2-1.2-2.2-2.5c0-1.3,0.9-2.4,2.3-2.4
							c1.4,0,2.2,1.2,2.2,2.5C52.3,93.3,51.4,94.4,50,94.3z M54,91.3l2.1-0.1l0,0.7L54.1,92l0.1,2.1l-0.8,0.1l-0.3-4.7l3.2-0.2
							l0,0.7L54,90.1L54,91.3z M62.5,93.1c-1.2,0.3-2.3,0-2.7-1.3l0.9-0.2c0.2,0.8,0.9,1,1.6,0.8c0.8-0.2,1-0.7,0.9-1.1
							c-0.1-0.4-0.4-0.5-0.6-0.5c-0.4,0-0.9,0-1.7,0c-1,0-1.4-0.5-1.5-1c-0.3-1,0.6-1.8,1.5-2.1c1.1-0.3,2.2,0,2.5,1.1L62.5,89
							c-0.2-0.7-0.7-0.8-1.4-0.6c-0.4,0.1-0.9,0.4-0.8,0.9c0.1,0.4,0.4,0.5,0.8,0.5c0.1,0,1.3,0,1.6,0c0.7,0,1.2,0.5,1.4,1.1
							C64.5,92,63.6,92.8,62.5,93.1z M69.5,90.4l-1-1.1l-2,0.8l0.1,1.5L65.7,92l-0.2-5.8l0.9-0.4l4,4.2L69.5,90.4z M74.6,87.6
							l-4.2-2.1l0,0l2.1,3.4l-0.8,0.5l-2.8-4.6l0.9-0.5l4.2,2.1l0,0l-2.1-3.4l0.8-0.5l2.8,4.6L74.6,87.6z M77.1,85.9l-3.3-4.3
							l0.8-0.6l3.3,4.3L77.1,85.9z M80.3,83.2l-3.1-3.4L75.9,81l-0.6-0.6l3.2-3l0.6,0.6l-1.3,1.2l3.1,3.4L80.3,83.2z M85.1,78.1
							l-1.4-0.6l-1.4,1.6l0.8,1.3l-0.6,0.7l-2.7-5.1l0.7-0.8l5.5,2L85.1,78.1z M86.9,75.8L83,73.2l-1,1.4l-0.7-0.5l2.5-3.6l0.7,0.5
							l-1,1.4l3.8,2.6L86.9,75.8z M89.1,72.2l-4.8-2.6l0.5-0.8l4.8,2.6L89.1,72.2z M91.5,67.5c-0.6,1.5-2.2,1.9-3.6,1.3
							c-1.4-0.6-2.3-2-1.6-3.5c0.6-1.5,2.2-1.9,3.6-1.3C91.3,64.6,92.1,66,91.5,67.5z M93.7,60l-4.4,1.5l0,0l3.9,0.9l-0.2,0.9
							l-5.3-1.3l0.2-1l4.5-1.5l0,0l-3.9-0.9l0.2-0.9l5.3,1.3L93.7,60z M66.3,86.9l0.2,2.5l1.5-0.6L66.3,86.9L66.3,86.9z M50.2,90.1
							c-1,0-1.5,0.8-1.5,1.7c0,0.9,0.4,1.8,1.4,1.8c1,0,1.5-0.8,1.5-1.7C51.5,91,51.2,90.1,50.2,90.1z"/>
						<path class="st0" d="M52.7,7.6l2.7,0.2c1.3,0.1,1.9,0.7,1.8,1.7c-0.1,1.1-0.9,1.3-1.1,1.4l0,0c0.3,0.1,0.8,0.4,0.8,1.3
							c0,0.7,0,1.3,0.2,1.5L56,13.6c-0.1-0.3-0.1-0.6-0.1-0.9c0.1-1.1-0.1-1.5-1-1.6l-1.5-0.1l-0.2,2.4l-1-0.1L52.7,7.6z M53.5,10.3
							l1.6,0.1c0.6,0,1-0.2,1-0.8c0.1-0.7-0.4-0.9-0.9-0.9l-1.6-0.1L53.5,10.3z"/>
						<path class="st0" d="M59.7,8.4l1,0.2L60,11.2l3.1-1.9l1.2,0.3l-2.8,1.7l1.5,3.9l-1.2-0.3l-1.2-3.1l-1,0.6l-0.5,1.9l-1-0.2
							L59.7,8.4z"/>
						<path class="st0" d="M70.8,14.3c0.1-0.7,0-1.3-0.8-1.7c-1.1-0.5-2,0.2-2.5,1.2c-0.5,1-0.5,2.2,0.6,2.7c0.8,0.4,1.5,0,2-0.7
							l0.9,0.4c-0.7,1.2-2,1.6-3.2,1c-1.5-0.8-1.9-2.4-1.2-3.9c0.7-1.5,2.2-2.3,3.8-1.5c1.2,0.6,1.8,1.7,1.3,2.8L70.8,14.3z"/>
						<path class="st0" d="M73.7,13.9l0.9,0.5l-3,4.9l-0.9-0.5L73.7,13.9z"/>
						<path class="st0" d="M75.5,15l3.7,2.8l-0.5,0.7l-1.5-1.1l-2.9,3.9l-0.8-0.6l2.9-3.9L75,15.6L75.5,15z"/>
						<path class="st0" d="M78.8,22.1l0.9-4l0.8,0.8l-0.7,2.9l2.9-0.8l0.8,0.8l-4,1l-1.6,1.6l-0.7-0.7L78.8,22.1z"/>
					</g>
				</g>
				<path class="st2" d="M51.2,16.5c15.1,0,27.9,9.7,32.6,23.3c-4.2-1.3-8.8-2.8-12.4-3.9c-3.2-1.5-7.6-5.4-11-5.4
					c-2.2,0-3.9,1.6-4.6,6.7c-0.2,1.8-0.7,3.3-1.2,4.6l0.2-4.6l0-0.2h-2.5c1.3-0.4,2.2-1.4,2.2-2.6c0-1-0.7-1.9-1.7-2.4
					c1.9-0.6,3.4-2.2,3.2-5c-0.1-1.2-1-2.7-2.9-3.6c-0.7-0.3-1.2-0.7-1.2-1.4c0-0.8,0.5-1.4,0.5-1.4s-3.7,0-3.4,3.3
					c0.1,0.7,0.6,1.7-0.4,1.8c-0.7,0.1-0.7-1-0.7-1.4c0.1-0.8-1.9,1.3-1.4,4.5c0.3,1.6,1.4,2.7,2.9,3.1c-1,0.5-1.7,1.4-1.7,2.5
					c0,1.2,0.9,2.2,2.2,2.6h-2.2l0.2,4.9c-0.6-1.2-1-2.7-1.2-4.6c-0.6-5-2.4-6.7-4.6-6.7c-3.3,0-7.8,3.8-11,5.4
					c-3.7,1.2-8.4,2.7-12.7,4C23.2,26.3,36.1,16.5,51.2,16.5z M48.9,61.1c-0.8-0.3-1.5-0.6-2.1-0.8c0,0,0,0,0,0
					c-0.2-0.1-0.4-0.2-0.6-0.3c0,0,0,0,0,0c-0.2-0.1-0.4-0.2-0.6-0.3c0,0,0,0,0,0c-0.2-0.1-0.3-0.2-0.5-0.3c0,0,0,0,0,0
					c-0.2-0.1-0.3-0.2-0.4-0.3c0,0,0,0-0.1,0c-0.1-0.1-0.3-0.2-0.4-0.2c0,0,0,0-0.1,0c-0.1-0.1-0.2-0.2-0.3-0.2c0,0-0.1,0-0.1-0.1
					c-0.1-0.1-0.2-0.1-0.3-0.2c0,0-0.1-0.1-0.1-0.1c-0.1-0.1-0.1-0.1-0.2-0.2c0,0-0.1-0.1-0.1-0.1c-0.1-0.1-0.1-0.1-0.2-0.2
					c0,0-0.1-0.1-0.1-0.1c0-0.1-0.1-0.1-0.1-0.2c0,0,0-0.1-0.1-0.1c0,0,0-0.1-0.1-0.1c0-0.1,0-0.1,0-0.2c0,0,0-0.1,0-0.1
					c0-0.1,0-0.2,0-0.3c0-0.6,0.3-0.7,0.5-0.7c1,0.3,1.6,0.3,2.6,0.4c0.3,0,0.5,0,0.8,0c0.1,0,0.1,0,0.2,0c0.2,0,0.4,0,0.6-0.1
					c0,0,0.1,0,0.1,0c0.2,0,0.4-0.1,0.6-0.1c0,0,0,0,0,0c0.2-0.1,0.5-0.1,0.7-0.2L48.9,61.1C48.9,61.1,48.9,61.1,48.9,61.1z
					 M49.1,67.4l0.2,5.8c-1.9-0.5-2.8-1.4-2.9-2.7C46.5,69,47.4,68,49.1,67.4z M49.6,79l0.2,5.7c-0.7-0.6-1.4-1.7-1.4-3
					C48.4,81.5,48.4,79.9,49.6,79z M53,84.6l0.2-5.4c0.9,0.7,1.1,1.8,1.1,2.5C54.2,83.1,53.7,84,53,84.6z M53.4,73.1l0.2-5.7
					c0.3,0.1,0.6,0.3,0.9,0.5c0.1,0.1,0.2,0.1,0.3,0.2c0.1,0.1,0.2,0.1,0.2,0.2c0.1,0.1,0.2,0.1,0.2,0.2c0.1,0.1,0.1,0.1,0.2,0.2
					c0.1,0.1,0.1,0.1,0.2,0.2c0,0.1,0.1,0.1,0.1,0.2c0.1,0.1,0.1,0.2,0.1,0.2c0,0.1,0.1,0.1,0.1,0.2c0,0.1,0.1,0.2,0.1,0.3
					c0,0.1,0,0.1,0,0.2c0,0.2,0.1,0.3,0.1,0.5c0,0.7-0.4,1.3-1,1.8c-0.1,0.1-0.3,0.2-0.5,0.3c-0.1,0-0.1,0.1-0.2,0.1
					c-0.1,0.1-0.2,0.1-0.3,0.2c-0.1,0-0.2,0.1-0.3,0.1c-0.1,0-0.1,0.1-0.2,0.1C53.7,73.1,53.5,73.1,53.4,73.1L53.4,73.1z M53.9,61
					l0.2-5.2c0.9,0.3,1.9,0.5,3,0.4c1,0,1.6-0.1,2.6-0.4c0.2,0,0.5,0.1,0.5,0.7C60.3,58,58,59.6,53.9,61z M16.7,51
					c0-0.9,0-1.8,0.1-2.7c0.5,1,1.3,2.1,2,2.2c0.2,0,0.5,0,0.7,0c0,0,0,0,0,0c1.1,0,2.4-0.3,3.9-0.8c0.6,1.3,1.8,3.5,2.7,3.6l0.1,0
					h0c0.5,0,0.9-0.1,1.5-0.2c0.6,1.3,1.7,3.1,2.5,3.1l0.1,0h0c0.8,0,1.7-0.2,2.7-0.6c0.7,1.2,1.6,2.7,2.3,2.7l0.1,0h0
					c0.9,0,1.9-0.3,3-0.7c0,0,0,0,0,0.1c0,0.1,0,0.2,0.1,0.4c0,0.1,0,0.2,0.1,0.3c0,0.1,0.1,0.2,0.1,0.3c0,0.1,0.1,0.2,0.1,0.3
					c0,0.1,0.1,0.2,0.1,0.3c0,0.1,0.1,0.2,0.2,0.3c0,0.1,0.1,0.2,0.1,0.2c0.1,0.1,0.1,0.2,0.2,0.4c0,0.1,0.1,0.1,0.1,0.2
					c0.1,0.1,0.2,0.3,0.3,0.4c0,0,0,0.1,0.1,0.1c0.7,0.8,1.6,1.6,2.8,2.3c0,0,0,0,0,0c0.2,0.1,0.5,0.3,0.7,0.4c0,0,0,0,0,0
					c0.3,0.1,0.5,0.3,0.8,0.4c0,0,0,0,0,0c0.3,0.1,0.6,0.3,0.9,0.4c-0.3,0.1-0.5,0.2-0.7,0.4c-1.7,1.1-2.8,2.9-2.9,5
					c-0.2,2.8,1.2,5.2,3.8,6.7c-0.6,0.7-1,1.5-1.3,2.2c-0.6,1.5-0.7,4.4,0.5,6.1C28.7,81.8,16.7,67.8,16.7,51z M58.3,84.8
					c1.1-1.7,1.1-4.4,0.4-6c-0.3-0.7-0.7-1.5-1.4-2.3c0.3-0.2,0.6-0.4,0.8-0.6c0,0,0.1-0.1,0.1-0.1c0.5-0.4,1-0.9,1.4-1.4
					c0,0,0-0.1,0.1-0.1c0.2-0.2,0.3-0.4,0.5-0.7c0-0.1,0.1-0.1,0.1-0.2c0.1-0.2,0.3-0.5,0.4-0.8c0,0,0,0,0,0
					c0.1-0.3,0.2-0.5,0.3-0.8c0-0.1,0-0.1,0-0.2c0-0.2,0.1-0.4,0.1-0.7c0-0.1,0-0.2,0-0.2c0-0.3,0-0.6,0-0.9c0-0.2-0.1-0.5-0.1-0.7
					c0-0.1,0-0.1,0-0.2c0-0.2-0.1-0.4-0.1-0.5c0-0.1,0-0.1-0.1-0.2c-0.2-0.5-0.4-0.9-0.7-1.3c0,0,0-0.1-0.1-0.1
					c-0.1-0.2-0.3-0.4-0.5-0.6c0,0,0,0,0-0.1c-0.6-0.6-1.3-1.2-2.2-1.8c4.3-1.8,6.4-3.9,6.8-6.8c1.1,0.4,2,0.7,2.9,0.7h0l0.1,0
					c0.7,0,1.7-1.5,2.3-2.7c1,0.4,1.9,0.6,2.7,0.6h0l0.1,0c0.8,0,1.9-1.8,2.5-3.1c0.5,0.1,1,0.2,1.5,0.2h0l0.1,0
					c0.9,0,2.1-2.3,2.7-3.6c1.5,0.5,2.8,0.8,3.9,0.8c0,0,0,0,0,0c0.3,0,0.5,0,0.7,0c0.6-0.1,1.3-1,1.8-1.9c0.1,0.8,0.1,1.5,0.1,2.3
					C85.7,67.6,73.9,81.5,58.3,84.8z"/>
			</g>
		</g>
		<path class="st3" d="M49.6,85.4c-2.2-0.1-3.8-0.4-4.1-0.4c-0.8-0.8-1.1-2-1.2-2.9c-0.1-1.1,0.1-2.2,0.4-3c0.3-0.9,0.7-1.5,1.2-2
			c0.3,0.1,1.4,0.6,2.1,0.8c0.7,0.2,1.2,0.3,1.5,0.3l0.1,0l-0.1,0.1c-1.3,0.9-1.7,2.4-1.7,3.5C47.9,83.2,48.5,84.6,49.6,85.4z
			 M53.3,85.4c0.9-0.8,1.6-2.1,1.6-3.6c0-1.1-0.4-2.6-1.9-3.4c-0.3-0.2-0.7-0.3-1-0.4c-0.1,0-0.8-0.2-1.7-0.4
			c-0.7-0.1-1-0.2-1.2-0.2l-0.2-0.1c-4.4-0.9-7-3.8-6.7-7.3c0.1-1.1,0.5-3.2,2.7-4.5c0.1,0,0.1-0.1,0.2-0.1c0.1-0.1,0.2-0.2,0.7-0.4
			c1,0.4,2.1,0.8,3.1,1.1l0,0.8c-2.1,0.7-3.1,1.9-3.1,3.7c0.1,2.7,3,3.3,3.9,3.5c0.2,0,0.5,0.1,0.8,0.2l0.1,0
			c0.3,0.1,0.6,0.2,0.9,0.2c0.4,0.1,0.6,0.2,0.8,0.2c0.2,0.1,0.3,0.1,0.5,0.2c3.8,1.3,4.7,2.8,5.2,4.2c0.6,1.4,0.6,4.3-0.7,5.8
			C56.2,85.1,54.9,85.3,53.3,85.4z M56.8,76c-0.3-0.2-1.6-1.1-3.3-1.6l0-0.6c0.8-0.3,1.6-0.6,2.1-1.1c0.7-0.6,1.1-1.4,1.2-2.3
			c0-2.3-2.2-3.4-3.8-3.9c-0.8-0.3-1.6-0.5-2.4-0.8l-0.1,0c-0.9-0.3-2-0.6-3.4-1.1c-6-2.1-8.4-4.6-8-8.4c0.1-1.4,0.7-2.4,1.9-3.4
			c1.2-1,2.7-1.4,4.6-1.4c2.9,0,4.7,1.1,4.7,2.2c0,0.4-0.3,0.8-0.5,1c-0.8,0.7-2.2,1.2-3.8,1.2c-0.1,0-0.2,0-0.3,0
			c-1,0-1.6-0.1-2.5-0.4c0,0,0,0-0.1,0l0,0c-0.7,0.1-1.1,0.6-1.2,1.3c-0.1,1.7,2.3,3.5,7.2,5.2c1.7,0.6,2.2,0.8,2.5,0.9l0.1,0
			c0.3,0.1,0.4,0.1,0.9,0.3c5.4,1.9,7.7,4,7.9,6.9C60.7,72.2,59.3,74.5,56.8,76z M47.4,52.6c-0.4,0-0.8,0.2-0.8,0.4
			c0,0.1,0.1,0.3,0.3,0.4c0.2,0.1,0.4,0.2,0.6,0.2c0,0,0.1,0,0.1,0c0.4,0,0.8-0.2,0.8-0.4c0-0.1-0.1-0.3-0.3-0.4
			c-0.2-0.1-0.4-0.2-0.6-0.2C47.5,52.6,47.5,52.6,47.4,52.6z M56.8,64.1c-0.2-0.1-1.3-0.7-2.8-1.3l0-1.1c4.7-1.7,7-3.3,6.9-5.1
			c0-0.8-0.5-1.2-1.1-1.3l0,0c0,0-0.1,0-0.1,0c-1,0.3-1.5,0.3-2.5,0.4c-0.1,0-0.2,0-0.3,0c-1.6,0-3.1-0.4-3.9-1.2
			c-0.2-0.2-0.5-0.6-0.5-1c0-1,1.8-2.2,4.7-2.2c1.8,0,3.3,0.5,4.5,1.5c1.1,0.9,1.8,1.8,1.9,3.4C63.9,59.7,61.9,62.1,56.8,64.1z
			 M55.3,52.6c0,0-0.1,0-0.1,0c-0.2,0-0.4,0.1-0.6,0.2c-0.2,0.1-0.3,0.3-0.3,0.4c0,0.2,0.4,0.4,0.8,0.4c0,0,0.1,0,0.1,0
			c0.2,0,0.4-0.1,0.6-0.2c0.2-0.1,0.3-0.2,0.3-0.4C56.1,52.8,55.7,52.6,55.3,52.6z M67.1,57.8c-0.7,0-1.7-0.2-2.7-0.7
			c0-0.4,0-0.7,0-1.1c-0.2-1.8-0.9-2.8-2.2-3.9c-1.4-1.1-3.1-1.7-5.1-1.7c-0.8,0-1.6,0.1-2.4,0.3l-0.3,0.1l0.2-5.3
			c2.8,2.4,9.3,7.9,14.2,10C67.7,57.6,67.2,57.8,67.1,57.8L67.1,57.8z M35.4,57.8c-0.1,0-0.7-0.4-1.7-2.2c4.9-2.1,11.5-7.6,14.3-10
			l0.2,5.3l-0.3-0.1c-0.3-0.1-0.5-0.1-0.8-0.2l-0.1,0c-0.2,0-0.4-0.1-0.6-0.1l-0.2,0c-0.3,0-0.5,0-0.7,0c-2,0-3.7,0.6-5.1,1.7
			c-1.2,1-2,2.1-2.2,3.9c0,0.2,0,0.5,0,0.7c0,0.1,0,0.1,0,0.2l0,0.1C37.2,57.6,36.3,57.8,35.4,57.8L35.4,57.8z M72.2,55.6
			c-4.5,0-13.9-7.9-16.9-10.4c1.4-0.7,2.5-1.7,3.2-2.3c0,0,0.1-0.1,0.1-0.1c3,2.6,10.4,8.7,15.4,10.4C73,55.2,72.4,55.6,72.2,55.6
			L72.2,55.6z M50.2,73.4l-0.2-0.1l-0.3-7.2l0.4,0.1L50.2,73.4z M49.1,37.6H50l0,14.3c-0.2-0.1-0.4-0.3-0.6-0.4L49.1,37.6z
			 M50.1,61.5c-0.1,0-0.3-0.1-0.5-0.2l-0.1-5.8c0.2-0.1,0.4-0.3,0.6-0.4L50.1,61.5z M50.4,32.2c0.1,0,0.2,0,0.2,0
			c-0.8,0.1-1.5,1.1-1.5,2.1c0,1,0.7,2,1.5,2.1c-0.1,0-0.2,0-0.2,0c-1,0-1.9-1.1-1.9-2.1C48.6,33.1,49.4,32.2,50.4,32.2z M49.9,24.7
			c-0.3-1.5-0.2-2,0.1-2.6c0.6-0.9,1.4-1,1.4-1s-0.2,0.4,0,1c0.2,0.7,0.6,1,1,1.2c0.7,0.4,1,0.4,1.7,1.1c0.9,0.8,1.3,1.9,1.2,3.2
			c-0.1,1.8-1.3,2.9-2.7,3.3c0.2-0.2,0.4-0.4,0.4-0.7c0.2-1-0.3-1.7-0.3-1.5c0,0.2-0.3,0.5-0.6,0.5c-0.6,0-0.5-0.4-0.4-0.8
			c0.5-1.3-0.4-1.8-0.4-1.8s0.1,0.7-0.2,1.1c-0.5,0.7-1.5,0.7-1.6,1.8c-0.1,0.7,0.1,1.1,0.4,1.4c-1-0.3-1.9-0.9-2.3-1.8
			c-0.8-1.6,0-4.3,0.1-3.8C48.1,26.7,50.3,26.5,49.9,24.7z M30.3,55.6c-0.2,0-0.8-0.6-1.8-2.5c5-1.6,12.4-7.7,15.4-10.4
			c0,0,0.1,0.1,0.1,0.1c0.9,0.9,2.1,1.7,3.3,2.3C44.3,47.8,34.9,55.6,30.3,55.6L30.3,55.6z M26.2,52.7c-0.3,0-1-1-2-3
			c2.7-0.9,6.1-2.6,10.2-4.9c2.4-1.3,4.9-2.9,7.5-4.5l0.1,0.1c0.4,0.5,0.9,1.2,1.5,1.8C41.2,44.1,31,52.8,26.2,52.7L26.2,52.7
			L26.2,52.7z M76.3,52.8c-1.9,0-5-1.4-9.1-4.3c-3.4-2.4-6.6-5.1-7.9-6.2c0.6-0.6,1.2-1.4,1.5-1.8c1.4,0.9,4.2,2.7,7.5,4.5
			c4,2.3,7.5,3.9,10.2,4.8C77.5,51.6,76.7,52.7,76.3,52.8L76.3,52.8z M83,49.9c-2.4,0-6.2-1.4-11.5-4.1c-4.4-2.3-8.5-4.9-10.2-6
			c0,0,0,0,0,0l0.4,0c1.6,0,2.6,0,3-0.3c0.1-0.1,0.4-0.4,0.4-1.3l0.6,0.3c4,2,13.3,6.7,19.7,9.1c-0.8,1.5-1.5,2.3-1.8,2.3
			C83.5,49.9,83.3,49.9,83,49.9L83,49.9z M19.6,49.9c-0.2,0-0.4,0-0.6,0c-0.3,0-1-0.8-1.8-2.3c4.5-1.7,11.2-4.8,19.9-9.1l0.6-0.3
			c0.1,0.7,0.2,1.1,0.4,1.3c0.3,0.2,1.4,0.3,3,0.3l0.4,0c0,0,0,0,0,0c-1.7,1.1-5.8,3.7-10.2,6C25.8,48.6,21.9,49.9,19.6,49.9
			L19.6,49.9z M91.4,48.4c-4.1,0-19.5-7.7-25.3-10.6l-1-0.5c0-0.4,0-0.9,0-1.2l0.2,0c1.2,0.1,4,0.3,5.5,0.3c0.1,0,0.2,0,0.2,0
			c12.5,4,20.3,6.4,23.3,7.2c0,0,0.2,0,0.2,0.3c0,1.3-2.1,4.3-2.7,4.4C91.7,48.4,91.5,48.4,91.4,48.4L91.4,48.4z M11.3,48.4
			c-0.2,0-0.3,0-0.4,0c-0.6-0.1-2.7-3.1-2.7-4.4c0-0.3,0.1-0.3,0.2-0.3c3-0.8,10.8-3.2,23.3-7.2c0.1,0,0.1,0,0.2,0
			c1.4,0,4.3-0.2,5.5-0.3l0.2,0c0,0.3,0,0.8,0,1.2l-1,0.5C30.7,40.7,15.4,48.4,11.3,48.4L11.3,48.4z M48,44.6
			c-1.4-0.6-2.5-1.4-3.3-2.2c-1.3-1.2-2.7-3.1-2.7-3.2c-0.1-0.2-0.3-0.3-0.5-0.3c0,0-0.2,0-0.4,0c-1.7,0-2.3-0.1-2.5-0.2l0,0l0,0
			c-0.1-0.4-0.1-1.7-0.1-2.8c0-0.2-0.1-0.4-0.2-0.5c-0.1-0.1-0.3-0.2-0.5-0.2l0,0c0,0-2.4,0.2-4.4,0.3l-0.1,0l0.1-0.1
			c0.6-0.3,1.2-0.7,1.8-1.1l0.1,0c2.4-1.5,5.1-3.2,7.1-3.2c0.8,0,3.1,0,3.9,6.1c0.3,2.3,0.9,4.2,1.8,5.8L48,44.6z M54.7,43.1
			c1-1.7,1.6-3.5,1.8-5.8c0.8-6.1,3.1-6.1,3.9-6.1c2,0,4.7,1.7,7.1,3.2l0.1,0c0.6,0.4,1.2,0.8,1.8,1.1l0.1,0.1l-0.1,0
			c-2-0.1-4.3-0.3-4.4-0.3l0,0c-0.2,0-0.3,0.1-0.5,0.2c-0.1,0.1-0.2,0.3-0.2,0.5c0.1,1.1,0,2.3-0.1,2.8l0,0l0,0
			c-0.2,0-0.8,0.2-2.5,0.2c-0.2,0-0.4,0-0.4,0c-0.2,0-0.4,0.1-0.5,0.3c-0.1,0.1-1.4,1.9-2.7,3.2c-0.8,0.8-2,1.6-3.3,2.2L54.7,43.1z"
			/>
	</g>
</g>
</svg>
