<?xml version="1.0" encoding="UTF-8" standalone="no"?>
<svg
   xmlns:dc="http://purl.org/dc/elements/1.1/"
   xmlns:cc="http://creativecommons.org/ns#"
   xmlns:rdf="http://www.w3.org/1999/02/22-rdf-syntax-ns#"
   xmlns:svg="http://www.w3.org/2000/svg"
   xmlns="http://www.w3.org/2000/svg"
   viewBox="0 0 126.03253 61.5476"
   height="61.5476"
   width="126.03253"
   xml:space="preserve"
   id="svg834"
   version="1.1"><metadata
     id="metadata840"><rdf:RDF><cc:Work
         rdf:about=""><dc:format>image/svg+xml</dc:format><dc:type
           rdf:resource="http://purl.org/dc/dcmitype/StillImage" /><dc:title></dc:title></cc:Work></rdf:RDF></metadata><defs
     id="defs838" /><g
     transform="matrix(1.3333333,0,0,-1.3333333,-48.355999,979.73878)"
     id="g842"><path
       d="m 44.4261,721.6223 -5.167,8.395 h -0.055 l 0.073,-8.395 h -3.01 v 12.837 h 3.535 l 5.149,-8.376 h 0.056 l -0.073,8.376 h 3.01 v -12.837 z"
       style="fill:#f68b33;fill-opacity:1;fill-rule:nonzero;stroke:none"
       id="path1024" /><path
       d="m 56.3734,727.0629 v -5.441 h -3.101 v 5.441 l -4.823,7.397 h 3.753 l 2.738,-4.751 2.738,4.751 h 3.626 z"
       style="fill:#f68b33;fill-opacity:1;fill-rule:nonzero;stroke:none"
       id="path1028" /><path
       d="m 69.6994,721.8491 c -0.833,-0.38 -1.795,-0.572 -2.882,-0.572 -0.991,0 -1.908,0.164 -2.747,0.491 -0.84,0.326 -1.569,0.789 -2.186,1.386 -0.615,0.6 -1.099,1.315 -1.45,2.15 -0.35,0.833 -0.525,1.751 -0.525,2.755 0,1.028 0.177,1.958 0.534,2.792 0.357,0.835 0.85,1.543 1.478,2.13 0.629,0.587 1.366,1.037 2.212,1.351 0.846,0.315 1.758,0.472 2.737,0.472 0.908,0 1.798,-0.161 2.674,-0.479 0.877,-0.322 1.588,-0.79 2.132,-1.406 l -2.104,-2.104 c -0.289,0.398 -0.671,0.695 -1.143,0.887 -0.47,0.194 -0.953,0.292 -1.449,0.292 -0.544,0 -1.043,-0.1 -1.496,-0.299 -0.452,-0.2 -0.842,-0.476 -1.17,-0.825 -0.326,-0.351 -0.58,-0.766 -0.761,-1.242 -0.181,-0.479 -0.272,-1 -0.272,-1.569 0,-0.581 0.091,-1.113 0.272,-1.596 0.181,-0.483 0.432,-0.897 0.753,-1.241 0.32,-0.344 0.703,-0.614 1.151,-0.807 0.446,-0.194 0.936,-0.29 1.468,-0.29 0.616,0 1.154,0.121 1.614,0.363 0.459,0.242 0.828,0.555 1.105,0.942 l 2.158,-2.031 c -0.568,-0.653 -1.269,-1.17 -2.103,-1.55"
       style="fill:#f68b33;fill-opacity:1;fill-rule:nonzero;stroke:none"
       id="path1040" /><path
       d="m 44.371,705.3048 v 5.367 h -5.003 v -5.367 h -3.101 v 12.837 h 3.101 v -4.86 h 5.003 v 4.86 h 3.1 v -12.837 z"
       style="fill:#1e478e;fill-opacity:1;fill-rule:nonzero;stroke:none"
       id="path1044" /><path
       d="m 49.3468,705.3048 v 12.837 h 8.629 v -2.61 h -5.639 v -2.43 h 5.331 v -2.484 h -5.331 v -2.666 h 5.966 v -2.647 z"
       style="fill:#1e478e;fill-opacity:1;fill-rule:nonzero;stroke:none"
       id="path1048" /><path
       d="m 69.2356,705.3058 -0.997,2.52 h -4.968 l -0.943,-2.52 h -3.373 l 5.386,12.836 h 3.009 l 5.33,-12.836 z m -3.445,9.409 -1.632,-4.405 h 3.227 z"
       style="fill:#1e478e;fill-opacity:1;fill-rule:nonzero;stroke:none"
       id="path1052" /><path
       d="m 73.2968,705.3048 v 12.837 h 3.118 v -10.134 h 4.969 v -2.703 z"
       style="fill:#1e478e;fill-opacity:1;fill-rule:nonzero;stroke:none"
       id="path1056" /><path
       d="m 86.8282,715.4954 v -10.19 h -3.1 v 10.19 h -3.626 v 2.646 h 10.353 v -2.646 z"
       style="fill:#1e478e;fill-opacity:1;fill-rule:nonzero;stroke:none"
       id="path1060" /><path
       d="m 99.893,705.3048 v 5.367 h -5.004 v -5.367 h -3.1 v 12.837 h 3.1 v -4.86 h 5.004 v 4.86 h 3.101 v -12.837 z"
       style="fill:#1e478e;fill-opacity:1;fill-rule:nonzero;stroke:none"
       id="path1064" /><path
       d="m 44.371,688.9878 v 5.367 h -5.003 v -5.367 h -3.101 v 12.836 h 3.101 v -4.859 h 5.003 v 4.859 h 3.1 v -12.836 z"
       style="fill:#1e478e;fill-opacity:1;fill-rule:nonzero;stroke:none"
       id="path1068" /><path
       d="m 62.6645,695.4604 c 0,-1.015 -0.175,-1.943 -0.524,-2.783 -0.352,-0.84 -0.839,-1.56 -1.461,-2.158 -0.623,-0.598 -1.363,-1.06 -2.221,-1.387 -0.858,-0.327 -1.79,-0.489 -2.792,-0.489 -1.003,0 -1.93,0.162 -2.783,0.489 -0.852,0.327 -1.59,0.789 -2.211,1.387 -0.624,0.598 -1.11,1.318 -1.46,2.158 -0.351,0.84 -0.526,1.768 -0.526,2.783 0,1.028 0.175,1.954 0.526,2.783 0.35,0.828 0.836,1.532 1.46,2.113 0.621,0.579 1.359,1.026 2.211,1.341 0.853,0.314 1.78,0.472 2.783,0.472 1.002,0 1.934,-0.158 2.792,-0.472 0.858,-0.315 1.598,-0.762 2.221,-1.341 0.622,-0.581 1.109,-1.285 1.461,-2.113 0.349,-0.829 0.524,-1.755 0.524,-2.783 m -3.317,0 c 0,0.556 -0.091,1.076 -0.273,1.558 -0.18,0.484 -0.431,0.899 -0.751,1.243 -0.321,0.344 -0.708,0.617 -1.161,0.817 -0.453,0.198 -0.952,0.298 -1.496,0.298 -0.545,0 -1.039,-0.1 -1.486,-0.298 -0.448,-0.2 -0.834,-0.473 -1.162,-0.817 -0.326,-0.344 -0.577,-0.759 -0.751,-1.243 -0.176,-0.482 -0.263,-1.002 -0.263,-1.558 0,-0.579 0.091,-1.116 0.271,-1.605 0.182,-0.489 0.433,-0.909 0.752,-1.259 0.322,-0.352 0.705,-0.626 1.153,-0.825 0.447,-0.2 0.941,-0.299 1.486,-0.299 0.544,0 1.039,0.099 1.486,0.299 0.448,0.199 0.835,0.473 1.162,0.825 0.325,0.35 0.58,0.77 0.76,1.259 0.182,0.489 0.273,1.026 0.273,1.605"
       style="fill:#1e478e;fill-opacity:1;fill-rule:nonzero;stroke:none"
       id="path1080" /><path
       d="m 70.6602,698.4868 c -0.265,0.339 -0.613,0.609 -1.042,0.808 -0.429,0.2 -0.843,0.3 -1.241,0.3 -0.207,0 -0.415,-0.018 -0.625,-0.055 -0.213,-0.036 -0.403,-0.106 -0.572,-0.209 -0.17,-0.102 -0.311,-0.235 -0.427,-0.398 -0.114,-0.164 -0.172,-0.372 -0.172,-0.627 0,-0.216 0.046,-0.398 0.137,-0.543 0.091,-0.146 0.223,-0.273 0.397,-0.381 0.177,-0.109 0.384,-0.207 0.626,-0.299 0.243,-0.09 0.514,-0.185 0.817,-0.28 0.435,-0.147 0.888,-0.307 1.36,-0.481 0.471,-0.175 0.899,-0.409 1.287,-0.699 0.386,-0.289 0.706,-0.649 0.96,-1.077 0.254,-0.431 0.381,-0.965 0.381,-1.606 0,-0.738 -0.136,-1.375 -0.407,-1.912 -0.272,-0.539 -0.638,-0.983 -1.098,-1.334 -0.459,-0.35 -0.985,-0.609 -1.576,-0.78 -0.593,-0.169 -1.204,-0.253 -1.832,-0.253 -0.919,0 -1.807,0.162 -2.666,0.481 -0.857,0.32 -1.571,0.777 -2.139,1.368 l 2.031,2.068 c 0.314,-0.388 0.728,-0.71 1.242,-0.97 0.513,-0.261 1.025,-0.391 1.532,-0.391 0.229,0 0.454,0.025 0.671,0.074 0.218,0.047 0.408,0.126 0.571,0.235 0.163,0.109 0.294,0.255 0.389,0.435 0.097,0.181 0.146,0.4 0.146,0.654 0,0.241 -0.061,0.446 -0.181,0.615 -0.121,0.171 -0.294,0.323 -0.517,0.463 -0.225,0.138 -0.502,0.264 -0.834,0.38 -0.333,0.116 -0.711,0.24 -1.133,0.372 -0.412,0.133 -0.814,0.291 -1.206,0.472 -0.393,0.182 -0.744,0.414 -1.052,0.697 -0.309,0.285 -0.555,0.628 -0.743,1.034 -0.187,0.405 -0.281,0.897 -0.281,1.478 0,0.714 0.145,1.323 0.435,1.83 0.29,0.508 0.672,0.926 1.141,1.251 0.473,0.327 1.004,0.565 1.597,0.717 0.592,0.151 1.19,0.226 1.795,0.226 0.725,0 1.466,-0.132 2.22,-0.398 0.757,-0.266 1.417,-0.659 1.986,-1.178 z"
       style="fill:#1e478e;fill-opacity:1;fill-rule:nonzero;stroke:none"
       id="path1084" /><path
       d="m 83.8599,697.8718 c 0,-0.751 -0.139,-1.381 -0.417,-1.895 -0.279,-0.512 -0.652,-0.928 -1.125,-1.241 -0.47,-0.314 -1.014,-0.546 -1.631,-0.689 -0.617,-0.146 -1.258,-0.217 -1.921,-0.217 h -1.541 v -4.842 h -3.101 v 12.836 h 4.714 c 0.7,0 1.357,-0.071 1.967,-0.208 0.61,-0.139 1.143,-0.363 1.595,-0.672 0.453,-0.306 0.81,-0.713 1.07,-1.213 0.259,-0.502 0.39,-1.121 0.39,-1.859 m -3.1,-0.018 c 0,0.301 -0.062,0.548 -0.182,0.743 -0.121,0.193 -0.283,0.344 -0.489,0.454 -0.206,0.108 -0.439,0.18 -0.698,0.217 -0.26,0.036 -0.53,0.054 -0.807,0.054 h -1.359 v -3.027 h 1.306 c 0.288,0 0.567,0.024 0.832,0.072 0.266,0.048 0.505,0.133 0.716,0.255 0.212,0.12 0.378,0.28 0.499,0.48 0.12,0.198 0.182,0.449 0.182,0.752"
       style="fill:#1e478e;fill-opacity:1;fill-rule:nonzero;stroke:none"
       id="path1088" /><path
       id="path1090"
       style="fill:#1e478e;fill-opacity:1;fill-rule:nonzero;stroke:none"
       d="m 85.075,701.824 h 3.118 v -12.836 h -3.118 z" /><path
       d="m 96.1155,699.1774 v -10.19 h -3.1 v 10.19 h -3.626 v 2.647 h 10.353 v -2.647 z"
       style="fill:#1e478e;fill-opacity:1;fill-rule:nonzero;stroke:none"
       id="path1094" /><path
       d="m 108.2822,688.9878 -0.997,2.521 h -4.967 l -0.944,-2.521 h -3.373 l 5.387,12.836 h 3.009 l 5.329,-12.836 z m -3.444,9.41 -1.633,-4.406 h 3.228 z"
       style="fill:#1e478e;fill-opacity:1;fill-rule:nonzero;stroke:none"
       id="path1098" /><path
       d="m 112.589,688.9878 v 12.836 h 3.119 v -10.135 h 4.969 v -2.701 z"
       style="fill:#1e478e;fill-opacity:1;fill-rule:nonzero;stroke:none"
       id="path1102" /><path
       d="m 128.8154,698.4868 c -0.266,0.339 -0.614,0.609 -1.043,0.808 -0.428,0.2 -0.843,0.3 -1.241,0.3 -0.207,0 -0.414,-0.018 -0.626,-0.055 -0.211,-0.036 -0.402,-0.106 -0.57,-0.209 -0.17,-0.102 -0.312,-0.235 -0.427,-0.398 -0.115,-0.164 -0.172,-0.372 -0.172,-0.627 0,-0.216 0.044,-0.398 0.136,-0.543 0.091,-0.146 0.224,-0.273 0.398,-0.381 0.175,-0.109 0.384,-0.207 0.626,-0.299 0.241,-0.09 0.513,-0.185 0.816,-0.28 0.435,-0.147 0.888,-0.307 1.36,-0.481 0.471,-0.175 0.9,-0.409 1.287,-0.699 0.387,-0.289 0.707,-0.649 0.961,-1.077 0.254,-0.431 0.38,-0.965 0.38,-1.606 0,-0.738 -0.135,-1.375 -0.407,-1.912 -0.272,-0.539 -0.638,-0.983 -1.098,-1.334 -0.459,-0.35 -0.984,-0.609 -1.576,-0.78 -0.592,-0.169 -1.204,-0.253 -1.831,-0.253 -0.919,0 -1.808,0.162 -2.666,0.481 -0.858,0.32 -1.572,0.777 -2.14,1.368 l 2.032,2.068 c 0.313,-0.388 0.727,-0.71 1.241,-0.97 0.514,-0.261 1.024,-0.391 1.533,-0.391 0.229,0 0.453,0.025 0.671,0.074 0.217,0.047 0.408,0.126 0.57,0.235 0.163,0.109 0.294,0.255 0.39,0.435 0.096,0.181 0.145,0.4 0.145,0.654 0,0.241 -0.061,0.446 -0.182,0.615 -0.12,0.171 -0.292,0.323 -0.515,0.463 -0.225,0.138 -0.503,0.264 -0.835,0.38 -0.332,0.116 -0.711,0.24 -1.133,0.372 -0.412,0.133 -0.813,0.291 -1.206,0.472 -0.392,0.182 -0.744,0.414 -1.052,0.697 -0.309,0.285 -0.554,0.628 -0.743,1.034 -0.187,0.405 -0.28,0.897 -0.28,1.478 0,0.714 0.145,1.323 0.434,1.83 0.29,0.508 0.672,0.926 1.143,1.251 0.471,0.327 1.003,0.565 1.595,0.717 0.592,0.151 1.19,0.226 1.796,0.226 0.724,0 1.465,-0.132 2.22,-0.398 0.755,-0.266 1.416,-0.659 1.985,-1.178 z"
       style="fill:#1e478e;fill-opacity:1;fill-rule:nonzero;stroke:none"
       id="path1114" /><path
       d="m 119.0007,713.2842 h -4.859 v 4.857 h -3.119 v -4.857 h -4.858 v -3.121 h 4.858 v -4.857 h 3.119 v 4.857 h 4.859 z"
       style="fill:#4598cb;fill-opacity:1;fill-rule:nonzero;stroke:none"
       id="path1118" /></g></svg>