<svg id="Layer_1" data-name="Layer 1" xmlns="http://www.w3.org/2000/svg" width="338" height="100" viewBox="0 0 338 100"><defs><style>.cls-1{fill:#201b51;}.cls-2{fill:#0071b9;}.cls-3{fill:#00a950;}</style></defs><title>HRA logo</title><path d="M189.4,23.78h2.67v3.74h3.52V23.78h2.67V34h-2.67V29.82h-3.52V34H189.4Z"/><path d="M207.19,34h-2.37V33h0a2.73,2.73,0,0,1-2.27,1.24c-2.15,0-2.76-1.24-2.76-3.19V26.58h2.44v4.33c0,1,.43,1.34,1.21,1.34.53,0,1.33-.35,1.33-1.67v-4h2.45Z"/><path d="M208.58,26.58H211v1h0a2.48,2.48,0,0,1,2.14-1.23,2.15,2.15,0,0,1,2.17,1.21,2.74,2.74,0,0,1,2.33-1.21c2.37,0,2.63,1.8,2.63,3.22V34h-2.44V29.66c0-.8-.39-1.28-1-1.28-1,0-1.15.81-1.15,2V34h-2.45V29.8c0-.87-.26-1.42-.92-1.42-.87,0-1.25.5-1.25,2V34h-2.44Z"/><path d="M221.55,28.88a2.27,2.27,0,0,1,1.16-2,4.86,4.86,0,0,1,2.37-.52c1.77,0,3.48.39,3.48,2.5v3.26a4.26,4.26,0,0,0,.29,1.91h-2.46a3.34,3.34,0,0,1-.14-.7,3.37,3.37,0,0,1-2.46.92c-1.42,0-2.54-.72-2.54-2.26,0-2.43,2.64-2.24,4.34-2.58.41-.09.64-.23.64-.69s-.67-.78-1.17-.78a1.1,1.1,0,0,0-1.23.93Zm3.16,3.87c1.17,0,1.55-.66,1.5-2.2a6.58,6.58,0,0,1-1.51.4c-.55.13-1,.36-1,.95S224.17,32.75,224.71,32.75Z"/><path d="M229.94,26.58h2.37v1h0a2.81,2.81,0,0,1,2.34-1.23c2.49,0,2.69,1.81,2.69,2.89V34h-2.45v-3.6c0-1,.12-2.06-1.22-2.06-.92,0-1.32.78-1.32,1.6V34h-2.44Z"/><path d="M243,23.78h5.23c1.81,0,3.6.82,3.6,2.89a2.62,2.62,0,0,1-1.61,2.57v0c1.09.26,1.41,1.48,1.49,2.46,0,.43.07,1.94.43,2.31h-2.64a5,5,0,0,1-.3-1.63c-.07-1-.25-2.1-1.5-2.1h-2V34H243Zm2.68,4.46H248A1.1,1.1,0,0,0,249.19,27c0-.76-.6-1.11-1.35-1.11h-2.12Z"/><path d="M255.11,30.91a1.6,1.6,0,0,0,1.67,1.7,1.48,1.48,0,0,0,1.4-.82h2.28a3.53,3.53,0,0,1-3.71,2.47,3.75,3.75,0,0,1-4.08-4,3.92,3.92,0,0,1,4-3.92c2.67,0,4,2,3.89,4.54Zm3-1.36A1.52,1.52,0,0,0,256.7,28a1.62,1.62,0,0,0-1.59,1.53Z"/><path d="M263.46,31.59a1,1,0,0,0,.4.83,1.55,1.55,0,0,0,.91.26c.47,0,1.15-.2,1.15-.79s-.77-.69-1.2-.79c-1.53-.39-3.46-.43-3.46-2.45,0-1.79,1.94-2.28,3.41-2.28,1.63,0,3.35.47,3.43,2.41h-2.26a.7.7,0,0,0-.31-.64,1.46,1.46,0,0,0-.78-.19c-.4,0-1.05,0-1.05.56,0,.7,1.64.83,2.76,1.08a2.11,2.11,0,0,1,1.9,2c0,2-1.9,2.66-3.58,2.66s-3.58-.59-3.65-2.67Z"/><path d="M272.82,26.37a3.95,3.95,0,1,1-3.93,3.95A3.82,3.82,0,0,1,272.82,26.37Zm0,6c1.13,0,1.49-1.12,1.49-2.07s-.36-2.08-1.49-2.08-1.48,1.13-1.48,2.08S271.68,32.39,272.82,32.39Z"/><path d="M285.13,34h-2.37V33h0a2.73,2.73,0,0,1-2.27,1.24c-2.14,0-2.76-1.24-2.76-3.19V26.58h2.45v4.33c0,1,.43,1.34,1.2,1.34.53,0,1.34-.35,1.34-1.67v-4h2.44Z"/><path d="M286.57,26.58h2.37v1.31h0a2.24,2.24,0,0,1,2.24-1.45,2.86,2.86,0,0,1,.58.06v2.23a3.36,3.36,0,0,0-.94-.15A1.72,1.72,0,0,0,289,30.35V34h-2.44Z"/><path d="M297.27,29.32a1.14,1.14,0,0,0-1.19-1.08c-1.37,0-1.58,1.16-1.58,2.2s.41,1.95,1.45,1.95a1.3,1.3,0,0,0,1.39-1.28h2.38A3.5,3.5,0,0,1,296,34.26a3.72,3.72,0,0,1-3.91-3.82A3.78,3.78,0,0,1,296,26.37c1.86,0,3.51,1,3.68,2.95Z"/><path d="M302.73,30.91a1.6,1.6,0,0,0,1.67,1.7,1.46,1.46,0,0,0,1.39-.82h2.29a3.54,3.54,0,0,1-3.71,2.47,3.75,3.75,0,0,1-4.08-4,3.92,3.92,0,0,1,4-3.92c2.68,0,4,2,3.9,4.54Zm3-1.36A1.52,1.52,0,0,0,304.31,28a1.62,1.62,0,0,0-1.58,1.53Z"/><path d="M311.08,31.59a1,1,0,0,0,.4.83,1.54,1.54,0,0,0,.9.26c.48,0,1.16-.2,1.16-.79s-.77-.69-1.2-.79c-1.54-.39-3.46-.43-3.46-2.45,0-1.79,1.94-2.28,3.4-2.28,1.64,0,3.35.47,3.44,2.41h-2.26a.7.7,0,0,0-.31-.64,1.46,1.46,0,0,0-.78-.19c-.4,0-1.05,0-1.05.56,0,.7,1.64.83,2.76,1.08a2.11,2.11,0,0,1,1.9,2c0,2-1.9,2.66-3.58,2.66s-3.58-.59-3.65-2.67Z"/><path d="M192.21,38.91h2.72l3.84,10.26H196l-.63-1.84h-3.58l-.65,1.84h-2.74Zm.18,6.44h2.32l-1.13-3.59h0Z"/><path d="M206.51,49.17h-2.33v-.86h0a2.38,2.38,0,0,1-2.05,1.08c-2.35,0-3.34-2-3.34-4.11,0-1.94,1-3.78,3.15-3.78a2.5,2.5,0,0,1,2.13,1h0V38.91h2.45Zm-5.31-3.81c0,1,.38,2.16,1.5,2.16s1.45-1.14,1.45-2.08-.39-2.07-1.45-2.07S201.2,44.42,201.2,45.36Z"/><path d="M207.91,41.71h2.38v1h0a2.51,2.51,0,0,1,2.15-1.23,2.17,2.17,0,0,1,2.17,1.2A2.73,2.73,0,0,1,217,41.5c2.37,0,2.63,1.79,2.63,3.22v4.45h-2.45V44.79c0-.81-.39-1.28-1-1.28-1.05,0-1.15.8-1.15,2v3.65h-2.44V44.93c0-.87-.26-1.42-.92-1.42-.88,0-1.25.5-1.25,2v3.63h-2.45Z"/><path d="M223.47,40.78H221V38.91h2.45Zm-2.45.93h2.45v7.46H221Z"/><path d="M224.88,41.71h2.37v1h0a2.82,2.82,0,0,1,2.34-1.23c2.49,0,2.69,1.81,2.69,2.89v4.78h-2.44V45.56c0-1,.11-2.05-1.22-2.05-.92,0-1.33.78-1.33,1.59v4.07h-2.44Z"/><path d="M236.18,40.78h-2.45V38.91h2.45Zm-2.45.93h2.45v7.46h-2.45Z"/><path d="M239.53,46.71a1,1,0,0,0,.41.84,1.54,1.54,0,0,0,.9.26c.48,0,1.15-.2,1.15-.79s-.76-.69-1.19-.79c-1.54-.39-3.47-.44-3.47-2.45,0-1.79,1.95-2.28,3.41-2.28,1.64,0,3.35.47,3.44,2.41h-2.26a.67.67,0,0,0-.32-.64,1.42,1.42,0,0,0-.77-.19c-.4,0-1.05,0-1.05.56,0,.7,1.64.83,2.76,1.08a2.11,2.11,0,0,1,1.9,2c0,2-1.9,2.66-3.58,2.66s-3.58-.59-3.65-2.68Z"/><path d="M249.87,43.29h-1.51v3.4c0,.59.35.71.88.71l.63,0v1.79c-.45,0-.89.07-1.34.07-2.08,0-2.61-.6-2.61-2.63V43.29h-1.24V41.71h1.24V39.46h2.44v2.25h1.51Z"/><path d="M250.88,41.71h2.37V43h0a2.24,2.24,0,0,1,2.24-1.45,2.29,2.29,0,0,1,.58.06v2.22a3.75,3.75,0,0,0-.94-.14,1.72,1.72,0,0,0-1.84,1.77v3.69h-2.44Z"/><path d="M256.61,44a2.3,2.3,0,0,1,1.16-2,5,5,0,0,1,2.37-.51c1.77,0,3.48.39,3.48,2.5v3.26a4.3,4.3,0,0,0,.29,1.91h-2.46a3.34,3.34,0,0,1-.14-.7,3.37,3.37,0,0,1-2.46.92c-1.42,0-2.54-.72-2.54-2.26,0-2.43,2.64-2.24,4.34-2.59.41-.08.64-.23.64-.69s-.67-.77-1.17-.77a1.1,1.1,0,0,0-1.23.93Zm3.16,3.87c1.17,0,1.55-.66,1.5-2.2a6.58,6.58,0,0,1-1.51.4c-.55.13-1,.36-1,1S259.22,47.88,259.77,47.88Z"/><path d="M269.4,43.29h-1.51v3.4c0,.59.35.71.88.71l.63,0v1.79c-.44,0-.89.07-1.33.07-2.09,0-2.62-.6-2.62-2.63V43.29h-1.24V41.71h1.24V39.46h2.44v2.25h1.51Z"/><path d="M272.87,40.78h-2.45V38.91h2.45Zm-2.45.93h2.45v7.46h-2.45Z"/><path d="M277.83,41.5a3.95,3.95,0,1,1-3.92,4A3.82,3.82,0,0,1,277.83,41.5Zm0,6c1.14,0,1.5-1.12,1.5-2.07s-.36-2.08-1.5-2.08-1.48,1.13-1.48,2.08S276.7,47.52,277.83,47.52Z"/><path d="M282.78,41.71h2.37v1h0a2.81,2.81,0,0,1,2.34-1.23c2.49,0,2.69,1.81,2.69,2.89v4.78h-2.44V45.56c0-1,.11-2.05-1.23-2.05-.92,0-1.32.78-1.32,1.59v4.07h-2.44Z"/><path d="M189.06,53.67h3.66c2.73,0,3.9,2,3.9,4.42s-1.17,4.42-3.9,4.42h-3.66Zm1.55,7.58h1.52c2.43,0,2.94-1.39,2.94-3.16s-.51-3.16-2.94-3.16h-1.52Z"/><path d="M198.69,59.67a1.7,1.7,0,0,0,1.72,1.9A1.48,1.48,0,0,0,202,60.5h1.34a2.81,2.81,0,0,1-2.9,2.18,3,3,0,0,1-3.13-3.37,3.09,3.09,0,1,1,6.11.36Zm3.29-.92a1.65,1.65,0,1,0-3.29,0Z"/><path d="M204.26,56.11h1.34V57h0a2.15,2.15,0,0,1,2-1c2,0,3,1.53,3,3.4,0,1.72-.87,3.34-2.76,3.34a2.49,2.49,0,0,1-2.14-1h0v3.19h-1.41Zm3.16.94c-1.19,0-1.8.9-1.8,2.26s.66,2.26,1.8,2.26,1.77-1.14,1.77-2.26S208.58,57.05,207.42,57.05Z"/><path d="M216.87,61.08c0,.35.07.49.33.49a1.64,1.64,0,0,0,.35,0v1a3.69,3.69,0,0,1-.89.16c-.57,0-1-.2-1.09-.78a3.26,3.26,0,0,1-2.21.78,2,2,0,0,1-2.19-1.87c0-1.59,1.27-1.85,2.46-2,1-.19,1.92-.07,1.92-.9s-.76-.87-1.33-.87c-.79,0-1.35.32-1.41,1H211.4c.1-1.64,1.5-2.12,2.91-2.12,1.25,0,2.56.5,2.56,1.85Zm-1.41-1.78a5.07,5.07,0,0,1-1.73.39c-.61.09-1.15.32-1.15,1.06s.8.82,1.3.82,1.58-.32,1.58-1.22Z"/><path d="M218.22,56.11h1.32v1.24h0a2.08,2.08,0,0,1,1.87-1.41,4.07,4.07,0,0,1,.53,0v1.36a5.8,5.8,0,0,0-.6-.06c-1,0-1.73.78-1.73,2.19v3h-1.41Z"/><path d="M222.13,56.11h1.07V54.19h1.41v1.92h1.27v1h-1.27v3.42c0,.58,0,.88.68.88a2.35,2.35,0,0,0,.59-.05V62.5c-.31,0-.61.07-.91.07-1.48,0-1.75-.57-1.77-1.63V57.16h-1.07Z"/><path d="M226.62,56.11H228V57h0a2.14,2.14,0,0,1,2-1.06A1.8,1.8,0,0,1,231.76,57a2.3,2.3,0,0,1,2-1.06,1.88,1.88,0,0,1,2.14,2.15v4.42H234.5V58.77c0-1-.07-1.72-1.17-1.72s-1.36.63-1.36,1.71v3.75h-1.41V58.4c0-.88-.27-1.35-1.13-1.35A1.47,1.47,0,0,0,228,58.71v3.8h-1.42Z"/><path d="M238.23,59.67a1.7,1.7,0,0,0,1.72,1.9,1.48,1.48,0,0,0,1.56-1.07h1.34a2.81,2.81,0,0,1-2.9,2.18,3,3,0,0,1-3.13-3.37,3.09,3.09,0,1,1,6.11.36Zm3.29-.92a1.65,1.65,0,1,0-3.29,0Z"/><path d="M243.78,56.11h1.34v.94l0,0a2.29,2.29,0,0,1,2-1.13,2,2,0,0,1,2.27,2.17v4.4H248v-4c0-1-.42-1.44-1.25-1.44a1.56,1.56,0,0,0-1.55,1.68v3.78h-1.41Z"/><path d="M250,56.11H251V54.19h1.42v1.92h1.27v1h-1.27v3.42c0,.58,0,.88.68.88a2.39,2.39,0,0,0,.59-.05V62.5c-.31,0-.61.07-.92.07-1.47,0-1.74-.57-1.77-1.63V57.16H250Z"/><path d="M257.37,59.3a3.23,3.23,0,1,1,3.23,3.38A3.09,3.09,0,0,1,257.37,59.3Zm5.05,0c0-1.1-.55-2.25-1.82-2.25s-1.81,1.15-1.81,2.25.55,2.27,1.81,2.27S262.42,60.42,262.42,59.3Z"/><path d="M264.05,56.11h1.05v-.53c0-1.64.86-1.91,1.77-1.91a4,4,0,0,1,1,.09v1.1a2.34,2.34,0,0,0-.65-.07c-.39,0-.7.13-.7.66v.66h1.2v1h-1.2v5.35H265.1V57.16h-1.05Z"/><path d="M190.08,72.59c0,1.36,1,1.9,2.24,1.9s1.86-.67,1.86-1.34a1.05,1.05,0,0,0-.73-1.09c-.62-.24-1.42-.4-2.63-.73a2.25,2.25,0,0,1-2-2.24c0-1.77,1.64-2.6,3.23-2.6,1.85,0,3.39,1,3.39,2.82h-1.54c-.08-1.14-.85-1.56-1.91-1.56-.72,0-1.62.26-1.62,1.15,0,.62.42,1,1.05,1.14l2.55.68A2.35,2.35,0,0,1,195.73,73c0,2-1.76,2.77-3.51,2.77-2,0-3.65-1-3.69-3.16Z"/><path d="M196.36,72.33a3.23,3.23,0,1,1,3.23,3.38A3.08,3.08,0,0,1,196.36,72.33Zm5,0c0-1.1-.56-2.25-1.82-2.25s-1.82,1.15-1.82,2.25.56,2.27,1.82,2.27S201.41,73.45,201.41,72.33Z"/><path d="M208.07,71.28a1.35,1.35,0,0,0-1.46-1.2c-.73,0-1.76.38-1.76,2.33,0,1.06.47,2.19,1.69,2.19a1.53,1.53,0,0,0,1.53-1.46h1.41a2.76,2.76,0,0,1-2.94,2.57,3,3,0,0,1-3.1-3.3c0-1.93,1.05-3.44,3.15-3.44a2.59,2.59,0,0,1,2.89,2.31Z"/><path d="M210.4,66.7h1.41V68H210.4Zm0,2.44h1.41v6.4H210.4Z"/><path d="M218.44,74.11c0,.35.07.49.33.49a1.64,1.64,0,0,0,.35,0v1a3.78,3.78,0,0,1-.89.16c-.57,0-1-.2-1.09-.78a3.26,3.26,0,0,1-2.22.78,2,2,0,0,1-2.19-1.87c0-1.59,1.28-1.85,2.47-2,1-.19,1.91-.07,1.91-.9s-.75-.87-1.32-.87c-.79,0-1.35.32-1.41,1H213c.1-1.64,1.5-2.12,2.91-2.12,1.25,0,2.56.5,2.56,1.85ZM217,72.33a5.18,5.18,0,0,1-1.73.39c-.61.09-1.16.32-1.16,1.06s.81.82,1.3.82,1.59-.33,1.59-1.22Z"/><path d="M219.82,66.7h1.41v8.84h-1.41Z"/><path d="M226.93,72.59c0,1.36,1,1.9,2.24,1.9s1.86-.67,1.86-1.34a1.05,1.05,0,0,0-.73-1.09c-.61-.24-1.42-.4-2.63-.73a2.25,2.25,0,0,1-2-2.24c0-1.77,1.64-2.6,3.23-2.6,1.85,0,3.39,1,3.39,2.82h-1.54c-.08-1.14-.85-1.56-1.91-1.56-.72,0-1.62.26-1.62,1.15,0,.62.42,1,1.05,1.14l2.55.68A2.35,2.35,0,0,1,232.58,73c0,2-1.76,2.77-3.51,2.77-2,0-3.65-1-3.69-3.16Z"/><path d="M234.61,72.7a1.71,1.71,0,0,0,1.72,1.9,1.48,1.48,0,0,0,1.56-1.07h1.34a2.81,2.81,0,0,1-2.9,2.18,3,3,0,0,1-3.13-3.37,3.09,3.09,0,1,1,6.11.36Zm3.29-.92a1.65,1.65,0,1,0-3.29,0Z"/><path d="M240.16,69.14h1.33v1.24h0A2.06,2.06,0,0,1,243.38,69a4.07,4.07,0,0,1,.53,0v1.36c-.2,0-.41-.06-.6-.06-1,0-1.74.78-1.74,2.19v3.05h-1.41Z"/><path d="M244.08,69.14h1.54l1.62,4.91h0l1.56-4.91h1.46L248,75.54h-1.59Z"/><path d="M250.92,66.7h1.41V68h-1.41Zm0,2.44h1.41v6.4h-1.41Z"/><path d="M257.9,71.28a1.35,1.35,0,0,0-1.46-1.2c-.73,0-1.75.38-1.75,2.33,0,1.06.47,2.19,1.69,2.19a1.52,1.52,0,0,0,1.52-1.46h1.42a2.76,2.76,0,0,1-2.94,2.57,3,3,0,0,1-3.1-3.3c0-1.93,1.05-3.44,3.15-3.44a2.59,2.59,0,0,1,2.89,2.31Z"/><path d="M261.32,72.7A1.71,1.71,0,0,0,263,74.6a1.48,1.48,0,0,0,1.56-1.07h1.34a2.81,2.81,0,0,1-2.9,2.18,3,3,0,0,1-3.13-3.37,3.09,3.09,0,1,1,6.11.36Zm3.29-.92a1.65,1.65,0,1,0-3.29,0Z"/><path d="M268,73.48c.07.82.69,1.12,1.45,1.12.53,0,1.46-.11,1.42-.85s-1.07-.82-2.09-1.06-2.06-.59-2.06-1.89S268.18,69,269.35,69s2.5.54,2.67,2h-1.47c-.13-.66-.68-.85-1.3-.85-.41,0-1.17.1-1.17.66s1,.79,2.08,1,2.07.61,2.07,1.87c0,1.52-1.53,2.08-2.86,2.08-1.61,0-2.81-.72-2.83-2.23Z"/><polygon class="cls-1" points="73.54 26.95 70.32 23.73 57.42 23.73 54.19 26.95 54.19 39.85 38.06 23.73 25.16 23.73 21.94 26.95 21.94 72.1 25.16 75.33 38.06 75.33 41.29 72.1 41.29 59.2 57.42 75.33 70.32 75.33 73.54 72.1 73.54 46.3 73.54 26.95"/><polygon class="cls-2" points="125.15 33.4 125.15 26.95 121.92 23.73 109.02 23.73 105.8 26.95 105.8 33.4 99.35 39.85 92.9 33.4 92.9 26.95 89.67 23.73 76.77 23.73 73.54 26.95 73.54 46.3 89.67 62.43 89.67 72.1 92.9 75.33 105.8 75.33 109.02 72.1 109.02 62.43 125.15 46.3 125.15 33.4"/><polygon class="cls-3" points="125.15 46.56 125.15 65.91 134.82 75.59 167.08 75.59 176.76 65.91 176.76 56.24 173.53 53.01 157.4 53.01 157.4 56.24 144.5 56.24 144.5 43.34 157.4 43.34 157.4 46.53 173.53 46.53 173.53 46.53 176.76 43.34 176.76 33.66 167.08 23.99 134.82 23.99 125.15 33.66 125.15 46.56"/><path class="cls-3" d="M174.89,25.31h.21c.25,0,.45-.08.45-.28s-.13-.3-.41-.3a1.11,1.11,0,0,0-.25,0v.55Zm0,1.08h-.45V24.46a5.94,5.94,0,0,1,.74-.06,1,1,0,0,1,.66.16.47.47,0,0,1,.2.41.5.5,0,0,1-.4.46v0c.19.06.29.21.34.47a1.42,1.42,0,0,0,.15.47h-.48a1.81,1.81,0,0,1-.15-.47c0-.2-.15-.29-.4-.29h-.21v.76Zm-1.19-1a1.51,1.51,0,0,0,1.51,1.55,1.49,1.49,0,0,0,1.47-1.54,1.49,1.49,0,1,0-3,0Zm3.47,0a2,2,0,1,1-2-1.93,1.94,1.94,0,0,1,2,1.93Z"/></svg>